%TF.GenerationSoftware,KiCad,Pcbnew,7.0.1*%
%TF.CreationDate,2023-05-04T08:54:13-07:00*%
%TF.ProjectId,split-kb,73706c69-742d-46b6-922e-6b696361645f,rev?*%
%TF.SameCoordinates,Original*%
%TF.FileFunction,Paste,Bot*%
%TF.FilePolarity,Positive*%
%FSLAX46Y46*%
G04 Gerber Fmt 4.6, Leading zero omitted, Abs format (unit mm)*
G04 Created by KiCad (PCBNEW 7.0.1) date 2023-05-04 08:54:13*
%MOMM*%
%LPD*%
G01*
G04 APERTURE LIST*
G04 Aperture macros list*
%AMRoundRect*
0 Rectangle with rounded corners*
0 $1 Rounding radius*
0 $2 $3 $4 $5 $6 $7 $8 $9 X,Y pos of 4 corners*
0 Add a 4 corners polygon primitive as box body*
4,1,4,$2,$3,$4,$5,$6,$7,$8,$9,$2,$3,0*
0 Add four circle primitives for the rounded corners*
1,1,$1+$1,$2,$3*
1,1,$1+$1,$4,$5*
1,1,$1+$1,$6,$7*
1,1,$1+$1,$8,$9*
0 Add four rect primitives between the rounded corners*
20,1,$1+$1,$2,$3,$4,$5,0*
20,1,$1+$1,$4,$5,$6,$7,0*
20,1,$1+$1,$6,$7,$8,$9,0*
20,1,$1+$1,$8,$9,$2,$3,0*%
G04 Aperture macros list end*
%ADD10RoundRect,0.225000X0.375000X-0.225000X0.375000X0.225000X-0.375000X0.225000X-0.375000X-0.225000X0*%
%ADD11RoundRect,0.225000X0.225000X0.375000X-0.225000X0.375000X-0.225000X-0.375000X0.225000X-0.375000X0*%
%ADD12R,0.600000X1.450000*%
%ADD13R,0.300000X1.450000*%
%ADD14RoundRect,0.225000X-0.225000X-0.375000X0.225000X-0.375000X0.225000X0.375000X-0.225000X0.375000X0*%
%ADD15RoundRect,0.250000X-0.350000X-0.450000X0.350000X-0.450000X0.350000X0.450000X-0.350000X0.450000X0*%
%ADD16RoundRect,0.250000X0.350000X0.450000X-0.350000X0.450000X-0.350000X-0.450000X0.350000X-0.450000X0*%
G04 APERTURE END LIST*
D10*
%TO.C,D41*%
X237331250Y-294481250D03*
X237331250Y-291181250D03*
%TD*%
%TO.C,D53*%
X275431250Y-294543750D03*
X275431250Y-291243750D03*
%TD*%
%TO.C,D83*%
X361156250Y-275493750D03*
X361156250Y-272193750D03*
%TD*%
D11*
%TO.C,D23*%
X160400000Y-263525000D03*
X157100000Y-263525000D03*
%TD*%
D10*
%TO.C,D108*%
X461168750Y-256443750D03*
X461168750Y-253143750D03*
%TD*%
%TO.C,D51*%
X261143750Y-256443750D03*
X261143750Y-253143750D03*
%TD*%
%TO.C,D52*%
X265906250Y-275493750D03*
X265906250Y-272193750D03*
%TD*%
%TO.C,D39*%
X223043750Y-256443750D03*
X223043750Y-253143750D03*
%TD*%
%TO.C,D13*%
X113506250Y-275493750D03*
X113506250Y-272193750D03*
%TD*%
%TO.C,D40*%
X227806250Y-275493750D03*
X227806250Y-272193750D03*
%TD*%
%TO.C,D48*%
X263525000Y-313593750D03*
X263525000Y-310293750D03*
%TD*%
%TO.C,D69*%
X327818750Y-237393750D03*
X327818750Y-234093750D03*
%TD*%
%TO.C,D30*%
X177800000Y-313593750D03*
X177800000Y-310293750D03*
%TD*%
%TO.C,D8*%
X94456250Y-294543750D03*
X94456250Y-291243750D03*
%TD*%
%TO.C,D88*%
X375443750Y-256443750D03*
X375443750Y-253143750D03*
%TD*%
%TO.C,D84*%
X370681250Y-294543750D03*
X370681250Y-291243750D03*
%TD*%
%TO.C,D107*%
X461168750Y-294543750D03*
X461168750Y-291243750D03*
%TD*%
%TO.C,D63*%
X308768750Y-237393750D03*
X308768750Y-234093750D03*
%TD*%
D12*
%TO.C,P2*%
X349175000Y-200101250D03*
X349975000Y-200101250D03*
D13*
X351175000Y-200101250D03*
X352175000Y-200101250D03*
X352675000Y-200101250D03*
X353675000Y-200101250D03*
D12*
X354875000Y-200101250D03*
X355675000Y-200101250D03*
X355675000Y-200101250D03*
X354875000Y-200101250D03*
D13*
X354175000Y-200101250D03*
X353175000Y-200101250D03*
X351675000Y-200101250D03*
X350675000Y-200101250D03*
D12*
X349975000Y-200101250D03*
X349175000Y-200101250D03*
%TD*%
D10*
%TO.C,D92*%
X418306250Y-213581250D03*
X418306250Y-210281250D03*
%TD*%
%TO.C,D59*%
X294481250Y-294543750D03*
X294481250Y-291243750D03*
%TD*%
%TO.C,D31*%
X193833750Y-206120000D03*
X193833750Y-202820000D03*
%TD*%
D12*
%TO.C,P1*%
X268212500Y-200101250D03*
X269012500Y-200101250D03*
D13*
X270212500Y-200101250D03*
X271212500Y-200101250D03*
X271712500Y-200101250D03*
X272712500Y-200101250D03*
D12*
X273912500Y-200101250D03*
X274712500Y-200101250D03*
X274712500Y-200101250D03*
X273912500Y-200101250D03*
D13*
X273212500Y-200101250D03*
X272212500Y-200101250D03*
X270712500Y-200101250D03*
X269712500Y-200101250D03*
D12*
X269012500Y-200101250D03*
X268212500Y-200101250D03*
%TD*%
D10*
%TO.C,D29*%
X187325000Y-294543750D03*
X187325000Y-291243750D03*
%TD*%
%TO.C,D93*%
X404018750Y-237393750D03*
X404018750Y-234093750D03*
%TD*%
%TO.C,D15*%
X131762500Y-213581250D03*
X131762500Y-210281250D03*
%TD*%
%TO.C,D18*%
X132556250Y-275493750D03*
X132556250Y-272193750D03*
%TD*%
%TO.C,D70*%
X318293750Y-256443750D03*
X318293750Y-253143750D03*
%TD*%
%TO.C,D56*%
X270668750Y-237393750D03*
X270668750Y-234093750D03*
%TD*%
%TO.C,D79*%
X392112500Y-313593750D03*
X392112500Y-310293750D03*
%TD*%
%TO.C,D25*%
X170973750Y-206120000D03*
X170973750Y-202820000D03*
%TD*%
%TO.C,D75*%
X346868750Y-237331250D03*
X346868750Y-234031250D03*
%TD*%
%TO.C,D71*%
X323056250Y-275493750D03*
X323056250Y-272193750D03*
%TD*%
%TO.C,D78*%
X351631250Y-294543750D03*
X351631250Y-291243750D03*
%TD*%
%TO.C,D65*%
X304006250Y-275493750D03*
X304006250Y-272193750D03*
%TD*%
%TO.C,D47*%
X256381250Y-294543750D03*
X256381250Y-291243750D03*
%TD*%
%TO.C,D22*%
X151606250Y-237393750D03*
X151606250Y-234093750D03*
%TD*%
%TO.C,D21*%
X151923750Y-213581250D03*
X151923750Y-210281250D03*
%TD*%
%TO.C,D34*%
X208756250Y-275493750D03*
X208756250Y-272193750D03*
%TD*%
%TO.C,D10*%
X112712500Y-213581250D03*
X112712500Y-210281250D03*
%TD*%
%TO.C,D104*%
X461168750Y-237393750D03*
X461168750Y-234093750D03*
%TD*%
%TO.C,D11*%
X113506250Y-237393750D03*
X113506250Y-234093750D03*
%TD*%
%TO.C,D19*%
X132556250Y-294543750D03*
X132556250Y-291243750D03*
%TD*%
%TO.C,D99*%
X432593750Y-237393750D03*
X432593750Y-234093750D03*
%TD*%
%TO.C,D68*%
X337343750Y-213581250D03*
X337343750Y-210281250D03*
%TD*%
%TO.C,D38*%
X213518750Y-237393750D03*
X213518750Y-234093750D03*
%TD*%
%TO.C,D7*%
X94456250Y-275493750D03*
X94456250Y-272193750D03*
%TD*%
%TO.C,D90*%
X389731250Y-294543750D03*
X389731250Y-291243750D03*
%TD*%
D14*
%TO.C,D86*%
X394113750Y-215900000D03*
X397413750Y-215900000D03*
%TD*%
D10*
%TO.C,D32*%
X194468750Y-237393750D03*
X194468750Y-234093750D03*
%TD*%
%TO.C,D6*%
X94456250Y-256443750D03*
X94456250Y-253143750D03*
%TD*%
%TO.C,D54*%
X294481250Y-313593750D03*
X294481250Y-310293750D03*
%TD*%
%TO.C,D35*%
X218281250Y-294543750D03*
X218281250Y-291243750D03*
%TD*%
%TO.C,D103*%
X461168750Y-213581250D03*
X461168750Y-210281250D03*
%TD*%
%TO.C,D46*%
X246856250Y-275493750D03*
X246856250Y-272193750D03*
%TD*%
%TO.C,D97*%
X461168750Y-313593750D03*
X461168750Y-310293750D03*
%TD*%
%TO.C,D105*%
X437356250Y-256443750D03*
X437356250Y-253143750D03*
%TD*%
%TO.C,D33*%
X203993750Y-256381250D03*
X203993750Y-253081250D03*
%TD*%
%TO.C,D44*%
X232568750Y-237393750D03*
X232568750Y-234093750D03*
%TD*%
%TO.C,D42*%
X225425000Y-313593750D03*
X225425000Y-310293750D03*
%TD*%
%TO.C,D60*%
X299243750Y-213581250D03*
X299243750Y-210281250D03*
%TD*%
%TO.C,D61*%
X289718750Y-237393750D03*
X289718750Y-234093750D03*
%TD*%
%TO.C,D73*%
X368300000Y-313593750D03*
X368300000Y-310293750D03*
%TD*%
%TO.C,D72*%
X332581250Y-294543750D03*
X332581250Y-291243750D03*
%TD*%
%TO.C,D87*%
X384968750Y-237393750D03*
X384968750Y-234093750D03*
%TD*%
%TO.C,D36*%
X201612500Y-313593750D03*
X201612500Y-310293750D03*
%TD*%
%TO.C,D9*%
X103981250Y-313593750D03*
X103981250Y-310293750D03*
%TD*%
%TO.C,D43*%
X233203750Y-206120000D03*
X233203750Y-202820000D03*
%TD*%
%TO.C,D26*%
X174625000Y-237393750D03*
X174625000Y-234093750D03*
%TD*%
%TO.C,D64*%
X299243750Y-256443750D03*
X299243750Y-253143750D03*
%TD*%
D11*
%TO.C,D24*%
X160400000Y-301625000D03*
X157100000Y-301625000D03*
%TD*%
D10*
%TO.C,D16*%
X132556250Y-237393750D03*
X132556250Y-234093750D03*
%TD*%
%TO.C,D98*%
X441325000Y-213581250D03*
X441325000Y-210281250D03*
%TD*%
%TO.C,D91*%
X442118750Y-313593750D03*
X442118750Y-310293750D03*
%TD*%
%TO.C,D82*%
X356393750Y-256443750D03*
X356393750Y-253143750D03*
%TD*%
D15*
%TO.C,R7*%
X349043750Y-207010000D03*
X351043750Y-207010000D03*
%TD*%
D10*
%TO.C,D66*%
X313531250Y-294543750D03*
X313531250Y-291243750D03*
%TD*%
%TO.C,D57*%
X280193750Y-256443750D03*
X280193750Y-253143750D03*
%TD*%
%TO.C,D12*%
X113506250Y-256443750D03*
X113506250Y-253143750D03*
%TD*%
%TO.C,D62*%
X318293750Y-213581250D03*
X318293750Y-210281250D03*
%TD*%
%TO.C,D5*%
X94456250Y-237393750D03*
X94456250Y-234093750D03*
%TD*%
%TO.C,D106*%
X461168750Y-275493750D03*
X461168750Y-272193750D03*
%TD*%
%TO.C,D89*%
X380206250Y-275493750D03*
X380206250Y-272193750D03*
%TD*%
%TO.C,D55*%
X280193750Y-213581250D03*
X280193750Y-210281250D03*
%TD*%
%TO.C,D100*%
X413543750Y-256443750D03*
X413543750Y-253143750D03*
%TD*%
%TO.C,D94*%
X394493750Y-256443750D03*
X394493750Y-253143750D03*
%TD*%
%TO.C,D81*%
X365918750Y-237393750D03*
X365918750Y-234093750D03*
%TD*%
%TO.C,D101*%
X430212500Y-275431250D03*
X430212500Y-272131250D03*
%TD*%
%TO.C,D76*%
X337343750Y-256443750D03*
X337343750Y-253143750D03*
%TD*%
%TO.C,D96*%
X415925000Y-294543750D03*
X415925000Y-291243750D03*
%TD*%
%TO.C,D95*%
X399256250Y-275431250D03*
X399256250Y-272131250D03*
%TD*%
%TO.C,D50*%
X251618750Y-237393750D03*
X251618750Y-234093750D03*
%TD*%
%TO.C,D20*%
X132556250Y-313593750D03*
X132556250Y-310293750D03*
%TD*%
D16*
%TO.C,R6*%
X356123750Y-207010000D03*
X354123750Y-207010000D03*
%TD*%
D10*
%TO.C,D37*%
X212883750Y-206120000D03*
X212883750Y-202820000D03*
%TD*%
%TO.C,D102*%
X442118750Y-294543750D03*
X442118750Y-291243750D03*
%TD*%
%TO.C,D77*%
X342106250Y-275493750D03*
X342106250Y-272193750D03*
%TD*%
%TO.C,D67*%
X330200000Y-313593750D03*
X330200000Y-310293750D03*
%TD*%
%TO.C,D49*%
X250983750Y-206120000D03*
X250983750Y-202820000D03*
%TD*%
%TO.C,D28*%
X182562500Y-275493750D03*
X182562500Y-272193750D03*
%TD*%
%TO.C,D17*%
X132556250Y-256443750D03*
X132556250Y-253143750D03*
%TD*%
D15*
%TO.C,R3*%
X267763750Y-207010000D03*
X269763750Y-207010000D03*
%TD*%
D10*
%TO.C,D74*%
X350043750Y-213740000D03*
X350043750Y-210440000D03*
%TD*%
%TO.C,D14*%
X113506250Y-294543750D03*
X113506250Y-291243750D03*
%TD*%
%TO.C,D58*%
X284956250Y-275493750D03*
X284956250Y-272193750D03*
%TD*%
D14*
%TO.C,D80*%
X375063750Y-215900000D03*
X378363750Y-215900000D03*
%TD*%
D10*
%TO.C,D85*%
X423068750Y-313593750D03*
X423068750Y-310293750D03*
%TD*%
%TO.C,D45*%
X242093750Y-256443750D03*
X242093750Y-253143750D03*
%TD*%
%TO.C,D4*%
X93662500Y-213581250D03*
X93662500Y-210281250D03*
%TD*%
%TO.C,D27*%
X180181250Y-256443750D03*
X180181250Y-253143750D03*
%TD*%
D16*
%TO.C,R2*%
X274843750Y-207010000D03*
X272843750Y-207010000D03*
%TD*%
M02*
