M48
; DRILL file {KiCad 7.0.1} date Thu May  4 08:54:11 2023
; FORMAT={-:-/ absolute / inch / decimal}
; #@! TF.CreationDate,2023-05-04T08:54:11-07:00
; #@! TF.GenerationSoftware,Kicad,Pcbnew,7.0.1
; #@! TF.FileFunction,NonPlated,1,2,NPTH
FMAT,2
INCH
; #@! TA.AperFunction,NonPlated,NPTH,ComponentDrill
T1C0.0256
; #@! TA.AperFunction,NonPlated,NPTH,ComponentDrill
T2C0.0310
; #@! TA.AperFunction,NonPlated,NPTH,ComponentDrill
T3C0.0669
; #@! TA.AperFunction,NonPlated,NPTH,ComponentDrill
T4C0.1201
; #@! TA.AperFunction,NonPlated,NPTH,ComponentDrill
T5C0.1575
%
G90
G05
T1
X10.5737Y-7.8211
X10.8013Y-7.8211
X13.7612Y-7.8211
X13.9888Y-7.8211
T2
X11.6463Y-10.525
X11.6463Y-10.575
X11.6463Y-10.625
X11.6463Y-10.675
X11.6463Y-10.725
X11.8025Y-10.525
X11.8025Y-10.575
X11.8025Y-10.625
X11.8025Y-10.675
X11.8025Y-10.725
X12.0213Y-11.9625
X12.0213Y-12.0125
X12.0213Y-12.0625
X12.0213Y-12.1125
X12.0213Y-12.1625
X12.1775Y-11.9625
X12.1775Y-12.0125
X12.1775Y-12.0625
X12.1775Y-12.1125
X12.1775Y-12.1625
X12.2088Y-8.0563
X12.2088Y-8.1062
X12.2088Y-8.1562
X12.2088Y-8.2062
X12.2088Y-8.2562
X12.365Y-8.0563
X12.365Y-8.1062
X12.365Y-8.1562
X12.365Y-8.2062
X12.365Y-8.2562
T3
X3.6437Y-8.1875
X3.6437Y-9.125
X3.6437Y-9.875
X3.6437Y-10.625
X3.6437Y-11.375
X4.0187Y-12.125
X4.0438Y-8.1875
X4.0438Y-9.125
X4.0438Y-9.875
X4.0438Y-10.625
X4.0438Y-11.375
X4.3937Y-8.1875
X4.3937Y-9.125
X4.3937Y-9.875
X4.3937Y-10.625
X4.3937Y-11.375
X4.4188Y-12.125
X4.7938Y-8.1875
X4.7938Y-9.125
X4.7938Y-9.875
X4.7938Y-10.625
X4.7938Y-11.375
X5.1437Y-8.1875
X5.1437Y-9.125
X5.1437Y-9.875
X5.1437Y-10.625
X5.1437Y-11.375
X5.1437Y-12.125
X5.5438Y-8.1875
X5.5438Y-9.125
X5.5438Y-9.875
X5.5438Y-10.625
X5.5438Y-11.375
X5.5438Y-12.125
X5.8937Y-8.1875
X5.8937Y-9.125
X6.0938Y-10.05
X6.0938Y-10.45
X6.0938Y-11.55
X6.0938Y-11.95
X6.2938Y-8.1875
X6.2938Y-9.125
X6.8312Y-8.1875
X6.8312Y-9.125
X6.925Y-12.125
X7.0187Y-9.875
X7.1125Y-10.625
X7.2313Y-8.1875
X7.2313Y-9.125
X7.3Y-11.375
X7.325Y-12.125
X7.4188Y-9.875
X7.5125Y-10.625
X7.5812Y-9.125
X7.7Y-11.375
X7.7687Y-8.1875
X7.8625Y-12.125
X7.9562Y-9.875
X7.9813Y-9.125
X8.1437Y-10.625
X8.1687Y-8.1875
X8.2625Y-12.125
X8.3312Y-9.125
X8.3562Y-9.875
X8.5187Y-8.1875
X8.5187Y-11.375
X8.5437Y-10.625
X8.7062Y-9.875
X8.7312Y-9.125
X8.8Y-12.125
X8.8937Y-10.625
X8.9187Y-8.1875
X8.9187Y-11.375
X9.0812Y-9.125
X9.1062Y-9.875
X9.2Y-12.125
X9.2687Y-8.1875
X9.2687Y-11.375
X9.2937Y-10.625
X9.4562Y-9.875
X9.4812Y-9.125
X9.6437Y-10.625
X9.6687Y-8.1875
X9.6687Y-11.375
X9.8312Y-9.125
X9.8562Y-9.875
X10.0187Y-8.1875
X10.0187Y-11.375
X10.0437Y-10.625
X10.2062Y-9.875
X10.2312Y-9.125
X10.3Y-12.125
X10.3937Y-10.625
X10.4187Y-8.1875
X10.4187Y-11.375
X10.5812Y-9.125
X10.6062Y-9.875
X10.7Y-12.125
X10.7687Y-11.375
X10.7937Y-10.625
X10.9562Y-8.1875
X10.9562Y-9.875
X10.9812Y-9.125
X11.1437Y-10.625
X11.1687Y-11.375
X11.3312Y-9.125
X11.3562Y-8.1875
X11.3562Y-9.875
X11.5187Y-11.375
X11.5187Y-12.125
X11.5437Y-10.625
X11.7062Y-8.1875
X11.7062Y-9.875
X11.7312Y-9.125
X11.8937Y-10.625
X11.9187Y-11.375
X11.9187Y-12.125
X12.0812Y-9.125
X12.1062Y-8.1875
X12.1062Y-9.875
X12.2687Y-11.375
X12.2937Y-10.625
X12.4562Y-8.1875
X12.4562Y-9.875
X12.4812Y-9.125
X12.6437Y-10.625
X12.6687Y-11.375
X12.8312Y-9.125
X12.8562Y-8.1875
X12.8562Y-9.875
X12.925Y-12.125
X13.0187Y-11.375
X13.0437Y-10.625
X13.2062Y-8.1875
X13.2062Y-9.875
X13.2312Y-9.125
X13.325Y-12.125
X13.3937Y-10.625
X13.4187Y-11.375
X13.5812Y-9.125
X13.6062Y-8.1875
X13.6062Y-9.875
X13.7687Y-11.375
X13.7937Y-10.625
X13.9562Y-9.875
X13.9812Y-9.125
X14.1437Y-8.1875
X14.1437Y-10.625
X14.1687Y-11.375
X14.3312Y-9.125
X14.3562Y-9.875
X14.425Y-12.125
X14.5187Y-11.375
X14.5437Y-8.1875
X14.5437Y-10.625
X14.7062Y-9.875
X14.7312Y-9.125
X14.825Y-12.125
X14.8937Y-8.1875
X14.8937Y-10.625
X14.9187Y-11.375
X15.0812Y-9.125
X15.1062Y-9.875
X15.2687Y-11.375
X15.2937Y-8.1875
X15.2937Y-10.625
X15.3625Y-12.125
X15.4562Y-9.875
X15.4812Y-9.125
X15.6437Y-8.1875
X15.6437Y-10.625
X15.6687Y-11.375
X15.7625Y-12.125
X15.8312Y-9.125
X15.8562Y-9.875
X16.0437Y-8.1875
X16.0437Y-10.625
X16.2063Y-9.875
X16.2312Y-9.125
X16.3Y-11.375
X16.3938Y-8.1875
X16.5813Y-12.125
X16.6062Y-9.875
X16.7Y-11.375
X16.7937Y-8.1875
X16.8625Y-10.625
X16.9563Y-9.125
X16.9812Y-12.125
X17.1438Y-9.875
X17.2625Y-10.625
X17.3313Y-8.1875
X17.3313Y-11.375
X17.3313Y-12.125
X17.3562Y-9.125
X17.5437Y-9.875
X17.7312Y-8.1875
X17.7312Y-11.375
X17.7312Y-12.125
X18.0813Y-8.1875
X18.0813Y-9.125
X18.0813Y-9.875
X18.0813Y-10.625
X18.0813Y-11.375
X18.0813Y-12.125
X18.4812Y-8.1875
X18.4812Y-9.125
X18.4812Y-9.875
X18.4812Y-10.625
X18.4812Y-11.375
X18.4812Y-12.125
T4
X3.7502Y-12.4
X4.6873Y-12.4
X6.3687Y-9.7815
X6.3687Y-10.7185
X6.3687Y-11.2815
X6.3687Y-12.2185
X7.0315Y-11.0994
X7.9685Y-11.0994
X10.0315Y-12.4
X10.9685Y-12.4
X12.6565Y-12.4
X13.5935Y-12.4
X16.594Y-10.3494
X16.6877Y-8.8494
X17.531Y-10.3494
X17.6248Y-8.8494
T5
X3.7502Y-11.8
X3.8438Y-8.1875
X3.8438Y-9.125
X3.8438Y-9.875
X3.8438Y-10.625
X3.8438Y-11.375
X4.2188Y-12.125
X4.5938Y-8.1875
X4.5938Y-9.125
X4.5938Y-9.875
X4.5938Y-10.625
X4.5938Y-11.375
X4.6873Y-11.8
X5.3438Y-8.1875
X5.3438Y-9.125
X5.3438Y-9.875
X5.3438Y-10.625
X5.3438Y-11.375
X5.3438Y-12.125
X5.7687Y-9.7815
X5.7687Y-10.7185
X5.7687Y-11.2815
X5.7687Y-12.2185
X6.0938Y-8.1875
X6.0938Y-9.125
X6.0938Y-10.25
X6.0938Y-11.75
X7.0312Y-8.1875
X7.0312Y-9.125
X7.0315Y-11.6994
X7.125Y-12.125
X7.2188Y-9.875
X7.3125Y-10.625
X7.5Y-11.375
X7.7812Y-9.125
X7.9685Y-11.6994
X7.9688Y-8.1875
X8.0625Y-12.125
X8.1562Y-9.875
X8.3438Y-10.625
X8.5312Y-9.125
X8.7188Y-8.1875
X8.7188Y-11.375
X8.9062Y-9.875
X9.0Y-12.125
X9.0938Y-10.625
X9.2812Y-9.125
X9.4688Y-8.1875
X9.4688Y-11.375
X9.6562Y-9.875
X9.8438Y-10.625
X10.0312Y-9.125
X10.0315Y-11.8
X10.2188Y-8.1875
X10.2188Y-11.375
X10.4062Y-9.875
X10.5Y-12.125
X10.5938Y-10.625
X10.7812Y-9.125
X10.9685Y-11.8
X10.9688Y-11.375
X11.1562Y-8.1875
X11.1562Y-9.875
X11.3438Y-10.625
X11.5312Y-9.125
X11.7188Y-11.375
X11.7188Y-12.125
X11.9062Y-8.1875
X11.9062Y-9.875
X12.0938Y-10.625
X12.2812Y-9.125
X12.4688Y-11.375
X12.6562Y-8.1875
X12.6562Y-9.875
X12.6565Y-11.8
X12.8438Y-10.625
X13.0312Y-9.125
X13.125Y-12.125
X13.2188Y-11.375
X13.4062Y-8.1875
X13.4062Y-9.875
X13.5935Y-11.8
X13.5938Y-10.625
X13.7812Y-9.125
X13.9688Y-11.375
X14.1562Y-9.875
X14.3438Y-8.1875
X14.3438Y-10.625
X14.5312Y-9.125
X14.625Y-12.125
X14.7188Y-11.375
X14.9062Y-9.875
X15.0938Y-8.1875
X15.0938Y-10.625
X15.2812Y-9.125
X15.4688Y-11.375
X15.5625Y-12.125
X15.6562Y-9.875
X15.8438Y-8.1875
X15.8438Y-10.625
X16.0312Y-9.125
X16.4062Y-9.875
X16.5Y-11.375
X16.5938Y-8.1875
X16.594Y-10.9494
X16.6877Y-9.4494
X16.7812Y-12.125
X17.0625Y-10.625
X17.1562Y-9.125
X17.3438Y-9.875
X17.531Y-10.9494
X17.5312Y-8.1875
X17.5312Y-11.375
X17.5312Y-12.125
X17.6248Y-9.4494
X18.2812Y-8.1875
X18.2812Y-9.125
X18.2812Y-9.875
X18.2812Y-10.625
X18.2812Y-11.375
X18.2812Y-12.125
T0
M30
