M48
; DRILL file {KiCad 7.0.1} date Thu May  4 08:54:11 2023
; FORMAT={-:-/ absolute / inch / decimal}
; #@! TF.CreationDate,2023-05-04T08:54:11-07:00
; #@! TF.GenerationSoftware,Kicad,Pcbnew,7.0.1
; #@! TF.FileFunction,Plated,1,2,PTH
FMAT,2
INCH
; #@! TA.AperFunction,Plated,PTH,ViaDrill
T1C0.0150
; #@! TA.AperFunction,Plated,PTH,ComponentDrill
T2C0.0236
; #@! TA.AperFunction,Plated,PTH,ComponentDrill
T3C0.0430
; #@! TA.AperFunction,Plated,PTH,ComponentDrill
T4C0.0591
%
G90
G05
T1
X3.9438Y-8.7
X3.9812Y-11.9
X4.1312Y-9.3
X4.1812Y-8.45
X4.1812Y-10.05
X4.2313Y-8.5
X4.2313Y-10.8
X4.2812Y-8.55
X4.2812Y-11.55
X4.3312Y-8.6
X4.3312Y-12.25
X4.3812Y-8.65
X4.6937Y-8.75
X5.9312Y-12.0
X6.1812Y-10.15
X6.2313Y-10.8462
X6.2812Y-10.1
X6.2812Y-10.35
X6.2812Y-11.85
X6.5812Y-8.3
X6.6312Y-8.3
X6.6312Y-8.4
X6.6312Y-8.45
X6.6875Y-8.3438
X6.75Y-8.125
X7.1312Y-8.8
X7.1812Y-9.65
X7.4813Y-11.0
X7.5812Y-11.9
X7.9312Y-9.65
X8.0312Y-8.9
X8.0687Y-8.75
X8.1312Y-11.05
X8.2812Y-10.4
X8.4812Y-11.1
X8.6813Y-9.65
X8.7812Y-8.9
X8.7812Y-11.05
X8.8187Y-8.7
X9.0312Y-10.4
X9.0812Y-11.15
X9.2312Y-11.0
X9.4313Y-9.65
X9.5312Y-8.9
X9.5687Y-8.65
X9.7812Y-10.4
X9.9812Y-10.95
X10.1813Y-9.65
X10.2812Y-8.9
X10.3187Y-8.6
X10.3312Y-11.9
X10.4313Y-8.1
X10.4375Y-7.9375
X10.5312Y-8.4
X10.5312Y-10.4
X10.5938Y-7.9375
X10.6875Y-11.5962
X10.7312Y-10.9
X11.0312Y-11.0
X11.0938Y-8.4688
X11.1312Y-11.9
X11.2312Y-8.95
X11.2812Y-10.4
X11.3312Y-9.45
X11.4812Y-12.3
X11.5312Y-10.95
X11.5812Y-8.05
X11.6312Y-8.55
X11.6312Y-11.15
X12.0312Y-10.4
X12.2312Y-11.15
X12.3312Y-9.65
X12.5812Y-11.9
X12.7312Y-8.9
X12.7812Y-10.4
X12.9812Y-11.15
X13.0812Y-9.65
X13.3312Y-11.9
X13.4812Y-8.9
X13.5312Y-10.4
X13.7312Y-11.15
X13.8312Y-8.25
X13.8312Y-9.65
X14.0812Y-11.85
X14.2812Y-10.4
X14.4313Y-8.9
X14.4812Y-11.15
X14.5812Y-9.65
X14.9313Y-8.45
X14.9313Y-11.8
X15.0312Y-10.4
X15.1813Y-8.9
X15.2312Y-11.15
X15.3312Y-9.65
X15.5812Y-11.75
X15.6813Y-8.45
X15.7812Y-10.4
X15.9313Y-8.9
X15.9812Y-11.15
X16.0813Y-9.65
X16.3812Y-8.8
X16.4812Y-8.85
X16.5312Y-10.25
X16.5813Y-8.9
X16.6312Y-11.7
X16.8313Y-9.3
X16.9312Y-10.05
X17.1812Y-11.15
X17.2312Y-9.65
X17.4812Y-8.9
X17.4812Y-10.25
X17.6812Y-9.75
X17.8313Y-8.6
X17.8812Y-8.55
X17.8812Y-10.8
X17.9312Y-8.5
X17.9312Y-11.55
X17.9812Y-12.3
X18.0312Y-10.15
X18.3214Y-9.6451
X18.3812Y-10.3
T3
X5.7938Y-7.6
X5.7938Y-7.7
X5.7938Y-7.8
X5.7938Y-7.9
X5.7938Y-8.0
X5.7938Y-8.1
X5.7938Y-8.2
X5.7938Y-8.3
X5.7938Y-8.4
X5.7938Y-8.5
X5.7938Y-8.6
X5.7938Y-8.7
X5.8937Y-8.7
X5.9937Y-8.7
X6.0938Y-8.7
X6.1937Y-8.7
X6.2938Y-8.7
X6.3847Y-8.7
X6.3937Y-7.6
X6.3937Y-7.7
X6.3937Y-7.8
X6.3937Y-7.9
X6.3937Y-8.0
X6.3937Y-8.1
X6.3937Y-8.2
X6.3937Y-8.3
X6.3937Y-8.4
X6.3937Y-8.5
X6.3937Y-8.6
X16.3062Y-7.6
X16.3062Y-7.7
X16.3062Y-7.8
X16.3062Y-7.9
X16.3062Y-8.0
X16.3062Y-8.1
X16.3062Y-8.2
X16.3062Y-8.3
X16.3062Y-8.4
X16.3062Y-8.5
X16.3062Y-8.6
X16.3062Y-8.7
X16.4062Y-8.7
X16.5062Y-8.7
X16.6062Y-8.7
X16.7063Y-8.7
X16.8062Y-8.7
X16.8972Y-8.7
X16.9062Y-7.6
X16.9062Y-7.7
X16.9062Y-7.8
X16.9062Y-7.9
X16.9062Y-8.0
X16.9062Y-8.1
X16.9062Y-8.2
X16.9062Y-8.3
X16.9062Y-8.4
X16.9062Y-8.5
X16.9062Y-8.6
T4
X3.6938Y-8.0875
X3.6938Y-9.025
X3.6938Y-9.775
X3.6938Y-10.525
X3.6938Y-11.275
X3.9438Y-7.9875
X3.9438Y-8.925
X3.9438Y-9.675
X3.9438Y-10.425
X3.9438Y-11.175
X4.0687Y-12.025
X4.3187Y-11.925
X4.4437Y-8.0875
X4.4437Y-9.025
X4.4437Y-9.775
X4.4437Y-10.525
X4.4437Y-11.275
X4.6937Y-7.9875
X4.6937Y-8.925
X4.6937Y-9.675
X4.6937Y-10.425
X4.6937Y-11.175
X5.1937Y-8.0875
X5.1937Y-9.025
X5.1937Y-9.775
X5.1937Y-10.525
X5.1937Y-11.275
X5.1937Y-12.025
X5.4437Y-7.9875
X5.4437Y-8.925
X5.4437Y-9.675
X5.4437Y-10.425
X5.4437Y-11.175
X5.4437Y-11.925
X5.8937Y-10.15
X5.8937Y-11.65
X5.9437Y-8.0875
X5.9437Y-9.025
X5.9937Y-10.4
X5.9937Y-11.9
X6.1937Y-7.9875
X6.1937Y-8.925
X6.8812Y-8.0875
X6.8812Y-9.025
X6.975Y-12.025
X7.0687Y-9.775
X7.1312Y-7.9875
X7.1312Y-8.925
X7.1625Y-10.525
X7.225Y-11.925
X7.3187Y-9.675
X7.35Y-11.275
X7.4125Y-10.425
X7.6Y-11.175
X7.6312Y-9.025
X7.8187Y-8.0875
X7.8812Y-8.925
X7.9125Y-12.025
X8.0062Y-9.775
X8.0687Y-7.9875
X8.1625Y-11.925
X8.1937Y-10.525
X8.2562Y-9.675
X8.3812Y-9.025
X8.4437Y-10.425
X8.5687Y-8.0875
X8.5687Y-11.275
X8.6312Y-8.925
X8.7562Y-9.775
X8.8187Y-7.9875
X8.8187Y-11.175
X8.85Y-12.025
X8.9437Y-10.525
X9.0062Y-9.675
X9.1Y-11.925
X9.1312Y-9.025
X9.1937Y-10.425
X9.3187Y-8.0875
X9.3187Y-11.275
X9.3812Y-8.925
X9.5062Y-9.775
X9.5687Y-7.9875
X9.5687Y-11.175
X9.6937Y-10.525
X9.7562Y-9.675
X9.8812Y-9.025
X9.9437Y-10.425
X10.0687Y-8.0875
X10.0687Y-11.275
X10.1312Y-8.925
X10.2562Y-9.775
X10.3187Y-7.9875
X10.3187Y-11.175
X10.35Y-12.025
X10.4437Y-10.525
X10.5062Y-9.675
X10.6Y-11.925
X10.6312Y-9.025
X10.6937Y-10.425
X10.8187Y-11.275
X10.8812Y-8.925
X11.0062Y-8.0875
X11.0062Y-9.775
X11.0687Y-11.175
X11.1937Y-10.525
X11.2562Y-7.9875
X11.2562Y-9.675
X11.3812Y-9.025
X11.4437Y-10.425
X11.5687Y-11.275
X11.5687Y-12.025
X11.6312Y-8.925
X11.7562Y-8.0875
X11.7562Y-9.775
X11.8187Y-11.175
X11.8187Y-11.925
X11.9437Y-10.525
X12.0062Y-7.9875
X12.0062Y-9.675
X12.1312Y-9.025
X12.1937Y-10.425
X12.3187Y-11.275
X12.3812Y-8.925
X12.5062Y-8.0875
X12.5062Y-9.775
X12.5687Y-11.175
X12.6937Y-10.525
X12.7562Y-7.9875
X12.7562Y-9.675
X12.8812Y-9.025
X12.9437Y-10.425
X12.975Y-12.025
X13.0687Y-11.275
X13.1312Y-8.925
X13.225Y-11.925
X13.2562Y-8.0875
X13.2562Y-9.775
X13.3187Y-11.175
X13.4437Y-10.525
X13.5062Y-7.9875
X13.5062Y-9.675
X13.6312Y-9.025
X13.6937Y-10.425
X13.8187Y-11.275
X13.8812Y-8.925
X14.0062Y-9.775
X14.0687Y-11.175
X14.1937Y-8.0875
X14.1937Y-10.525
X14.2562Y-9.675
X14.3812Y-9.025
X14.4437Y-7.9875
X14.4437Y-10.425
X14.475Y-12.025
X14.5687Y-11.275
X14.6312Y-8.925
X14.725Y-11.925
X14.7562Y-9.775
X14.8187Y-11.175
X14.9437Y-8.0875
X14.9437Y-10.525
X15.0062Y-9.675
X15.1312Y-9.025
X15.1937Y-7.9875
X15.1937Y-10.425
X15.3187Y-11.275
X15.3812Y-8.925
X15.4125Y-12.025
X15.5062Y-9.775
X15.5687Y-11.175
X15.6625Y-11.925
X15.6937Y-8.0875
X15.6937Y-10.525
X15.7562Y-9.675
X15.8812Y-9.025
X15.9437Y-7.9875
X15.9437Y-10.425
X16.1312Y-8.925
X16.2562Y-9.775
X16.35Y-11.275
X16.4437Y-8.0875
X16.5062Y-9.675
X16.6Y-11.175
X16.6312Y-12.025
X16.6937Y-7.9875
X16.8812Y-11.925
X16.9125Y-10.525
X17.0062Y-9.025
X17.1625Y-10.425
X17.1937Y-9.775
X17.2562Y-8.925
X17.3812Y-8.0875
X17.3812Y-11.275
X17.3812Y-12.025
X17.4437Y-9.675
X17.6312Y-7.9875
X17.6312Y-11.175
X17.6312Y-11.925
X18.1312Y-8.0875
X18.1312Y-9.025
X18.1312Y-9.775
X18.1312Y-10.525
X18.1312Y-11.275
X18.1312Y-12.025
X18.3812Y-7.9875
X18.3812Y-8.925
X18.3812Y-9.675
X18.3812Y-10.425
X18.3812Y-11.175
X18.3812Y-11.925
T2
G00X10.5174Y-7.6656
M15
G01X10.5174Y-7.6892
M16
G05
G00X10.5174Y-7.8203
M15
G01X10.5174Y-7.8636
M16
G05
G00X10.8576Y-7.6656
M15
G01X10.8576Y-7.6892
M16
G05
G00X10.8576Y-7.8203
M15
G01X10.8576Y-7.8636
M16
G05
G00X13.7049Y-7.6656
M15
G01X13.7049Y-7.6892
M16
G05
G00X13.7049Y-7.8203
M15
G01X13.7049Y-7.8636
M16
G05
G00X14.0451Y-7.6656
M15
G01X14.0451Y-7.6892
M16
G05
G00X14.0451Y-7.8203
M15
G01X14.0451Y-7.8636
M16
G05
T0
M30
