  0
SECTION
  2
HEADER
  9
$ACADVER
  1
AC1024
  9
$ACADMAINTVER
 70
     6
  9
$DWGCODEPAGE
  3
ANSI_1252
  9
$INSBASE
 10
0.0
 20
0.0
 30
0.0
  9
$EXTMIN
 10
1.000000000000000E+20
 20
1.000000000000000E+20
 30
1.000000000000000E+20
  9
$EXTMAX
 10
-1.000000000000000E+20
 20
-1.000000000000000E+20
 30
-1.000000000000000E+20
  9
$LIMMIN
 10
0.0
 20
0.0
  9
$LIMMAX
 10
420.0
 20
297.0
  9
$ORTHOMODE
 70
     0
  9
$REGENMODE
 70
     1
  9
$FILLMODE
 70
     1
  9
$QTEXTMODE
 70
     0
  9
$MIRRTEXT
 70
     1
  9
$LTSCALE
 40
1.0
  9
$ATTMODE
 70
     1
  9
$TEXTSIZE
 40
2.5
  9
$TRACEWID
 40
1.0
  9
$TEXTSTYLE
  7
Standard
  9
$CLAYER
  8
0
  9
$CELTYPE
  6
ByLayer
  9
$CECOLOR
 62
   256
  9
$CELTSCALE
 40
1.0
  9
$DISPSILH
 70
     0
  9
$DIMSCALE
 40
1.0
  9
$DIMASZ
 40
2.5
  9
$DIMEXO
 40
0.625
  9
$DIMDLI
 40
3.75
  9
$DIMRND
 40
0.0
  9
$DIMDLE
 40
0.0
  9
$DIMEXE
 40
1.25
  9
$DIMTP
 40
0.0
  9
$DIMTM
 40
0.0
  9
$DIMTXT
 40
2.5
  9
$DIMCEN
 40
2.5
  9
$DIMTSZ
 40
0.0
  9
$DIMTOL
 70
     0
  9
$DIMLIM
 70
     0
  9
$DIMTIH
 70
     0
  9
$DIMTOH
 70
     0
  9
$DIMSE1
 70
     0
  9
$DIMSE2
 70
     0
  9
$DIMTAD
 70
     1
  9
$DIMZIN
 70
     8
  9
$DIMBLK
  1

  9
$DIMASO
 70
     1
  9
$DIMSHO
 70
     1
  9
$DIMPOST
  1

  9
$DIMAPOST
  1

  9
$DIMALT
 70
     0
  9
$DIMALTD
 70
     3
  9
$DIMALTF
 40
0.03937007874016
  9
$DIMLFAC
 40
1.0
  9
$DIMTOFL
 70
     1
  9
$DIMTVP
 40
0.0
  9
$DIMTIX
 70
     0
  9
$DIMSOXD
 70
     0
  9
$DIMSAH
 70
     0
  9
$DIMBLK1
  1

  9
$DIMBLK2
  1

  9
$DIMSTYLE
  2
ISO-25
  9
$DIMCLRD
 70
     0
  9
$DIMCLRE
 70
     0
  9
$DIMCLRT
 70
     0
  9
$DIMTFAC
 40
1.0
  9
$DIMGAP
 40
0.625
  9
$DIMJUST
 70
     0
  9
$DIMSD1
 70
     0
  9
$DIMSD2
 70
     0
  9
$DIMTOLJ
 70
     0
  9
$DIMTZIN
 70
     8
  9
$DIMALTZ
 70
     0
  9
$DIMALTTZ
 70
     0
  9
$DIMUPT
 70
     0
  9
$DIMDEC
 70
     2
  9
$DIMTDEC
 70
     2
  9
$DIMALTU
 70
     2
  9
$DIMALTTD
 70
     3
  9
$DIMTXSTY
  7
Standard
  9
$DIMAUNIT
 70
     0
  9
$DIMADEC
 70
     0
  9
$DIMALTRND
 40
0.0
  9
$DIMAZIN
 70
     0
  9
$DIMDSEP
 70
    44
  9
$DIMATFIT
 70
     3
  9
$DIMFRAC
 70
     0
  9
$DIMLDRBLK
  1

  9
$DIMLUNIT
 70
     2
  9
$DIMLWD
 70
    -2
  9
$DIMLWE
 70
    -2
  9
$DIMTMOVE
 70
     0
  9
$DIMFXL
 40
1.0
  9
$DIMFXLON
 70
     0
  9
$DIMJOGANG
 40
0.7853981633974483
  9
$DIMTFILL
 70
     0
  9
$DIMTFILLCLR
 70
     0
  9
$DIMARCSYM
 70
     0
  9
$DIMLTYPE
  6

  9
$DIMLTEX1
  6

  9
$DIMLTEX2
  6

  9
$DIMTXTDIRECTION
 70
     0
  9
$LUNITS
 70
     2
  9
$LUPREC
 70
     4
  9
$SKETCHINC
 40
1.0
  9
$FILLETRAD
 40
0.0
  9
$AUNITS
 70
     0
  9
$AUPREC
 70
     0
  9
$MENU
  1
.
  9
$ELEVATION
 40
0.0
  9
$PELEVATION
 40
0.0
  9
$THICKNESS
 40
0.0
  9
$LIMCHECK
 70
     0
  9
$CHAMFERA
 40
0.0
  9
$CHAMFERB
 40
0.0
  9
$CHAMFERC
 40
0.0
  9
$CHAMFERD
 40
0.0
  9
$SKPOLY
 70
     0
  9
$TDCREATE
 40
2460098.3568672
  9
$TDUCREATE
 40
2460098.690200533
  9
$TDUPDATE
 40
2460098.356867292
  9
$TDUUPDATE
 40
2460098.690200625
  9
$TDINDWG
 40
0.0000000116
  9
$TDUSRTIMER
 40
0.0000000116
  9
$USRTIMER
 70
     1
  9
$ANGBASE
 50
0.0
  9
$ANGDIR
 70
     0
  9
$PDMODE
 70
     0
  9
$PDSIZE
 40
0.0
  9
$PLINEWID
 40
0.0
  9
$SPLFRAME
 70
     0
  9
$SPLINETYPE
 70
     6
  9
$SPLINESEGS
 70
     8
  9
$HANDSEED
  5
220
  9
$SURFTAB1
 70
     6
  9
$SURFTAB2
 70
     6
  9
$SURFTYPE
 70
     6
  9
$SURFU
 70
     6
  9
$SURFV
 70
     6
  9
$UCSBASE
  2

  9
$UCSNAME
  2

  9
$UCSORG
 10
0.0
 20
0.0
 30
0.0
  9
$UCSXDIR
 10
1.0
 20
0.0
 30
0.0
  9
$UCSYDIR
 10
0.0
 20
1.0
 30
0.0
  9
$UCSORTHOREF
  2

  9
$UCSORTHOVIEW
 70
     0
  9
$UCSORGTOP
 10
0.0
 20
0.0
 30
0.0
  9
$UCSORGBOTTOM
 10
0.0
 20
0.0
 30
0.0
  9
$UCSORGLEFT
 10
0.0
 20
0.0
 30
0.0
  9
$UCSORGRIGHT
 10
0.0
 20
0.0
 30
0.0
  9
$UCSORGFRONT
 10
0.0
 20
0.0
 30
0.0
  9
$UCSORGBACK
 10
0.0
 20
0.0
 30
0.0
  9
$PUCSBASE
  2

  9
$PUCSNAME
  2

  9
$PUCSORG
 10
0.0
 20
0.0
 30
0.0
  9
$PUCSXDIR
 10
1.0
 20
0.0
 30
0.0
  9
$PUCSYDIR
 10
0.0
 20
1.0
 30
0.0
  9
$PUCSORTHOREF
  2

  9
$PUCSORTHOVIEW
 70
     0
  9
$PUCSORGTOP
 10
0.0
 20
0.0
 30
0.0
  9
$PUCSORGBOTTOM
 10
0.0
 20
0.0
 30
0.0
  9
$PUCSORGLEFT
 10
0.0
 20
0.0
 30
0.0
  9
$PUCSORGRIGHT
 10
0.0
 20
0.0
 30
0.0
  9
$PUCSORGFRONT
 10
0.0
 20
0.0
 30
0.0
  9
$PUCSORGBACK
 10
0.0
 20
0.0
 30
0.0
  9
$USERI1
 70
     0
  9
$USERI2
 70
     0
  9
$USERI3
 70
     0
  9
$USERI4
 70
     0
  9
$USERI5
 70
     0
  9
$USERR1
 40
0.0
  9
$USERR2
 40
0.0
  9
$USERR3
 40
0.0
  9
$USERR4
 40
0.0
  9
$USERR5
 40
0.0
  9
$WORLDVIEW
 70
     1
  9
$SHADEDGE
 70
     3
  9
$SHADEDIF
 70
    70
  9
$TILEMODE
 70
     1
  9
$MAXACTVP
 70
    64
  9
$PINSBASE
 10
0.0
 20
0.0
 30
0.0
  9
$PLIMCHECK
 70
     0
  9
$PEXTMIN
 10
1.000000000000000E+20
 20
1.000000000000000E+20
 30
1.000000000000000E+20
  9
$PEXTMAX
 10
-1.000000000000000E+20
 20
-1.000000000000000E+20
 30
-1.000000000000000E+20
  9
$PLIMMIN
 10
0.0
 20
0.0
  9
$PLIMMAX
 10
420.0
 20
297.0
  9
$UNITMODE
 70
     0
  9
$VISRETAIN
 70
     1
  9
$PLINEGEN
 70
     0
  9
$PSLTSCALE
 70
     1
  9
$TREEDEPTH
 70
  3020
  9
$CMLSTYLE
  2
Standard
  9
$CMLJUST
 70
     0
  9
$CMLSCALE
 40
20.0
  9
$PROXYGRAPHICS
 70
     1
  9
$MEASUREMENT
 70
     1
  9
$CELWEIGHT
370
    -1
  9
$ENDCAPS
280
     0
  9
$JOINSTYLE
280
     0
  9
$LWDISPLAY
290
     0
  9
$INSUNITS
 70
     4
  9
$HYPERLINKBASE
  1

  9
$STYLESHEET
  1

  9
$XEDIT
290
     1
  9
$CEPSNTYPE
380
     0
  9
$PSTYLEMODE
290
     1
  9
$FINGERPRINTGUID
  2
{2f5f3ee1-8c8d-bad3-7dc6-e7cad1067db9}
  9
$VERSIONGUID
  2
{FAEB1C32-E019-11D5-929B-00C0DF256EC4}
  9
$EXTNAMES
290
     1
  9
$PSVPSCALE
 40
0.0
  9
$OLESTARTUP
290
     0
  9
$SORTENTS
280
   127
  9
$INDEXCTL
280
     0
  9
$HIDETEXT
280
     1
  9
$XCLIPFRAME
280
     2
  9
$HALOGAP
280
     0
  9
$OBSCOLOR
 70
   257
  9
$OBSLTYPE
280
     0
  9
$INTERSECTIONDISPLAY
280
     0
  9
$INTERSECTIONCOLOR
 70
   257
  9
$DIMASSOC
280
     2
  9
$PROJECTNAME
  1

  9
$CAMERADISPLAY
290
     0
  9
$LENSLENGTH
 40
50.0
  9
$CAMERAHEIGHT
 40
0.0
  9
$STEPSPERSEC
 40
2.0
  9
$STEPSIZE
 40
6.0
  9
$3DDWFPREC
 40
2.0
  9
$PSOLWIDTH
 40
5.0
  9
$PSOLHEIGHT
 40
80.0
  9
$LOFTANG1
 40
1.570796326794897
  9
$LOFTANG2
 40
1.570796326794897
  9
$LOFTMAG1
 40
0.0
  9
$LOFTMAG2
 40
0.0
  9
$LOFTPARAM
 70
     7
  9
$LOFTNORMALS
280
     1
  9
$LATITUDE
 40
37.795
  9
$LONGITUDE
 40
-122.394
  9
$NORTHDIRECTION
 40
0.0
  9
$TIMEZONE
 70
 -8000
  9
$LIGHTGLYPHDISPLAY
280
     1
  9
$TILEMODELIGHTSYNCH
280
     1
  9
$CMATERIAL
347
44
  9
$SOLIDHIST
280
     0
  9
$SHOWHIST
280
     1
  9
$DWFFRAME
280
     2
  9
$DGNFRAME
280
     2
  9
$REALWORLDSCALE
290
     1
  9
$INTERFERECOLOR
 62
   256
  9
$CSHADOW
280
     0
  9
$SHADOWPLANELOCATION
 40
0.0
  0
ENDSEC
  0
SECTION
  2
CLASSES
  0
CLASS
  1
ACDBDICTIONARYWDFLT
  2
AcDbDictionaryWithDefault
  3
ObjectDBX Classes
 90
        0
 91
        3
280
     0
281
     0
  0
CLASS
  1
VISUALSTYLE
  2
AcDbVisualStyle
  3
ObjectDBX Classes
 90
     4095
 91
        3
280
     0
281
     0
  0
CLASS
  1
MATERIAL
  2
AcDbMaterial
  3
ObjectDBX Classes
 90
     1153
 91
        3
280
     0
281
     0
  0
CLASS
  1
SCALE
  2
AcDbScale
  3
ObjectDBX Classes
 90
     1153
 91
        3
280
     0
281
     0
  0
CLASS
  1
TABLESTYLE
  2
AcDbTableStyle
  3
ObjectDBX Classes
 90
     4095
 91
        3
280
     0
281
     0
  0
CLASS
  1
MLEADERSTYLE
  2
AcDbMLeaderStyle
  3
ACDB_MLEADERSTYLE_CLASS
 90
     4095
 91
        3
280
     0
281
     0
  0
CLASS
  1
SUN
  2
AcDbSun
  3
SCENEOE
 90
     1153
 91
        3
280
     0
281
     0
  0
CLASS
  1
DICTIONARYVAR
  2
AcDbDictionaryVar
  3
ObjectDBX Classes
 90
        0
 91
        3
280
     0
281
     0
  0
CLASS
  1
CELLSTYLEMAP
  2
AcDbCellStyleMap
  3
ObjectDBX Classes
 90
     1152
 91
        3
280
     0
281
     0
  0
ENDSEC
  0
SECTION
  2
TABLES
  0
TABLE
  2
VPORT
  5
8
330
0
100
AcDbSymbolTable
 70
     1
  0
VPORT
  5
29
330
8
100
AcDbSymbolTableRecord
100
AcDbViewportTableRecord
  2
*Active
 70
     0
 10
0.0
 20
0.0
 11
1.0
 21
1.0
 12
344.1869158878504
 22
148.5
 13
0.0
 23
0.0
 14
10.0
 24
10.0
 15
10.0
 25
10.0
 16
0.0
 26
0.0
 36
1.0
 17
0.0
 27
0.0
 37
0.0
 40
297.0
 41
1.972972972850329
 42
50.0
 43
0.0
 44
0.0
 50
0.0
 51
0.0
 71
     0
 72
   100
 73
     1
 74
     3
 75
     0
 76
     0
 77
     0
 78
     0
281
     0
 65
     1
110
0.0
120
0.0
130
0.0
111
1.0
121
0.0
131
0.0
112
0.0
122
1.0
132
0.0
 79
     0
146
0.0
348
2F
 60
     3
 61
     5
292
     1
282
     1
141
0.0
142
0.0
 63
   250
361
5D
  0
ENDTAB
  0
TABLE
  2
LTYPE
  5
5
330
0
100
AcDbSymbolTable
 70
     1
  0
LTYPE
  5
14
330
5
100
AcDbSymbolTableRecord
100
AcDbLinetypeTableRecord
  2
ByBlock
 70
     0
  3

 72
    65
 73
     0
 40
0.0
  0
LTYPE
  5
15
330
5
100
AcDbSymbolTableRecord
100
AcDbLinetypeTableRecord
  2
ByLayer
 70
     0
  3

 72
    65
 73
     0
 40
0.0
  0
LTYPE
  5
16
330
5
100
AcDbSymbolTableRecord
100
AcDbLinetypeTableRecord
  2
Continuous
 70
     0
  3
Solid line
 72
    65
 73
     0
 40
0.0
  0
ENDTAB
  0
TABLE
  2
LAYER
  5
2
330
0
100
AcDbSymbolTable
 70
     4
  0
LAYER
  5
10
330
2
100
AcDbSymbolTableRecord
100
AcDbLayerTableRecord
  2
0
 70
     0
 62
     7
  6
Continuous
370
    -3
390
F
347
46
  0
LAYER
  5
5E
330
2
100
AcDbSymbolTableRecord
100
AcDbLayerTableRecord
  2
0 (2)
 70
     0
 62
     7
  6
Continuous
370
    -3
390
F
347
46
  0
LAYER
  5
BD
330
2
100
AcDbSymbolTableRecord
100
AcDbLayerTableRecord
  2
Dimensions
 70
     0
 62
     7
  6
Continuous
370
    -3
390
F
347
46
  0
LAYER
  5
BF
330
2
100
AcDbSymbolTableRecord
100
AcDbLayerTableRecord
  2
Defpoints
 70
     0
 62
     7
  6
Continuous
290
     0
370
    -3
390
F
347
46
  0
ENDTAB
  0
TABLE
  2
STYLE
  5
3
330
0
100
AcDbSymbolTable
 70
     1
  0
STYLE
  5
11
330
3
100
AcDbSymbolTableRecord
100
AcDbTextStyleTableRecord
  2
Standard
 70
     0
 40
0.0
 41
1.0
 50
0.0
 71
     0
 42
2.5
  3
txt
  4

  0
ENDTAB
  0
TABLE
  2
VIEW
  5
6
330
0
100
AcDbSymbolTable
 70
     0
  0
ENDTAB
  0
TABLE
  2
UCS
  5
7
330
0
100
AcDbSymbolTable
 70
     0
  0
ENDTAB
  0
TABLE
  2
APPID
  5
9
330
0
100
AcDbSymbolTable
 70
     1
  0
APPID
  5
12
330
9
100
AcDbSymbolTableRecord
100
AcDbRegAppTableRecord
  2
ACAD
 70
     0
  0
ENDTAB
  0
TABLE
  2
DIMSTYLE
  5
A
330
0
100
AcDbSymbolTable
 70
     1
100
AcDbDimStyleTable
  0
DIMSTYLE
105
27
102
{ACAD_REACTORS
330
BE
330
CE
330
DD
330
EC
330
FB
330
104
330
10D
330
116
330
11F
330
128
330
131
330
13A
330
143
330
14C
330
155
330
15E
330
167
330
170
330
179
330
182
330
18B
330
194
330
19D
330
1A6
330
1AF
330
1B8
330
1C1
330
1CA
330
1D3
330
1DC
102
}
330
A
100
AcDbSymbolTableRecord
100
AcDbDimStyleTableRecord
  2
ISO-25
 70
     0
 41
2.5
 42
0.625
 43
3.75
 44
1.25
 73
     0
 74
     0
 77
     1
 78
     8
140
2.5
141
2.5
143
0.03937007874016
147
0.625
171
     3
172
     1
178
     0
271
     2
272
     2
274
     3
278
    44
283
     0
284
     8
340
11
  0
ENDTAB
  0
TABLE
  2
BLOCK_RECORD
  5
1
330
0
100
AcDbSymbolTable
 70
    31
  0
BLOCK_RECORD
  5
1F
330
1
100
AcDbSymbolTableRecord
100
AcDbBlockTableRecord
  2
*Model_Space
340
22
 70
     0
280
     1
281
     0
  0
BLOCK_RECORD
  5
1B
330
1
100
AcDbSymbolTableRecord
100
AcDbBlockTableRecord
  2
*Paper_Space
340
1E
 70
     0
280
     1
281
     0
  0
BLOCK_RECORD
  5
23
330
1
100
AcDbSymbolTableRecord
100
AcDbBlockTableRecord
  2
*Paper_Space0
340
26
 70
     0
280
     1
281
     0
  0
BLOCK_RECORD
  5
C0
330
1
100
AcDbSymbolTableRecord
100
AcDbBlockTableRecord
  2
*D1
340
0
 70
     0
280
     1
281
     0
  0
BLOCK_RECORD
  5
CF
330
1
100
AcDbSymbolTableRecord
100
AcDbBlockTableRecord
  2
*D2
340
0
 70
     0
280
     1
281
     0
  0
BLOCK_RECORD
  5
DE
330
1
100
AcDbSymbolTableRecord
100
AcDbBlockTableRecord
  2
*D3
340
0
 70
     0
280
     1
281
     0
  0
BLOCK_RECORD
  5
ED
330
1
100
AcDbSymbolTableRecord
100
AcDbBlockTableRecord
  2
*D4
340
0
 70
     0
280
     1
281
     0
  0
BLOCK_RECORD
  5
FC
330
1
100
AcDbSymbolTableRecord
100
AcDbBlockTableRecord
  2
*D5
340
0
 70
     0
280
     1
281
     0
  0
BLOCK_RECORD
  5
105
330
1
100
AcDbSymbolTableRecord
100
AcDbBlockTableRecord
  2
*D6
340
0
 70
     0
280
     1
281
     0
  0
BLOCK_RECORD
  5
10E
330
1
100
AcDbSymbolTableRecord
100
AcDbBlockTableRecord
  2
*D7
340
0
 70
     0
280
     1
281
     0
  0
BLOCK_RECORD
  5
117
330
1
100
AcDbSymbolTableRecord
100
AcDbBlockTableRecord
  2
*D8
340
0
 70
     0
280
     1
281
     0
  0
BLOCK_RECORD
  5
120
330
1
100
AcDbSymbolTableRecord
100
AcDbBlockTableRecord
  2
*D9
340
0
 70
     0
280
     1
281
     0
  0
BLOCK_RECORD
  5
129
330
1
100
AcDbSymbolTableRecord
100
AcDbBlockTableRecord
  2
*D10
340
0
 70
     0
280
     1
281
     0
  0
BLOCK_RECORD
  5
132
330
1
100
AcDbSymbolTableRecord
100
AcDbBlockTableRecord
  2
*D11
340
0
 70
     0
280
     1
281
     0
  0
BLOCK_RECORD
  5
13B
330
1
100
AcDbSymbolTableRecord
100
AcDbBlockTableRecord
  2
*D12
340
0
 70
     0
280
     1
281
     0
  0
BLOCK_RECORD
  5
144
330
1
100
AcDbSymbolTableRecord
100
AcDbBlockTableRecord
  2
*D13
340
0
 70
     0
280
     1
281
     0
  0
BLOCK_RECORD
  5
14D
330
1
100
AcDbSymbolTableRecord
100
AcDbBlockTableRecord
  2
*D14
340
0
 70
     0
280
     1
281
     0
  0
BLOCK_RECORD
  5
156
330
1
100
AcDbSymbolTableRecord
100
AcDbBlockTableRecord
  2
*D15
340
0
 70
     0
280
     1
281
     0
  0
BLOCK_RECORD
  5
15F
330
1
100
AcDbSymbolTableRecord
100
AcDbBlockTableRecord
  2
*D16
340
0
 70
     0
280
     1
281
     0
  0
BLOCK_RECORD
  5
168
330
1
100
AcDbSymbolTableRecord
100
AcDbBlockTableRecord
  2
*D17
340
0
 70
     0
280
     1
281
     0
  0
BLOCK_RECORD
  5
171
330
1
100
AcDbSymbolTableRecord
100
AcDbBlockTableRecord
  2
*D18
340
0
 70
     0
280
     1
281
     0
  0
BLOCK_RECORD
  5
17A
330
1
100
AcDbSymbolTableRecord
100
AcDbBlockTableRecord
  2
*D19
340
0
 70
     0
280
     1
281
     0
  0
BLOCK_RECORD
  5
183
330
1
100
AcDbSymbolTableRecord
100
AcDbBlockTableRecord
  2
*D20
340
0
 70
     0
280
     1
281
     0
  0
BLOCK_RECORD
  5
18C
330
1
100
AcDbSymbolTableRecord
100
AcDbBlockTableRecord
  2
*D21
340
0
 70
     0
280
     1
281
     0
  0
BLOCK_RECORD
  5
195
330
1
100
AcDbSymbolTableRecord
100
AcDbBlockTableRecord
  2
*D22
340
0
 70
     0
280
     1
281
     0
  0
BLOCK_RECORD
  5
19E
330
1
100
AcDbSymbolTableRecord
100
AcDbBlockTableRecord
  2
*D23
340
0
 70
     0
280
     1
281
     0
  0
BLOCK_RECORD
  5
1A7
330
1
100
AcDbSymbolTableRecord
100
AcDbBlockTableRecord
  2
*D24
340
0
 70
     0
280
     1
281
     0
  0
BLOCK_RECORD
  5
1B0
330
1
100
AcDbSymbolTableRecord
100
AcDbBlockTableRecord
  2
*D25
340
0
 70
     0
280
     1
281
     0
  0
BLOCK_RECORD
  5
1B9
330
1
100
AcDbSymbolTableRecord
100
AcDbBlockTableRecord
  2
*D26
340
0
 70
     0
280
     1
281
     0
  0
BLOCK_RECORD
  5
1C2
330
1
100
AcDbSymbolTableRecord
100
AcDbBlockTableRecord
  2
*D27
340
0
 70
     0
280
     1
281
     0
  0
BLOCK_RECORD
  5
1CB
330
1
100
AcDbSymbolTableRecord
100
AcDbBlockTableRecord
  2
*D28
340
0
 70
     0
280
     1
281
     0
  0
BLOCK_RECORD
  5
1D4
330
1
100
AcDbSymbolTableRecord
100
AcDbBlockTableRecord
  2
*D29
340
0
 70
     0
280
     1
281
     0
  0
BLOCK_RECORD
  5
1DD
330
1
100
AcDbSymbolTableRecord
100
AcDbBlockTableRecord
  2
*D30
340
0
 70
     0
280
     1
281
     0
  0
ENDTAB
  0
ENDSEC
  0
SECTION
  2
BLOCKS
  0
BLOCK
  5
20
330
1F
100
AcDbEntity
  8
0
100
AcDbBlockBegin
  2
*Model_Space
 70
     0
 10
0.0
 20
0.0
 30
0.0
  3
*Model_Space
  1

  0
ENDBLK
  5
21
330
1F
100
AcDbEntity
  8
0
100
AcDbBlockEnd
  0
BLOCK
  5
1C
330
1B
100
AcDbEntity
 67
     1
  8
0
100
AcDbBlockBegin
  2
*Paper_Space
 70
     0
 10
0.0
 20
0.0
 30
0.0
  3
*Paper_Space
  1

  0
ENDBLK
  5
1D
330
1B
100
AcDbEntity
 67
     1
  8
0
100
AcDbBlockEnd
  0
BLOCK
  5
24
330
23
100
AcDbEntity
  8
0
100
AcDbBlockBegin
  2
*Paper_Space0
 70
     0
 10
0.0
 20
0.0
 30
0.0
  3
*Paper_Space0
  1

  0
ENDBLK
  5
25
330
23
100
AcDbEntity
  8
0
100
AcDbBlockEnd
  0
BLOCK
  5
C1
330
C0
100
AcDbEntity
  8
0
100
AcDbBlockBegin
  2
*D1
 70
     1
 10
0.0
 20
0.0
 30
0.0
  3
*D1
  1

  0
LINE
  5
C3
330
C0
100
AcDbEntity
  8
Dimensions
 62
   140
370
    -2
100
AcDbLine
 10
241.5391028453928
 20
-60.58870992790135
 30
0.0
 11
242.8118375878473
 21
-60.5891928002532
 31
0.0
  0
LINE
  5
C4
330
C0
100
AcDbEntity
  8
Dimensions
 62
   140
370
    -2
100
AcDbLine
 10
241.5373860339873
 20
-65.1138096022244
 30
0.0
 11
242.8101207764418
 21
-65.11429247457626
 31
0.0
  0
LINE
  5
C5
330
C0
100
AcDbEntity
  8
Dimensions
 62
   140
370
    -2
100
AcDbLine
 10
241.171388037803
 20
-60.58857041783061
 30
0.0
 11
241.1696712263975
 21
-65.11367009215367
 31
0.0
  0
LINE
  5
C6
330
C0
100
AcDbEntity
  8
Dimensions
 62
   140
370
    -2
100
AcDbLine
 10
241.1726328026482
 20
-57.307671317742
 30
0.0
 11
241.1738775674933
 21
-54.02677221765339
 31
0.0
  0
LINE
  5
C7
330
C0
100
AcDbEntity
  8
Dimensions
 62
   140
370
    -2
100
AcDbLine
 10
241.1684264615523
 20
-68.39456919224229
 30
0.0
 11
241.1671816967072
 21
-71.6754682923309
 31
0.0
  0
SOLID
  5
C8
330
C0
100
AcDbEntity
  8
Dimensions
 62
   140
100
AcDbTrace
 10
240.6258162859667
 20
-57.30746385693448
 30
0.0
 11
241.7194493193296
 21
-57.30787877854952
 31
0.0
 12
241.171388037803
 22
-60.58857041783061
 32
0.0
 13
241.171388037803
 23
-60.58857041783061
 33
0.0
  0
SOLID
  5
C9
330
C0
100
AcDbEntity
  8
Dimensions
 62
   140
100
AcDbTrace
 10
241.7152429782338
 20
-68.39477665304982
 30
0.0
 11
240.6216099448709
 21
-68.39436173143476
 31
0.0
 12
241.1696712263975
 22
-65.11367009215367
 32
0.0
 13
241.1696712263975
 23
-65.11367009215367
 33
0.0
  0
MTEXT
  5
CA
330
C0
100
AcDbEntity
  8
Dimensions
 62
   140
100
AcDbMText
 10
238.397388726073
 20
-62.8500681323254
 30
0.0
 40
3.280899336218924
 41
0.0
 46
0.0
 71
     5
 72
     1
  1
4,525
 11
0.0003793974509989327
 21
0.9999999280287845
 31
0.0
 73
     1
 44
1.0
  0
POINT
  5
CB
330
C0
100
AcDbEntity
  8
Defpoints
 62
     0
100
AcDbPoint
 10
240.7188780703707
 20
-60.58839873669005
 30
0.0
  0
POINT
  5
CC
330
C0
100
AcDbEntity
  8
Defpoints
 62
     0
100
AcDbPoint
 10
240.7171612589652
 20
-65.11349841101311
 30
0.0
  0
POINT
  5
CD
330
C0
100
AcDbEntity
  8
Defpoints
 62
     0
100
AcDbPoint
 10
241.1696712263975
 20
-65.11367009215367
 30
0.0
  0
ENDBLK
  5
C2
330
C0
100
AcDbEntity
  8
0
100
AcDbBlockEnd
  0
BLOCK
  5
D0
330
CF
100
AcDbEntity
  8
0
100
AcDbBlockBegin
  2
*D2
 70
     1
 10
0.0
 20
0.0
 30
0.0
  3
*D2
  1

  0
LINE
  5
D2
330
CF
100
AcDbEntity
  8
Dimensions
 62
   140
370
    -2
100
AcDbLine
 10
401.1763161137834
 20
-60.64927588406059
 30
0.0
 11
402.4490508562379
 21
-60.64975875641245
 31
0.0
  0
LINE
  5
D3
330
CF
100
AcDbEntity
  8
Dimensions
 62
   140
370
    -2
100
AcDbLine
 10
401.1745993023778
 20
-65.17437555838364
 30
0.0
 11
402.4473340448323
 21
-65.1748584307355
 31
0.0
  0
LINE
  5
D4
330
CF
100
AcDbEntity
  8
Dimensions
 62
   140
370
    -2
100
AcDbLine
 10
400.8086013061936
 20
-60.64913637398985
 30
0.0
 11
400.806884494788
 21
-65.1742360483129
 31
0.0
  0
LINE
  5
D5
330
CF
100
AcDbEntity
  8
Dimensions
 62
   140
370
    -2
100
AcDbLine
 10
400.8098460710387
 20
-57.36823727390124
 30
0.0
 11
400.8110908358839
 21
-54.08733817381263
 31
0.0
  0
LINE
  5
D6
330
CF
100
AcDbEntity
  8
Dimensions
 62
   140
370
    -2
100
AcDbLine
 10
400.8056397299428
 20
-68.45513514840152
 30
0.0
 11
400.8043949650976
 21
-71.73603424849014
 31
0.0
  0
SOLID
  5
D7
330
CF
100
AcDbEntity
  8
Dimensions
 62
   140
100
AcDbTrace
 10
400.2630295543573
 20
-57.36802981309371
 30
0.0
 11
401.3566625877202
 21
-57.36844473470877
 31
0.0
 12
400.8086013061936
 22
-60.64913637398985
 32
0.0
 13
400.8086013061936
 23
-60.64913637398985
 33
0.0
  0
SOLID
  5
D8
330
CF
100
AcDbEntity
  8
Dimensions
 62
   140
100
AcDbTrace
 10
401.3524562466242
 20
-68.45534260920905
 30
0.0
 11
400.2588232132614
 21
-68.454927687594
 31
0.0
 12
400.806884494788
 22
-65.1742360483129
 32
0.0
 13
400.806884494788
 23
-65.1742360483129
 33
0.0
  0
MTEXT
  5
D9
330
CF
100
AcDbEntity
  8
Dimensions
 62
   140
100
AcDbMText
 10
398.0346019944635
 20
-62.91063408848461
 30
0.0
 40
3.280899336218924
 41
0.0
 46
0.0
 71
     5
 72
     1
  1
4,525
 11
0.0003793974510114952
 21
0.9999999280287846
 31
0.0
 73
     1
 44
1.0
  0
POINT
  5
DA
330
CF
100
AcDbEntity
  8
Defpoints
 62
     0
100
AcDbPoint
 10
400.3560913387612
 20
-60.6489646928493
 30
0.0
  0
POINT
  5
DB
330
CF
100
AcDbEntity
  8
Defpoints
 62
     0
100
AcDbPoint
 10
400.3543745273557
 20
-65.17406436717235
 30
0.0
  0
POINT
  5
DC
330
CF
100
AcDbEntity
  8
Defpoints
 62
     0
100
AcDbPoint
 10
400.806884494788
 20
-65.1742360483129
 30
0.0
  0
ENDBLK
  5
D1
330
CF
100
AcDbEntity
  8
0
100
AcDbBlockEnd
  0
BLOCK
  5
DF
330
DE
100
AcDbEntity
  8
0
100
AcDbBlockBegin
  2
*D3
 70
     1
 10
0.0
 20
0.0
 30
0.0
  3
*D3
  1

  0
LINE
  5
E1
330
DE
100
AcDbEntity
  8
Dimensions
 62
   140
370
    -2
100
AcDbLine
 10
232.4883302263905
 20
-60.5852760875929
 30
0.0
 11
233.7610649688449
 21
-60.58575895994475
 31
0.0
  0
LINE
  5
E2
330
DE
100
AcDbEntity
  8
Dimensions
 62
   140
370
    -2
100
AcDbLine
 10
232.486613414985
 20
-65.11037576191596
 30
0.0
 11
233.7593481574394
 21
-65.11085863426781
 31
0.0
  0
LINE
  5
E3
330
DE
100
AcDbEntity
  8
Dimensions
 62
   140
370
    -2
100
AcDbLine
 10
232.1206154188006
 20
-60.58513657752216
 30
0.0
 11
232.1188986073951
 21
-65.11023625184522
 31
0.0
  0
LINE
  5
E4
330
DE
100
AcDbEntity
  8
Dimensions
 62
   140
370
    -2
100
AcDbLine
 10
232.1218601836458
 20
-57.30423747743355
 30
0.0
 11
232.1231049484909
 21
-54.02333837734493
 31
0.0
  0
LINE
  5
E5
330
DE
100
AcDbEntity
  8
Dimensions
 62
   140
370
    -2
100
AcDbLine
 10
232.11765384255
 20
-68.39113535193383
 30
0.0
 11
232.1164090777048
 21
-71.67203445202244
 31
0.0
  0
SOLID
  5
E6
330
DE
100
AcDbEntity
  8
Dimensions
 62
   140
100
AcDbTrace
 10
231.5750436669643
 20
-57.30403001662602
 30
0.0
 11
232.6686767003272
 21
-57.30444493824107
 31
0.0
 12
232.1206154188006
 22
-60.58513657752216
 32
0.0
 13
232.1206154188006
 23
-60.58513657752216
 33
0.0
  0
SOLID
  5
E7
330
DE
100
AcDbEntity
  8
Dimensions
 62
   140
100
AcDbTrace
 10
232.6644703592314
 20
-68.39134281274136
 30
0.0
 11
231.5708373258685
 21
-68.3909278911263
 31
0.0
 12
232.1188986073951
 22
-65.11023625184522
 32
0.0
 13
232.1188986073951
 23
-65.11023625184522
 33
0.0
  0
MTEXT
  5
E8
330
DE
100
AcDbEntity
  8
Dimensions
 62
   140
100
AcDbMText
 10
229.3466161070706
 20
-62.84663429201695
 30
0.0
 40
3.280899336218924
 41
0.0
 46
0.0
 71
     5
 72
     1
  1
4,525
 11
0.0003793974509989322
 21
0.9999999280287846
 31
0.0
 73
     1
 44
1.0
  0
POINT
  5
E9
330
DE
100
AcDbEntity
  8
Defpoints
 62
     0
100
AcDbPoint
 10
231.6681054513683
 20
-60.5849648963816
 30
0.0
  0
POINT
  5
EA
330
DE
100
AcDbEntity
  8
Defpoints
 62
     0
100
AcDbPoint
 10
231.6663886399628
 20
-65.11006457070467
 30
0.0
  0
POINT
  5
EB
330
DE
100
AcDbEntity
  8
Defpoints
 62
     0
100
AcDbPoint
 10
232.1188986073951
 20
-65.11023625184522
 30
0.0
  0
ENDBLK
  5
E0
330
DE
100
AcDbEntity
  8
0
100
AcDbBlockEnd
  0
BLOCK
  5
EE
330
ED
100
AcDbEntity
  8
0
100
AcDbBlockBegin
  2
*D4
 70
     1
 10
0.0
 20
0.0
 30
0.0
  3
*D4
  1

  0
LINE
  5
F0
330
ED
100
AcDbEntity
  8
Dimensions
 62
   140
370
    -2
100
AcDbLine
 10
20.46401236634638
 20
-60.50483459605533
 30
0.0
 11
21.73674710880084
 21
-60.50531746840714
 31
0.0
  0
LINE
  5
F1
330
ED
100
AcDbEntity
  8
Dimensions
 62
   140
370
    -2
100
AcDbLine
 10
20.46229555494091
 20
-65.0299342703784
 30
0.0
 11
21.73503029739537
 21
-65.03041714273023
 31
0.0
  0
LINE
  5
F2
330
ED
100
AcDbEntity
  8
Dimensions
 62
   140
370
    -2
100
AcDbLine
 10
20.09629755875653
 20
-60.5046950859846
 30
0.0
 11
20.09458074735106
 21
-65.02979476030768
 31
0.0
  0
LINE
  5
F3
330
ED
100
AcDbEntity
  8
Dimensions
 62
   140
370
    -2
100
AcDbLine
 10
20.09754232360164
 20
-57.22379598589599
 30
0.0
 11
20.09878708844676
 21
-53.94289688580738
 31
0.0
  0
LINE
  5
F4
330
ED
100
AcDbEntity
  8
Dimensions
 62
   140
370
    -2
100
AcDbLine
 10
20.09333598250595
 20
-68.3106938603963
 30
0.0
 11
20.09209121766084
 21
-71.59159296048492
 31
0.0
  0
SOLID
  5
F5
330
ED
100
AcDbEntity
  8
Dimensions
 62
   140
100
AcDbTrace
 10
19.55072580692021
 20
-57.22358852508847
 30
0.0
 11
20.64435884028308
 21
-57.22400344670351
 31
0.0
 12
20.09629755875653
 22
-60.5046950859846
 32
0.0
 13
20.09629755875653
 23
-60.5046950859846
 33
0.0
  0
SOLID
  5
F6
330
ED
100
AcDbEntity
  8
Dimensions
 62
   140
100
AcDbTrace
 10
20.64015249918738
 20
-68.31090132120381
 30
0.0
 11
19.54651946582451
 21
-68.31048639958878
 31
0.0
 12
20.09458074735106
 22
-65.02979476030768
 32
0.0
 13
20.09458074735106
 23
-65.02979476030768
 33
0.0
  0
MTEXT
  5
F7
330
ED
100
AcDbEntity
  8
Dimensions
 62
   140
100
AcDbMText
 10
17.32229824702652
 20
-62.76619280047945
 30
0.0
 40
3.280899336218924
 41
0.0
 46
0.0
 71
     5
 72
     1
  1
4,525
 11
0.0003793974509887245
 21
0.9999999280287846
 31
0.0
 73
     1
 44
1.0
  0
POINT
  5
F8
330
ED
100
AcDbEntity
  8
Defpoints
 62
     0
100
AcDbPoint
 10
19.64378759132422
 20
-60.50452340484406
 30
0.0
  0
POINT
  5
F9
330
ED
100
AcDbEntity
  8
Defpoints
 62
     0
100
AcDbPoint
 10
19.64207077991875
 20
-65.02962307916714
 30
0.0
  0
POINT
  5
FA
330
ED
100
AcDbEntity
  8
Defpoints
 62
     0
100
AcDbPoint
 10
20.09458074735106
 20
-65.02979476030768
 30
0.0
  0
ENDBLK
  5
EF
330
ED
100
AcDbEntity
  8
0
100
AcDbBlockEnd
  0
BLOCK
  5
FD
330
FC
100
AcDbEntity
  8
0
100
AcDbBlockBegin
  2
*D5
 70
     1
 10
0.0
 20
0.0
 30
0.0
  3
*D5
  1

  0
LINE
  5
FF
330
FC
100
AcDbEntity
  8
Dimensions
 62
   140
370
    -2
100
AcDbLine
 10
125.7565641224621
 20
141.0059849999991
 30
0.0
 11
115.6795161612182
 21
141.0059849999991
 31
0.0
  0
MTEXT
  5
100
330
FC
100
AcDbEntity
  8
Dimensions
 62
   140
100
AcDbMText
 10
119.0775904737307
 20
143.4666595021633
 30
0.0
 40
3.280899336218924
 41
0.0
 46
0.0
 71
     5
 72
     1
  1
%%c2
 73
     1
 44
1.0
  0
SOLID
  5
101
330
FC
100
AcDbEntity
  8
Dimensions
 62
   140
100
AcDbTrace
 10
125.7565641224621
 20
140.4591684439626
 30
0.0
 11
125.7565641224621
 21
141.5528015560355
 31
0.0
 12
129.037463458681
 22
141.0059849999991
 32
0.0
 13
129.037463458681
 23
141.0059849999991
 33
0.0
  0
POINT
  5
102
330
FC
100
AcDbEntity
  8
Defpoints
 62
     0
100
AcDbPoint
 10
129.037463458681
 20
141.0059849999991
 30
0.0
  0
POINT
  5
103
330
FC
100
AcDbEntity
  8
Defpoints
 62
     0
100
AcDbPoint
 10
127.037463458681
 20
141.0059849999991
 30
0.0
  0
ENDBLK
  5
FE
330
FC
100
AcDbEntity
  8
0
100
AcDbBlockEnd
  0
BLOCK
  5
106
330
105
100
AcDbEntity
  8
0
100
AcDbBlockBegin
  2
*D6
 70
     1
 10
0.0
 20
0.0
 30
0.0
  3
*D6
  1

  0
LINE
  5
108
330
105
100
AcDbEntity
  8
Dimensions
 62
   140
370
    -2
100
AcDbLine
 10
229.3872391326171
 20
9.94381499999995
 30
0.0
 11
219.3101911713733
 21
9.94381499999995
 31
0.0
  0
MTEXT
  5
109
330
105
100
AcDbEntity
  8
Dimensions
 62
   140
100
AcDbMText
 10
222.7082654838858
 20
12.40448950216414
 30
0.0
 40
3.280899336218924
 41
0.0
 46
0.0
 71
     5
 72
     1
  1
%%c2
 73
     1
 44
1.0
  0
SOLID
  5
10A
330
105
100
AcDbEntity
  8
Dimensions
 62
   140
100
AcDbTrace
 10
229.3872391326171
 20
9.396998443963462
 30
0.0
 11
229.3872391326171
 21
10.49063155603644
 31
0.0
 12
232.6681384688361
 22
9.94381499999995
 32
0.0
 13
232.6681384688361
 23
9.94381499999995
 33
0.0
  0
POINT
  5
10B
330
105
100
AcDbEntity
  8
Defpoints
 62
     0
100
AcDbPoint
 10
232.6681384688361
 20
9.94381499999995
 30
0.0
  0
POINT
  5
10C
330
105
100
AcDbEntity
  8
Defpoints
 62
     0
100
AcDbPoint
 10
230.6681384688361
 20
9.94381499999995
 30
0.0
  0
ENDBLK
  5
107
330
105
100
AcDbEntity
  8
0
100
AcDbBlockEnd
  0
BLOCK
  5
10F
330
10E
100
AcDbEntity
  8
0
100
AcDbBlockBegin
  2
*D7
 70
     1
 10
0.0
 20
0.0
 30
0.0
  3
*D7
  1

  0
LINE
  5
111
330
10E
100
AcDbEntity
  8
Dimensions
 62
   140
370
    -2
100
AcDbLine
 10
234.1502391224622
 20
141.0059849999992
 30
0.0
 11
224.0731911612183
 21
141.0059849999992
 31
0.0
  0
MTEXT
  5
112
330
10E
100
AcDbEntity
  8
Dimensions
 62
   140
100
AcDbMText
 10
227.4712654737308
 20
143.4666595021633
 30
0.0
 40
3.280899336218924
 41
0.0
 46
0.0
 71
     5
 72
     1
  1
%%c2
 73
     1
 44
1.0
  0
SOLID
  5
113
330
10E
100
AcDbEntity
  8
Dimensions
 62
   140
100
AcDbTrace
 10
234.1502391224622
 20
140.4591684439627
 30
0.0
 11
234.1502391224622
 21
141.5528015560356
 31
0.0
 12
237.4311384586811
 22
141.0059849999992
 32
0.0
 13
237.4311384586811
 23
141.0059849999992
 33
0.0
  0
POINT
  5
114
330
10E
100
AcDbEntity
  8
Defpoints
 62
     0
100
AcDbPoint
 10
237.4311384586811
 20
141.0059849999992
 30
0.0
  0
POINT
  5
115
330
10E
100
AcDbEntity
  8
Defpoints
 62
     0
100
AcDbPoint
 10
235.4311384586811
 20
141.0059849999992
 30
0.0
  0
ENDBLK
  5
110
330
10E
100
AcDbEntity
  8
0
100
AcDbBlockEnd
  0
BLOCK
  5
118
330
117
100
AcDbEntity
  8
0
100
AcDbBlockBegin
  2
*D8
 70
     1
 10
0.0
 20
0.0
 30
0.0
  3
*D8
  1

  0
LINE
  5
11A
330
117
100
AcDbEntity
  8
Dimensions
 62
   140
370
    -2
100
AcDbLine
 10
17.36288912547716
 20
141.0059852350671
 30
0.0
 11
7.285841164233322
 21
141.0059852350671
 31
0.0
  0
MTEXT
  5
11B
330
117
100
AcDbEntity
  8
Dimensions
 62
   140
100
AcDbMText
 10
10.68391547674578
 20
143.4666597372313
 30
0.0
 40
3.280899336218924
 41
0.0
 46
0.0
 71
     5
 72
     1
  1
%%c2
 73
     1
 44
1.0
  0
SOLID
  5
11C
330
117
100
AcDbEntity
  8
Dimensions
 62
   140
100
AcDbTrace
 10
17.36288912547716
 20
140.4591686790306
 30
0.0
 11
17.36288912547716
 21
141.5528017911035
 31
0.0
 12
20.64378846169608
 22
141.0059852350671
 32
0.0
 13
20.64378846169608
 23
141.0059852350671
 33
0.0
  0
POINT
  5
11D
330
117
100
AcDbEntity
  8
Defpoints
 62
     0
100
AcDbPoint
 10
20.64378846169608
 20
141.0059852350671
 30
0.0
  0
POINT
  5
11E
330
117
100
AcDbEntity
  8
Defpoints
 62
     0
100
AcDbPoint
 10
18.64378846169608
 20
141.0059852350671
 30
0.0
  0
ENDBLK
  5
119
330
117
100
AcDbEntity
  8
0
100
AcDbBlockEnd
  0
BLOCK
  5
121
330
120
100
AcDbEntity
  8
0
100
AcDbBlockBegin
  2
*D9
 70
     1
 10
0.0
 20
0.0
 30
0.0
  3
*D9
  1

  0
LINE
  5
123
330
120
100
AcDbEntity
  8
Dimensions
 62
   140
370
    -2
100
AcDbLine
 10
32.36288912246204
 20
141.0059849999991
 30
0.0
 11
22.28584116121819
 21
141.0059849999991
 31
0.0
  0
MTEXT
  5
124
330
120
100
AcDbEntity
  8
Dimensions
 62
   140
100
AcDbMText
 10
25.68391547373066
 20
143.4666595021633
 30
0.0
 40
3.280899336218924
 41
0.0
 46
0.0
 71
     5
 72
     1
  1
%%c2
 73
     1
 44
1.0
  0
SOLID
  5
125
330
120
100
AcDbEntity
  8
Dimensions
 62
   140
100
AcDbTrace
 10
32.36288912246204
 20
140.4591684439626
 30
0.0
 11
32.36288912246204
 21
141.5528015560355
 31
0.0
 12
35.64378845868097
 22
141.0059849999991
 32
0.0
 13
35.64378845868097
 23
141.0059849999991
 33
0.0
  0
POINT
  5
126
330
120
100
AcDbEntity
  8
Defpoints
 62
     0
100
AcDbPoint
 10
35.64378845868097
 20
141.0059849999991
 30
0.0
  0
POINT
  5
127
330
120
100
AcDbEntity
  8
Defpoints
 62
     0
100
AcDbPoint
 10
33.64378845868097
 20
141.0059849999991
 30
0.0
  0
ENDBLK
  5
122
330
120
100
AcDbEntity
  8
0
100
AcDbBlockEnd
  0
BLOCK
  5
12A
330
129
100
AcDbEntity
  8
0
100
AcDbBlockBegin
  2
*D10
 70
     1
 10
0.0
 20
0.0
 30
0.0
  3
*D10
  1

  0
LINE
  5
12C
330
129
100
AcDbEntity
  8
Dimensions
 62
   140
370
    -2
100
AcDbLine
 10
140.7565641224621
 20
141.0059849999991
 30
0.0
 11
130.6795161612183
 21
141.0059849999991
 31
0.0
  0
MTEXT
  5
12D
330
129
100
AcDbEntity
  8
Dimensions
 62
   140
100
AcDbMText
 10
134.0775904737307
 20
143.4666595021633
 30
0.0
 40
3.280899336218924
 41
0.0
 46
0.0
 71
     5
 72
     1
  1
%%c2
 73
     1
 44
1.0
  0
SOLID
  5
12E
330
129
100
AcDbEntity
  8
Dimensions
 62
   140
100
AcDbTrace
 10
140.7565641224621
 20
140.4591684439626
 30
0.0
 11
140.7565641224621
 21
141.5528015560355
 31
0.0
 12
144.037463458681
 22
141.0059849999991
 32
0.0
 13
144.037463458681
 23
141.0059849999991
 33
0.0
  0
POINT
  5
12F
330
129
100
AcDbEntity
  8
Defpoints
 62
     0
100
AcDbPoint
 10
144.037463458681
 20
141.0059849999991
 30
0.0
  0
POINT
  5
130
330
129
100
AcDbEntity
  8
Defpoints
 62
     0
100
AcDbPoint
 10
142.037463458681
 20
141.0059849999991
 30
0.0
  0
ENDBLK
  5
12B
330
129
100
AcDbEntity
  8
0
100
AcDbBlockEnd
  0
BLOCK
  5
133
330
132
100
AcDbEntity
  8
0
100
AcDbBlockBegin
  2
*D11
 70
     1
 10
0.0
 20
0.0
 30
0.0
  3
*D11
  1

  0
LINE
  5
135
330
132
100
AcDbEntity
  8
Dimensions
 62
   140
370
    -2
100
AcDbLine
 10
398.0751920025423
 20
-60.6489646928493
 30
0.0
 11
387.9981440412985
 21
-60.6489646928493
 31
0.0
  0
MTEXT
  5
136
330
132
100
AcDbEntity
  8
Dimensions
 62
   140
100
AcDbMText
 10
391.3962183538109
 20
-58.1882901906851
 30
0.0
 40
3.280899336218924
 41
0.0
 46
0.0
 71
     5
 72
     1
  1
%%c2
 73
     1
 44
1.0
  0
SOLID
  5
137
330
132
100
AcDbEntity
  8
Dimensions
 62
   140
100
AcDbTrace
 10
398.0751920025423
 20
-61.19578124888579
 30
0.0
 11
398.0751920025423
 21
-60.10214813681281
 31
0.0
 12
401.3560913387612
 22
-60.6489646928493
 32
0.0
 13
401.3560913387612
 23
-60.6489646928493
 33
0.0
  0
POINT
  5
138
330
132
100
AcDbEntity
  8
Defpoints
 62
     0
100
AcDbPoint
 10
401.3560913387612
 20
-60.6489646928493
 30
0.0
  0
POINT
  5
139
330
132
100
AcDbEntity
  8
Defpoints
 62
     0
100
AcDbPoint
 10
399.3560913387612
 20
-60.6489646928493
 30
0.0
  0
ENDBLK
  5
134
330
132
100
AcDbEntity
  8
0
100
AcDbBlockEnd
  0
BLOCK
  5
13C
330
13B
100
AcDbEntity
  8
0
100
AcDbBlockBegin
  2
*D12
 70
     1
 10
0.0
 20
0.0
 30
0.0
  3
*D12
  1

  0
LINE
  5
13E
330
13B
100
AcDbEntity
  8
Dimensions
 62
   140
370
    -2
100
AcDbLine
 10
219.1502391224604
 20
141.0059849999991
 30
0.0
 11
209.0731911612166
 21
141.0059849999991
 31
0.0
  0
MTEXT
  5
13F
330
13B
100
AcDbEntity
  8
Dimensions
 62
   140
100
AcDbMText
 10
212.4712654737291
 20
143.4666595021633
 30
0.0
 40
3.280899336218924
 41
0.0
 46
0.0
 71
     5
 72
     1
  1
%%c2
 73
     1
 44
1.0
  0
SOLID
  5
140
330
13B
100
AcDbEntity
  8
Dimensions
 62
   140
100
AcDbTrace
 10
219.1502391224604
 20
140.4591684439626
 30
0.0
 11
219.1502391224604
 21
141.5528015560355
 31
0.0
 12
222.4311384586794
 22
141.0059849999991
 32
0.0
 13
222.4311384586794
 23
141.0059849999991
 33
0.0
  0
POINT
  5
141
330
13B
100
AcDbEntity
  8
Defpoints
 62
     0
100
AcDbPoint
 10
222.4311384586794
 20
141.0059849999991
 30
0.0
  0
POINT
  5
142
330
13B
100
AcDbEntity
  8
Defpoints
 62
     0
100
AcDbPoint
 10
220.4311384586794
 20
141.0059849999991
 30
0.0
  0
ENDBLK
  5
13D
330
13B
100
AcDbEntity
  8
0
100
AcDbBlockEnd
  0
BLOCK
  5
145
330
144
100
AcDbEntity
  8
0
100
AcDbBlockBegin
  2
*D13
 70
     1
 10
0.0
 20
0.0
 30
0.0
  3
*D13
  1

  0
LINE
  5
147
330
144
100
AcDbEntity
  8
Dimensions
 62
   140
370
    -2
100
AcDbLine
 10
243.2005122051
 20
141.0061749999997
 30
0.0
 11
233.1234642438562
 21
141.0061749999997
 31
0.0
  0
MTEXT
  5
148
330
144
100
AcDbEntity
  8
Dimensions
 62
   140
100
AcDbMText
 10
236.5215385563687
 20
143.4668495021639
 30
0.0
 40
3.280899336218924
 41
0.0
 46
0.0
 71
     5
 72
     1
  1
%%c2
 73
     1
 44
1.0
  0
SOLID
  5
149
330
144
100
AcDbEntity
  8
Dimensions
 62
   140
100
AcDbTrace
 10
243.2005122051
 20
140.4593584439633
 30
0.0
 11
243.2005122051
 21
141.5529915560362
 31
0.0
 12
246.481411541319
 22
141.0061749999997
 32
0.0
 13
246.481411541319
 23
141.0061749999997
 33
0.0
  0
POINT
  5
14A
330
144
100
AcDbEntity
  8
Defpoints
 62
     0
100
AcDbPoint
 10
246.481411541319
 20
141.0061749999997
 30
0.0
  0
POINT
  5
14B
330
144
100
AcDbEntity
  8
Defpoints
 62
     0
100
AcDbPoint
 10
244.481411541319
 20
141.0061749999997
 30
0.0
  0
ENDBLK
  5
146
330
144
100
AcDbEntity
  8
0
100
AcDbBlockEnd
  0
BLOCK
  5
14E
330
14D
100
AcDbEntity
  8
0
100
AcDbBlockBegin
  2
*D14
 70
     1
 10
0.0
 20
0.0
 30
0.0
  3
*D14
  1

  0
LINE
  5
150
330
14D
100
AcDbEntity
  8
Dimensions
 62
   140
370
    -2
100
AcDbLine
 10
258.2005122051001
 20
141.0061749999997
 30
0.0
 11
248.1234642438563
 21
141.0061749999997
 31
0.0
  0
MTEXT
  5
151
330
14D
100
AcDbEntity
  8
Dimensions
 62
   140
100
AcDbMText
 10
251.5215385563687
 20
143.4668495021639
 30
0.0
 40
3.280899336218924
 41
0.0
 46
0.0
 71
     5
 72
     1
  1
%%c2
 73
     1
 44
1.0
  0
SOLID
  5
152
330
14D
100
AcDbEntity
  8
Dimensions
 62
   140
100
AcDbTrace
 10
258.2005122051001
 20
140.4593584439633
 30
0.0
 11
258.2005122051001
 21
141.5529915560362
 31
0.0
 12
261.481411541319
 22
141.0061749999997
 32
0.0
 13
261.481411541319
 23
141.0061749999997
 33
0.0
  0
POINT
  5
153
330
14D
100
AcDbEntity
  8
Defpoints
 62
     0
100
AcDbPoint
 10
261.481411541319
 20
141.0061749999997
 30
0.0
  0
POINT
  5
154
330
14D
100
AcDbEntity
  8
Defpoints
 62
     0
100
AcDbPoint
 10
259.481411541319
 20
141.0061749999997
 30
0.0
  0
ENDBLK
  5
14F
330
14D
100
AcDbEntity
  8
0
100
AcDbBlockEnd
  0
BLOCK
  5
157
330
156
100
AcDbEntity
  8
0
100
AcDbBlockBegin
  2
*D15
 70
     1
 10
0.0
 20
0.0
 30
0.0
  3
*D15
  1

  0
LINE
  5
159
330
156
100
AcDbEntity
  8
Dimensions
 62
   140
370
    -2
100
AcDbLine
 10
305.6379122051001
 20
141.0061749999997
 30
0.0
 11
295.5608642438562
 21
141.0061749999997
 31
0.0
  0
MTEXT
  5
15A
330
156
100
AcDbEntity
  8
Dimensions
 62
   140
100
AcDbMText
 10
298.9589385563687
 20
143.4668495021639
 30
0.0
 40
3.280899336218924
 41
0.0
 46
0.0
 71
     5
 72
     1
  1
%%c2
 73
     1
 44
1.0
  0
SOLID
  5
15B
330
156
100
AcDbEntity
  8
Dimensions
 62
   140
100
AcDbTrace
 10
305.6379122051001
 20
140.4593584439633
 30
0.0
 11
305.6379122051001
 21
141.5529915560362
 31
0.0
 12
308.918811541319
 22
141.0061749999997
 32
0.0
 13
308.918811541319
 23
141.0061749999997
 33
0.0
  0
POINT
  5
15C
330
156
100
AcDbEntity
  8
Defpoints
 62
     0
100
AcDbPoint
 10
308.918811541319
 20
141.0061749999997
 30
0.0
  0
POINT
  5
15D
330
156
100
AcDbEntity
  8
Defpoints
 62
     0
100
AcDbPoint
 10
306.918811541319
 20
141.0061749999997
 30
0.0
  0
ENDBLK
  5
158
330
156
100
AcDbEntity
  8
0
100
AcDbBlockEnd
  0
BLOCK
  5
160
330
15F
100
AcDbEntity
  8
0
100
AcDbBlockBegin
  2
*D16
 70
     1
 10
0.0
 20
0.0
 30
0.0
  3
*D16
  1

  0
LINE
  5
162
330
15F
100
AcDbEntity
  8
Dimensions
 62
   140
370
    -2
100
AcDbLine
 10
320.6379122051001
 20
141.0061749999997
 30
0.0
 11
310.5608642438562
 21
141.0061749999997
 31
0.0
  0
MTEXT
  5
163
330
15F
100
AcDbEntity
  8
Dimensions
 62
   140
100
AcDbMText
 10
313.9589385563687
 20
143.4668495021639
 30
0.0
 40
3.280899336218924
 41
0.0
 46
0.0
 71
     5
 72
     1
  1
%%c2
 73
     1
 44
1.0
  0
SOLID
  5
164
330
15F
100
AcDbEntity
  8
Dimensions
 62
   140
100
AcDbTrace
 10
320.6379122051001
 20
140.4593584439633
 30
0.0
 11
320.6379122051001
 21
141.5529915560362
 31
0.0
 12
323.918811541319
 22
141.0061749999997
 32
0.0
 13
323.918811541319
 23
141.0061749999997
 33
0.0
  0
POINT
  5
165
330
15F
100
AcDbEntity
  8
Defpoints
 62
     0
100
AcDbPoint
 10
323.918811541319
 20
141.0061749999997
 30
0.0
  0
POINT
  5
166
330
15F
100
AcDbEntity
  8
Defpoints
 62
     0
100
AcDbPoint
 10
321.918811541319
 20
141.0061749999997
 30
0.0
  0
ENDBLK
  5
161
330
15F
100
AcDbEntity
  8
0
100
AcDbBlockEnd
  0
BLOCK
  5
169
330
168
100
AcDbEntity
  8
0
100
AcDbBlockBegin
  2
*D17
 70
     1
 10
0.0
 20
0.0
 30
0.0
  3
*D17
  1

  0
LINE
  5
16B
330
168
100
AcDbEntity
  8
Dimensions
 62
   140
370
    -2
100
AcDbLine
 10
383.0753122050992
 20
141.0061749999994
 30
0.0
 11
372.9982642438553
 21
141.0061749999994
 31
0.0
  0
MTEXT
  5
16C
330
168
100
AcDbEntity
  8
Dimensions
 62
   140
100
AcDbMText
 10
376.3963385563678
 20
143.4668495021635
 30
0.0
 40
3.280899336218924
 41
0.0
 46
0.0
 71
     5
 72
     1
  1
%%c2
 73
     1
 44
1.0
  0
SOLID
  5
16D
330
168
100
AcDbEntity
  8
Dimensions
 62
   140
100
AcDbTrace
 10
383.0753122050992
 20
140.4593584439629
 30
0.0
 11
383.0753122050992
 21
141.5529915560358
 31
0.0
 12
386.3562115413181
 22
141.0061749999994
 32
0.0
 13
386.3562115413181
 23
141.0061749999994
 33
0.0
  0
POINT
  5
16E
330
168
100
AcDbEntity
  8
Defpoints
 62
     0
100
AcDbPoint
 10
386.3562115413181
 20
141.0061749999994
 30
0.0
  0
POINT
  5
16F
330
168
100
AcDbEntity
  8
Defpoints
 62
     0
100
AcDbPoint
 10
384.3562115413181
 20
141.0061749999994
 30
0.0
  0
ENDBLK
  5
16A
330
168
100
AcDbEntity
  8
0
100
AcDbBlockEnd
  0
BLOCK
  5
172
330
171
100
AcDbEntity
  8
0
100
AcDbBlockBegin
  2
*D18
 70
     1
 10
0.0
 20
0.0
 30
0.0
  3
*D18
  1

  0
LINE
  5
174
330
171
100
AcDbEntity
  8
Dimensions
 62
   140
370
    -2
100
AcDbLine
 10
398.0753122051
 20
141.0061749999998
 30
0.0
 11
387.9982642438562
 21
141.0061749999998
 31
0.0
  0
MTEXT
  5
175
330
171
100
AcDbEntity
  8
Dimensions
 62
   140
100
AcDbMText
 10
391.3963385563686
 20
143.466849502164
 30
0.0
 40
3.280899336218924
 41
0.0
 46
0.0
 71
     5
 72
     1
  1
%%c2
 73
     1
 44
1.0
  0
SOLID
  5
176
330
171
100
AcDbEntity
  8
Dimensions
 62
   140
100
AcDbTrace
 10
398.0753122051
 20
140.4593584439634
 30
0.0
 11
398.0753122051
 21
141.5529915560363
 31
0.0
 12
401.3562115413189
 22
141.0061749999998
 32
0.0
 13
401.3562115413189
 23
141.0061749999998
 33
0.0
  0
POINT
  5
177
330
171
100
AcDbEntity
  8
Defpoints
 62
     0
100
AcDbPoint
 10
401.3562115413189
 20
141.0061749999998
 30
0.0
  0
POINT
  5
178
330
171
100
AcDbEntity
  8
Defpoints
 62
     0
100
AcDbPoint
 10
399.3562115413189
 20
141.0061749999998
 30
0.0
  0
ENDBLK
  5
173
330
171
100
AcDbEntity
  8
0
100
AcDbBlockEnd
  0
BLOCK
  5
17B
330
17A
100
AcDbEntity
  8
0
100
AcDbBlockBegin
  2
*D19
 70
     1
 10
0.0
 20
0.0
 30
0.0
  3
*D19
  1

  0
LINE
  5
17D
330
17A
100
AcDbEntity
  8
Dimensions
 62
   140
370
    -2
100
AcDbLine
 10
398.0753104102087
 20
9.943815000000681
 30
0.0
 11
387.9982624489649
 21
9.943815000000681
 31
0.0
  0
MTEXT
  5
17E
330
17A
100
AcDbEntity
  8
Dimensions
 62
   140
100
AcDbMText
 10
391.3963367614773
 20
12.40448950216487
 30
0.0
 40
3.280899336218924
 41
0.0
 46
0.0
 71
     5
 72
     1
  1
%%c2
 73
     1
 44
1.0
  0
SOLID
  5
17F
330
17A
100
AcDbEntity
  8
Dimensions
 62
   140
100
AcDbTrace
 10
398.0753104102087
 20
9.396998443964193
 30
0.0
 11
398.0753104102087
 21
10.49063155603717
 31
0.0
 12
401.3562097464276
 22
9.943815000000681
 32
0.0
 13
401.3562097464276
 23
9.943815000000681
 33
0.0
  0
POINT
  5
180
330
17A
100
AcDbEntity
  8
Defpoints
 62
     0
100
AcDbPoint
 10
401.3562097464276
 20
9.943815000000681
 30
0.0
  0
POINT
  5
181
330
17A
100
AcDbEntity
  8
Defpoints
 62
     0
100
AcDbPoint
 10
399.3562097464276
 20
9.943815000000681
 30
0.0
  0
ENDBLK
  5
17C
330
17A
100
AcDbEntity
  8
0
100
AcDbBlockEnd
  0
BLOCK
  5
184
330
183
100
AcDbEntity
  8
0
100
AcDbBlockBegin
  2
*D20
 70
     1
 10
0.0
 20
0.0
 30
0.0
  3
*D20
  1

  0
LINE
  5
186
330
183
100
AcDbEntity
  8
Dimensions
 62
   140
370
    -2
100
AcDbLine
 10
229.3872061151494
 20
-60.5849648963816
 30
0.0
 11
219.3101581539056
 21
-60.5849648963816
 31
0.0
  0
MTEXT
  5
187
330
183
100
AcDbEntity
  8
Dimensions
 62
   140
100
AcDbMText
 10
222.708232466418
 20
-58.1242903942174
 30
0.0
 40
3.280899336218924
 41
0.0
 46
0.0
 71
     5
 72
     1
  1
%%c2
 73
     1
 44
1.0
  0
SOLID
  5
188
330
183
100
AcDbEntity
  8
Dimensions
 62
   140
100
AcDbTrace
 10
229.3872061151494
 20
-61.13178145241809
 30
0.0
 11
229.3872061151494
 21
-60.03814834034511
 31
0.0
 12
232.6681054513683
 22
-60.5849648963816
 32
0.0
 13
232.6681054513683
 23
-60.5849648963816
 33
0.0
  0
POINT
  5
189
330
183
100
AcDbEntity
  8
Defpoints
 62
     0
100
AcDbPoint
 10
232.6681054513683
 20
-60.5849648963816
 30
0.0
  0
POINT
  5
18A
330
183
100
AcDbEntity
  8
Defpoints
 62
     0
100
AcDbPoint
 10
230.6681054513683
 20
-60.5849648963816
 30
0.0
  0
ENDBLK
  5
185
330
183
100
AcDbEntity
  8
0
100
AcDbBlockEnd
  0
BLOCK
  5
18D
330
18C
100
AcDbEntity
  8
0
100
AcDbBlockBegin
  2
*D21
 70
     1
 10
0.0
 20
0.0
 30
0.0
  3
*D21
  1

  0
LINE
  5
18F
330
18C
100
AcDbEntity
  8
Dimensions
 62
   140
370
    -2
100
AcDbLine
 10
398.0753122050998
 20
18.99382499986424
 30
0.0
 11
387.9982642438559
 21
18.99382499986424
 31
0.0
  0
MTEXT
  5
190
330
18C
100
AcDbEntity
  8
Dimensions
 62
   140
100
AcDbMText
 10
391.3963385563684
 20
21.45449950202843
 30
0.0
 40
3.280899336218924
 41
0.0
 46
0.0
 71
     5
 72
     1
  1
%%c2
 73
     1
 44
1.0
  0
SOLID
  5
191
330
18C
100
AcDbEntity
  8
Dimensions
 62
   140
100
AcDbTrace
 10
398.0753122050998
 20
18.44700844382775
 30
0.0
 11
398.0753122050998
 21
19.54064155590072
 31
0.0
 12
401.3562115413187
 22
18.99382499986424
 32
0.0
 13
401.3562115413187
 23
18.99382499986424
 33
0.0
  0
POINT
  5
192
330
18C
100
AcDbEntity
  8
Defpoints
 62
     0
100
AcDbPoint
 10
401.3562115413187
 20
18.99382499986424
 30
0.0
  0
POINT
  5
193
330
18C
100
AcDbEntity
  8
Defpoints
 62
     0
100
AcDbPoint
 10
399.3562115413187
 20
18.99382499986424
 30
0.0
  0
ENDBLK
  5
18E
330
18C
100
AcDbEntity
  8
0
100
AcDbBlockEnd
  0
BLOCK
  5
196
330
195
100
AcDbEntity
  8
0
100
AcDbBlockBegin
  2
*D22
 70
     1
 10
0.0
 20
0.0
 30
0.0
  3
*D22
  1

  0
LINE
  5
198
330
195
100
AcDbEntity
  8
Dimensions
 62
   140
370
    -2
100
AcDbLine
 10
318.2566622051
 20
18.99382499992102
 30
0.0
 11
308.1796142438562
 21
18.99382499992102
 31
0.0
  0
MTEXT
  5
199
330
195
100
AcDbEntity
  8
Dimensions
 62
   140
100
AcDbMText
 10
311.5776885563686
 20
21.45449950208521
 30
0.0
 40
3.280899336218924
 41
0.0
 46
0.0
 71
     5
 72
     1
  1
%%c2
 73
     1
 44
1.0
  0
SOLID
  5
19A
330
195
100
AcDbEntity
  8
Dimensions
 62
   140
100
AcDbTrace
 10
318.2566622051
 20
18.44700844388453
 30
0.0
 11
318.2566622051
 21
19.54064155595751
 31
0.0
 12
321.537561541319
 22
18.99382499992102
 32
0.0
 13
321.537561541319
 23
18.99382499992102
 33
0.0
  0
POINT
  5
19B
330
195
100
AcDbEntity
  8
Defpoints
 62
     0
100
AcDbPoint
 10
321.537561541319
 20
18.99382499992102
 30
0.0
  0
POINT
  5
19C
330
195
100
AcDbEntity
  8
Defpoints
 62
     0
100
AcDbPoint
 10
319.537561541319
 20
18.99382499992102
 30
0.0
  0
ENDBLK
  5
197
330
195
100
AcDbEntity
  8
0
100
AcDbBlockEnd
  0
BLOCK
  5
19F
330
19E
100
AcDbEntity
  8
0
100
AcDbBlockBegin
  2
*D23
 70
     1
 10
0.0
 20
0.0
 30
0.0
  3
*D23
  1

  0
LINE
  5
1A1
330
19E
100
AcDbEntity
  8
Dimensions
 62
   140
370
    -2
100
AcDbLine
 10
238.4380122050987
 20
18.99382499998271
 30
0.0
 11
228.3609642438549
 21
18.99382499998271
 31
0.0
  0
MTEXT
  5
1A2
330
19E
100
AcDbEntity
  8
Dimensions
 62
   140
100
AcDbMText
 10
231.7590385563673
 20
21.4544995021469
 30
0.0
 40
3.280899336218924
 41
0.0
 46
0.0
 71
     5
 72
     1
  1
%%c2
 73
     1
 44
1.0
  0
SOLID
  5
1A3
330
19E
100
AcDbEntity
  8
Dimensions
 62
   140
100
AcDbTrace
 10
238.4380122050987
 20
18.44700844394622
 30
0.0
 11
238.4380122050987
 21
19.54064155601919
 31
0.0
 12
241.7189115413176
 22
18.99382499998271
 32
0.0
 13
241.7189115413176
 23
18.99382499998271
 33
0.0
  0
POINT
  5
1A4
330
19E
100
AcDbEntity
  8
Defpoints
 62
     0
100
AcDbPoint
 10
241.7189115413176
 20
18.99382499998271
 30
0.0
  0
POINT
  5
1A5
330
19E
100
AcDbEntity
  8
Defpoints
 62
     0
100
AcDbPoint
 10
239.7189115413176
 20
18.99382499998271
 30
0.0
  0
ENDBLK
  5
1A0
330
19E
100
AcDbEntity
  8
0
100
AcDbBlockEnd
  0
BLOCK
  5
1A8
330
1A7
100
AcDbEntity
  8
0
100
AcDbBlockBegin
  2
*D24
 70
     1
 10
0.0
 20
0.0
 30
0.0
  3
*D24
  1

  0
LINE
  5
1AA
330
1A7
100
AcDbEntity
  8
Dimensions
 62
   140
370
    -2
100
AcDbLine
 10
238.4380122050984
 20
9.94381499999999
 30
0.0
 11
228.3609642438546
 21
9.94381499999999
 31
0.0
  0
MTEXT
  5
1AB
330
1A7
100
AcDbEntity
  8
Dimensions
 62
   140
100
AcDbMText
 10
231.7590385563671
 20
12.40448950216418
 30
0.0
 40
3.280899336218924
 41
0.0
 46
0.0
 71
     5
 72
     1
  1
%%c2
 73
     1
 44
1.0
  0
SOLID
  5
1AC
330
1A7
100
AcDbEntity
  8
Dimensions
 62
   140
100
AcDbTrace
 10
238.4380122050984
 20
9.396998443963502
 30
0.0
 11
238.4380122050984
 21
10.49063155603648
 31
0.0
 12
241.7189115413174
 22
9.94381499999999
 32
0.0
 13
241.7189115413174
 23
9.94381499999999
 33
0.0
  0
POINT
  5
1AD
330
1A7
100
AcDbEntity
  8
Defpoints
 62
     0
100
AcDbPoint
 10
241.7189115413174
 20
9.94381499999999
 30
0.0
  0
POINT
  5
1AE
330
1A7
100
AcDbEntity
  8
Defpoints
 62
     0
100
AcDbPoint
 10
239.7189115413174
 20
9.94381499999999
 30
0.0
  0
ENDBLK
  5
1A9
330
1A7
100
AcDbEntity
  8
0
100
AcDbBlockEnd
  0
BLOCK
  5
1B1
330
1B0
100
AcDbEntity
  8
0
100
AcDbBlockBegin
  2
*D25
 70
     1
 10
0.0
 20
0.0
 30
0.0
  3
*D25
  1

  0
LINE
  5
1B3
330
1B0
100
AcDbEntity
  8
Dimensions
 62
   140
370
    -2
100
AcDbLine
 10
229.3872391224621
 20
18.99401499999914
 30
0.0
 11
219.3101911612183
 21
18.99401499999914
 31
0.0
  0
MTEXT
  5
1B4
330
1B0
100
AcDbEntity
  8
Dimensions
 62
   140
100
AcDbMText
 10
222.7082654737307
 20
21.45468950216333
 30
0.0
 40
3.280899336218924
 41
0.0
 46
0.0
 71
     5
 72
     1
  1
%%c2
 73
     1
 44
1.0
  0
SOLID
  5
1B5
330
1B0
100
AcDbEntity
  8
Dimensions
 62
   140
100
AcDbTrace
 10
229.3872391224621
 20
18.44719844396266
 30
0.0
 11
229.3872391224621
 21
19.54083155603563
 31
0.0
 12
232.668138458681
 22
18.99401499999914
 32
0.0
 13
232.668138458681
 23
18.99401499999914
 33
0.0
  0
POINT
  5
1B6
330
1B0
100
AcDbEntity
  8
Defpoints
 62
     0
100
AcDbPoint
 10
232.668138458681
 20
18.99401499999914
 30
0.0
  0
POINT
  5
1B7
330
1B0
100
AcDbEntity
  8
Defpoints
 62
     0
100
AcDbPoint
 10
230.668138458681
 20
18.99401499999914
 30
0.0
  0
ENDBLK
  5
1B2
330
1B0
100
AcDbEntity
  8
0
100
AcDbBlockEnd
  0
BLOCK
  5
1BA
330
1B9
100
AcDbEntity
  8
0
100
AcDbBlockBegin
  2
*D26
 70
     1
 10
0.0
 20
0.0
 30
0.0
  3
*D26
  1

  0
LINE
  5
1BC
330
1B9
100
AcDbEntity
  8
Dimensions
 62
   140
370
    -2
100
AcDbLine
 10
238.4379787341518
 20
-60.58839873669005
 30
0.0
 11
228.3609307729079
 21
-60.58839873669005
 31
0.0
  0
MTEXT
  5
1BD
330
1B9
100
AcDbEntity
  8
Dimensions
 62
   140
100
AcDbMText
 10
231.7590050854204
 20
-58.12772423452586
 30
0.0
 40
3.280899336218924
 41
0.0
 46
0.0
 71
     5
 72
     1
  1
%%c2
 73
     1
 44
1.0
  0
SOLID
  5
1BE
330
1B9
100
AcDbEntity
  8
Dimensions
 62
   140
100
AcDbTrace
 10
238.4379787341518
 20
-61.13521529272654
 30
0.0
 11
238.4379787341518
 21
-60.04158218065356
 31
0.0
 12
241.7188780703707
 22
-60.58839873669005
 32
0.0
 13
241.7188780703707
 23
-60.58839873669005
 33
0.0
  0
POINT
  5
1BF
330
1B9
100
AcDbEntity
  8
Defpoints
 62
     0
100
AcDbPoint
 10
241.7188780703707
 20
-60.58839873669005
 30
0.0
  0
POINT
  5
1C0
330
1B9
100
AcDbEntity
  8
Defpoints
 62
     0
100
AcDbPoint
 10
239.7188780703707
 20
-60.58839873669005
 30
0.0
  0
ENDBLK
  5
1BB
330
1B9
100
AcDbEntity
  8
0
100
AcDbBlockEnd
  0
BLOCK
  5
1C3
330
1C2
100
AcDbEntity
  8
0
100
AcDbBlockBegin
  2
*D27
 70
     1
 10
0.0
 20
0.0
 30
0.0
  3
*D27
  1

  0
LINE
  5
1C5
330
1C2
100
AcDbEntity
  8
Dimensions
 62
   140
370
    -2
100
AcDbLine
 10
123.3750641224621
 20
18.99401500018794
 30
0.0
 11
113.2980161612183
 21
18.99401500018794
 31
0.0
  0
MTEXT
  5
1C6
330
1C2
100
AcDbEntity
  8
Dimensions
 62
   140
100
AcDbMText
 10
116.6960904737307
 20
21.45468950235213
 30
0.0
 40
3.280899336218924
 41
0.0
 46
0.0
 71
     5
 72
     1
  1
%%c2
 73
     1
 44
1.0
  0
SOLID
  5
1C7
330
1C2
100
AcDbEntity
  8
Dimensions
 62
   140
100
AcDbTrace
 10
123.3750641224621
 20
18.44719844415145
 30
0.0
 11
123.3750641224621
 21
19.54083155622442
 31
0.0
 12
126.655963458681
 22
18.99401500018794
 32
0.0
 13
126.655963458681
 23
18.99401500018794
 33
0.0
  0
POINT
  5
1C8
330
1C2
100
AcDbEntity
  8
Defpoints
 62
     0
100
AcDbPoint
 10
126.655963458681
 20
18.99401500018794
 30
0.0
  0
POINT
  5
1C9
330
1C2
100
AcDbEntity
  8
Defpoints
 62
     0
100
AcDbPoint
 10
124.655963458681
 20
18.99401500018794
 30
0.0
  0
ENDBLK
  5
1C4
330
1C2
100
AcDbEntity
  8
0
100
AcDbBlockEnd
  0
BLOCK
  5
1CC
330
1CB
100
AcDbEntity
  8
0
100
AcDbBlockBegin
  2
*D28
 70
     1
 10
0.0
 20
0.0
 30
0.0
  3
*D28
  1

  0
LINE
  5
1CE
330
1CB
100
AcDbEntity
  8
Dimensions
 62
   140
370
    -2
100
AcDbLine
 10
17.3628882551053
 20
-60.50452340484406
 30
0.0
 11
7.285840293861462
 21
-60.50452340484406
 31
0.0
  0
MTEXT
  5
1CF
330
1CB
100
AcDbEntity
  8
Dimensions
 62
   140
100
AcDbMText
 10
10.68391460637392
 20
-58.04384890267986
 30
0.0
 40
3.280899336218924
 41
0.0
 46
0.0
 71
     5
 72
     1
  1
%%c2
 73
     1
 44
1.0
  0
SOLID
  5
1D0
330
1CB
100
AcDbEntity
  8
Dimensions
 62
   140
100
AcDbTrace
 10
17.3628882551053
 20
-61.05133996088055
 30
0.0
 11
17.3628882551053
 21
-59.95770684880757
 31
0.0
 12
20.64378759132422
 22
-60.50452340484406
 32
0.0
 13
20.64378759132422
 23
-60.50452340484406
 33
0.0
  0
POINT
  5
1D1
330
1CB
100
AcDbEntity
  8
Defpoints
 62
     0
100
AcDbPoint
 10
20.64378759132422
 20
-60.50452340484406
 30
0.0
  0
POINT
  5
1D2
330
1CB
100
AcDbEntity
  8
Defpoints
 62
     0
100
AcDbPoint
 10
18.64378759132422
 20
-60.50452340484406
 30
0.0
  0
ENDBLK
  5
1CD
330
1CB
100
AcDbEntity
  8
0
100
AcDbBlockEnd
  0
BLOCK
  5
1D5
330
1D4
100
AcDbEntity
  8
0
100
AcDbBlockBegin
  2
*D29
 70
     1
 10
0.0
 20
0.0
 30
0.0
  3
*D29
  1

  0
LINE
  5
1D7
330
1D4
100
AcDbEntity
  8
Dimensions
 62
   140
370
    -2
100
AcDbLine
 10
17.36288912246206
 20
9.94381499999903
 30
0.0
 11
7.285841161218219
 21
9.94381499999903
 31
0.0
  0
MTEXT
  5
1D8
330
1D4
100
AcDbEntity
  8
Dimensions
 62
   140
100
AcDbMText
 10
10.68391547373067
 20
12.40448950216322
 30
0.0
 40
3.280899336218924
 41
0.0
 46
0.0
 71
     5
 72
     1
  1
%%c2
 73
     1
 44
1.0
  0
SOLID
  5
1D9
330
1D4
100
AcDbEntity
  8
Dimensions
 62
   140
100
AcDbTrace
 10
17.36288912246206
 20
9.396998443962543
 30
0.0
 11
17.36288912246206
 21
10.49063155603552
 31
0.0
 12
20.64378845868098
 22
9.94381499999903
 32
0.0
 13
20.64378845868098
 23
9.94381499999903
 33
0.0
  0
POINT
  5
1DA
330
1D4
100
AcDbEntity
  8
Defpoints
 62
     0
100
AcDbPoint
 10
20.64378845868098
 20
9.94381499999903
 30
0.0
  0
POINT
  5
1DB
330
1D4
100
AcDbEntity
  8
Defpoints
 62
     0
100
AcDbPoint
 10
18.64378845868098
 20
9.94381499999903
 30
0.0
  0
ENDBLK
  5
1D6
330
1D4
100
AcDbEntity
  8
0
100
AcDbBlockEnd
  0
BLOCK
  5
1DE
330
1DD
100
AcDbEntity
  8
0
100
AcDbBlockBegin
  2
*D30
 70
     1
 10
0.0
 20
0.0
 30
0.0
  3
*D30
  1

  0
LINE
  5
1E0
330
1DD
100
AcDbEntity
  8
Dimensions
 62
   140
370
    -2
100
AcDbLine
 10
17.36288912246206
 20
18.99401499999907
 30
0.0
 11
7.285841161218219
 21
18.99401499999907
 31
0.0
  0
MTEXT
  5
1E1
330
1DD
100
AcDbEntity
  8
Dimensions
 62
   140
100
AcDbMText
 10
10.68391547373067
 20
21.45468950216326
 30
0.0
 40
3.280899336218924
 41
0.0
 46
0.0
 71
     5
 72
     1
  1
%%c2
 73
     1
 44
1.0
  0
SOLID
  5
1E2
330
1DD
100
AcDbEntity
  8
Dimensions
 62
   140
100
AcDbTrace
 10
17.36288912246206
 20
18.44719844396258
 30
0.0
 11
17.36288912246206
 21
19.54083155603556
 31
0.0
 12
20.64378845868098
 22
18.99401499999907
 32
0.0
 13
20.64378845868098
 23
18.99401499999907
 33
0.0
  0
POINT
  5
1E3
330
1DD
100
AcDbEntity
  8
Defpoints
 62
     0
100
AcDbPoint
 10
20.64378845868098
 20
18.99401499999907
 30
0.0
  0
POINT
  5
1E4
330
1DD
100
AcDbEntity
  8
Defpoints
 62
     0
100
AcDbPoint
 10
18.64378845868098
 20
18.99401499999907
 30
0.0
  0
ENDBLK
  5
1DF
330
1DD
100
AcDbEntity
  8
0
100
AcDbBlockEnd
  0
ENDSEC
  0
SECTION
  2
ENTITIES
  0
LINE
  5
5F
330
1F
100
AcDbEntity
  8
0 (2)
100
AcDbLine
 10
236.1943851892765
 20
55.56863004669491
 30
0.0
 11
236.1921859488166
 21
-60.46988917686139
 31
0.0
  0
LINE
  5
60
330
1F
100
AcDbEntity
  8
0 (2)
100
AcDbLine
 10
96.79348843297885
 20
145.5310933750932
 30
0.0
 11
193.4746384329893
 21
145.5312166271632
 31
0.0
  0
LINE
  5
61
330
1F
100
AcDbEntity
  8
0 (2)
100
AcDbLine
 10
233.4312749712888
 20
115.1939799962175
 30
0.0
 11
233.4301519769944
 21
115.1939793535003
 31
0.0
  0
LINE
  5
62
330
1F
100
AcDbEntity
  8
0 (2)
100
AcDbLine
 10
228.4335193548685
 20
96.66937999900988
 30
0.0
 11
224.9061399712835
 21
96.66937999900988
 31
0.0
  0
LINE
  5
63
330
1F
100
AcDbEntity
  8
0 (2)
100
AcDbLine
 10
19.63708557473587
 20
-65.02962118779284
 30
0.0
 11
232.0432024579048
 21
-65.11020753291697
 31
0.0
  0
LINE
  5
64
330
1F
100
AcDbEntity
  8
0 (2)
100
AcDbLine
 10
238.9562749999995
 20
115.1945749999998
 30
0.0
 11
238.9562749999995
 21
115.1933849999991
 31
0.0
  0
LINE
  5
65
330
1F
100
AcDbEntity
  8
0 (2)
100
AcDbLine
 10
229.668524971283
 20
58.56862999900963
 30
0.0
 11
233.1938540661855
 21
58.56862999900963
 31
0.0
  0
LINE
  5
66
330
1F
100
AcDbEntity
  8
0 (2)
100
AcDbLine
 10
15.1373765941393
 20
140.5961373987008
 30
0.0
 11
15.11075513856847
 21
-60.50469229666766
 31
0.0
  0
LINE
  5
67
330
1F
100
AcDbEntity
  8
0 (2)
100
AcDbLine
 10
195.4746550057839
 20
130.5312179020057
 30
0.0
 11
205.4746550026909
 21
130.5312306503098
 31
0.0
  0
LINE
  5
68
330
1F
100
AcDbEntity
  8
0 (2)
100
AcDbLine
 10
207.4746384298907
 20
145.531234474789
 30
0.0
 11
236.515283566004
 21
145.5312714966865
 31
0.0
  0
LINE
  5
69
330
1F
100
AcDbEntity
  8
0 (2)
100
AcDbLine
 10
240.9562723270842
 20
141.0061300100627
 30
0.0
 11
240.9562723270841
 21
117.1942787572752
 31
0.0
  0
LINE
  5
6A
330
1F
100
AcDbEntity
  8
0 (2)
100
AcDbLine
 10
233.4301519769944
 20
115.1939793535003
 30
0.0
 11
238.9585403740787
 21
115.1945753110568
 31
0.0
  0
LINE
  5
6B
330
1F
100
AcDbEntity
  8
0 (2)
100
AcDbLine
 10
221.9061399712836
 20
93.66937999900985
 30
0.0
 11
221.9061399712833
 21
80.00041749900993
 31
0.0
  0
LINE
  5
6C
330
1F
100
AcDbEntity
  8
0 (2)
100
AcDbLine
 10
240.7181470538941
 20
-65.11349878502122
 30
0.0
 11
400.3561237740645
 21
-65.17406503083214
 31
0.0
  0
LINE
  5
6D
330
1F
100
AcDbEntity
  8
0 (2)
100
AcDbLine
 10
288.4373115126356
 20
145.5312931465785
 30
0.0
 11
337.4937115126168
 21
145.5313136015915
 31
0.0
  0
LINE
  5
6E
330
1F
100
AcDbEntity
  8
0 (2)
100
AcDbLine
 10
231.429626578373
 20
113.1900391091182
 30
0.0
 11
231.4328124624008
 21
99.66937999900996
 31
0.0
  0
LINE
  5
6F
330
1F
100
AcDbEntity
  8
0 (2)
100
AcDbLine
 10
245.4814156652881
 20
145.5312752352883
 30
0.0
 11
274.4373115126355
 21
145.5312873090081
 31
0.0
  0
LINE
  5
70
330
1F
100
AcDbEntity
  8
0 (2)
100
AcDbLine
 10
226.668524971283
 20
75.23803249900998
 30
0.0
 11
226.668524971283
 21
61.56862999900959
 31
0.0
  0
LINE
  5
71
330
1F
100
AcDbEntity
  8
0 (2)
100
AcDbLine
 10
19.64688017923045
 20
145.530995026251
 30
0.0
 11
70.79348842989388
 21
145.5310602295026
 31
0.0
  0
LINE
  5
72
330
1F
100
AcDbEntity
  8
0 (2)
100
AcDbLine
 10
404.8772856039903
 20
140.8951024152844
 30
0.0
 11
404.8786171303182
 21
-60.48033016243627
 31
0.0
  0
LINE
  5
73
330
1F
100
AcDbEntity
  8
0 (2)
100
AcDbLine
 10
363.4937115126122
 20
145.5313244427934
 30
0.0
 11
400.3562089078257
 21
145.5313398133234
 31
0.0
  0
LINE
  5
74
330
1F
100
AcDbEntity
  8
0 (2)
100
AcDbLine
 10
72.79353304895488
 20
110.5310627791921
 30
0.0
 11
94.79353305204634
 21
110.531090825461
 31
0.0
  0
LINE
  5
75
330
1F
100
AcDbEntity
  8
0 (2)
100
AcDbLine
 10
95.79349098263964
 20
144.5310933750935
 30
0.0
 11
95.79353305204472
 21
111.5310921002914
 31
0.0
  0
LINE
  5
76
330
1F
100
AcDbEntity
  8
0 (2)
100
AcDbLine
 10
71.79348842989388
 20
144.5310602295028
 30
0.0
 11
71.79353049929732
 21
111.5310602295312
 31
0.0
  0
LINE
  5
77
330
1F
100
AcDbEntity
  8
0 (2)
100
AcDbLine
 10
338.4937119295859
 20
144.5313140185608
 30
0.0
 11
338.493725689573
 21
111.5313140185639
 31
0.0
  0
LINE
  5
78
330
1F
100
AcDbEntity
  8
0 (2)
100
AcDbLine
 10
362.4937123465511
 20
144.5313236088548
 30
0.0
 11
362.4937261065382
 21
111.5313236088579
 31
0.0
  0
LINE
  5
79
330
1F
100
AcDbEntity
  8
0 (2)
100
AcDbLine
 10
339.4937261065422
 20
110.5313144355331
 30
0.0
 11
361.4937261065382
 21
110.5313236088579
 31
0.0
  0
LINE
  5
7A
330
1F
100
AcDbEntity
  8
0 (2)
100
AcDbLine
 10
275.4373119296048
 20
144.5312873090082
 30
0.0
 11
275.4373173502058
 21
131.5312873090096
 31
0.0
  0
LINE
  5
7B
330
1F
100
AcDbEntity
  8
0 (2)
100
AcDbLine
 10
287.437311512636
 20
144.5312918956705
 30
0.0
 11
287.4373169332369
 21
131.5312918956718
 31
0.0
  0
LINE
  5
7C
330
1F
100
AcDbEntity
  8
0 (2)
100
AcDbLine
 10
276.4373173502057
 20
130.5312873090095
 30
0.0
 11
286.4373173502063
 21
130.5312914787026
 31
0.0
  0
LINE
  5
7D
330
1F
100
AcDbEntity
  8
0 (2)
100
AcDbLine
 10
194.4746384329893
 20
144.5312166271632
 30
0.0
 11
194.4746550057847
 21
131.5312166271754
 31
0.0
  0
LINE
  5
7E
330
1F
100
AcDbEntity
  8
0 (2)
100
AcDbLine
 10
206.4746371550636
 20
144.5312319251296
 30
0.0
 11
206.4746537278605
 21
131.5312306503098
 31
0.0
  0
ARC
  5
7F
330
1F
100
AcDbEntity
  8
0 (2)
100
AcDbCircle
 10
224.2873324712833
 20
80.0004174990099
 30
0.0
 40
2.381192499999962
100
AcDbArc
 50
179.9999999999993
 51
269.9999999999947
  0
ARC
  5
80
330
1F
100
AcDbEntity
  8
0 (2)
100
AcDbCircle
 10
240.7511198293037
 20
-60.55390994261305
 30
0.0
 40
4.559708062555217
100
AcDbArc
 50
178.9441631621924
 51
269.5856714269082
  0
ARC
  5
81
330
1F
100
AcDbEntity
  8
0 (2)
100
AcDbCircle
 10
224.9061399712835
 20
93.66937999900992
 30
0.0
 40
2.999999999999961
100
AcDbArc
 50
90.0
 51
180.0000000000013
  0
ARC
  5
82
330
1F
100
AcDbEntity
  8
0 (2)
100
AcDbCircle
 10
19.63638493966931
 20
-60.50399138664944
 30
0.0
 40
4.525629855377798
100
AcDbArc
 50
180.0088737230631
 51
270.0088702420958
  0
ARC
  5
83
330
1F
100
AcDbEntity
  8
0 (2)
100
AcDbCircle
 10
233.4324212198345
 20
113.1911853547577
 30
0.0
 40
2.002794969472897
100
AcDbArc
 50
90.03279177775595
 51
180.0327916946136
  0
ARC
  5
84
330
1F
100
AcDbEntity
  8
0 (2)
100
AcDbCircle
 10
19.64378846169608
 20
141.0059852350671
 30
0.0
 40
4.52501084739373
100
AcDbArc
 50
89.96085260656328
 51
185.1966234323612
  0
ARC
  5
85
330
1F
100
AcDbEntity
  8
0 (2)
100
AcDbCircle
 10
233.4324212198329
 20
113.1911853575555
 30
0.0
 40
2.002794969472952
100
AcDbArc
 50
180.0135006514069
 51
180.0327917746529
  0
ARC
  5
86
330
1F
100
AcDbEntity
  8
0 (2)
100
AcDbCircle
 10
229.6685249712829
 20
61.56862999900961
 30
0.0
 40
2.999999999999947
100
AcDbArc
 50
180.0000000000004
 51
270.0000000000011
  0
ARC
  5
87
330
1F
100
AcDbEntity
  8
0 (2)
100
AcDbCircle
 10
238.958534825876
 20
117.1923137786354
 30
0.0
 40
1.997738467586304
100
AcDbArc
 50
270.0001591242301
 51
0.0563562262392814
  0
ARC
  5
88
330
1F
100
AcDbEntity
  8
0 (2)
100
AcDbCircle
 10
224.287332471283
 20
75.23803249900998
 30
0.0
 40
2.381192499999962
100
AcDbArc
 50
0.0
 51
90.0
  0
ARC
  5
89
330
1F
100
AcDbEntity
  8
0 (2)
100
AcDbCircle
 10
245.4814175522998
 20
141.0061300100731
 30
0.0
 40
4.525145225215637
100
AcDbArc
 50
90.00002389267087
 51
180.0000000001315
  0
ARC
  5
8A
330
1F
100
AcDbEntity
  8
0 (2)
100
AcDbCircle
 10
236.4311295811241
 20
141.0069112558912
 30
0.0
 40
4.525142813399395
100
AcDbArc
 50
359.9901081378415
 51
88.93441017620799
  0
ARC
  5
8B
330
1F
100
AcDbEntity
  8
0 (2)
100
AcDbCircle
 10
400.352112934755
 20
-60.64458348773454
 30
0.0
 40
4.529483346621684
100
AcDbArc
 50
270.0510120002627
 51
2.078180979837681
  0
ARC
  5
8C
330
1F
100
AcDbEntity
  8
0 (2)
100
AcDbCircle
 10
228.4335192715858
 20
99.66867327308816
 30
0.0
 40
2.999293274078289
100
AcDbArc
 50
270.0000015909559
 51
0.0135006514088411
  0
ARC
  5
8D
330
1F
100
AcDbEntity
  8
0 (2)
100
AcDbCircle
 10
19.63880041488201
 20
-60.50469229666766
 30
0.0
 40
4.524929216066942
100
AcDbArc
 50
269.9657923938871
 51
269.9782862669063
  0
ARC
  5
8E
330
1F
100
AcDbEntity
  8
0 (2)
100
AcDbCircle
 10
233.1938518871875
 20
55.56809664951115
 30
0.0
 40
3.000533349499296
100
AcDbArc
 50
0.0101853250855528
 51
89.99995839160236
  0
ARC
  5
8F
330
1F
100
AcDbEntity
  8
0 (2)
100
AcDbCircle
 10
238.9585338594977
 20
117.1942787573333
 30
0.0
 40
1.99773846758636
100
AcDbArc
 50
359.9436057373016
 51
359.9999999983347
  0
ARC
  5
90
330
1F
100
AcDbEntity
  8
0 (2)
100
AcDbCircle
 10
228.4350691348076
 20
99.66740857927293
 30
0.0
 40
4.498028847162553
100
AcDbArc
 50
269.9802578804619
 51
270.0
  0
ARC
  5
91
330
1F
100
AcDbEntity
  8
0 (2)
100
AcDbCircle
 10
231.6315879310726
 20
-60.56718063571323
 30
0.0
 40
4.561635661406553
100
AcDbArc
 50
275.1770677478322
 51
1.222108274178676
  0
ARC
  5
92
330
1F
100
AcDbEntity
  8
0 (2)
100
AcDbCircle
 10
400.3535506078618
 20
141.0062405941417
 30
0.0
 40
4.52509999999973
100
AcDbArc
 50
358.5926523283072
 51
89.96634121292932
  0
ARC
  5
93
330
1F
100
AcDbEntity
  8
0 (2)
100
AcDbCircle
 10
72.79353049929406
 20
111.5310627791887
 30
0.0
 40
0.99999999999999
100
AcDbArc
 50
180.0001460846107
 51
270.0001460848509
  0
ARC
  5
94
330
1F
100
AcDbEntity
  8
0 (2)
100
AcDbCircle
 10
70.79348842989387
 20
144.5310602295028
 30
0.0
 40
1.000000000000015
100
AcDbArc
 50
0.0
 51
89.9999999999992
  0
ARC
  5
95
330
1F
100
AcDbEntity
  8
0 (2)
100
AcDbCircle
 10
94.79353305204552
 20
111.5310908254611
 30
0.0
 40
1.000000000000015
100
AcDbArc
 50
270.0000000000469
 51
0.0000730423995761
  0
ARC
  5
96
330
1F
100
AcDbEntity
  8
0 (2)
100
AcDbCircle
 10
96.79349098263964
 20
144.5310933750967
 30
0.0
 40
0.9999999999999484
100
AcDbArc
 50
90.00014608480235
 51
180.0000000001845
  0
ARC
  5
97
330
1F
100
AcDbEntity
  8
0 (2)
100
AcDbCircle
 10
193.4746384329893
 20
144.5312166271632
 30
0.0
 40
0.9999999999999731
100
AcDbArc
 50
0.0
 51
90.00000000000159
  0
ARC
  5
98
330
1F
100
AcDbEntity
  8
0 (2)
100
AcDbCircle
 10
207.4746371550604
 20
144.5312344747897
 30
0.0
 40
1.000000000000064
100
AcDbArc
 50
89.9999269576044
 51
180.000146084761
  0
ARC
  5
99
330
1F
100
AcDbEntity
  8
0 (2)
100
AcDbCircle
 10
205.4746537278606
 20
131.531230650309
 30
0.0
 40
0.9999999999999808
100
AcDbArc
 50
270.0000730423988
 51
0.0000000000477083
  0
ARC
  5
9A
330
1F
100
AcDbEntity
  8
0 (2)
100
AcDbCircle
 10
195.4746550057838
 20
131.5312179020057
 30
0.0
 40
1.000000000000008
100
AcDbArc
 50
180.0000730423988
 51
270.0000000000015
  0
ARC
  5
9B
330
1F
100
AcDbEntity
  8
0 (2)
100
AcDbCircle
 10
274.4373119296048
 20
144.5312873090082
 30
0.0
 40
1.000000000000001
100
AcDbArc
 50
0.0
 51
90.00002389058064
  0
ARC
  5
9C
330
1F
100
AcDbEntity
  8
0 (2)
100
AcDbCircle
 10
288.4373115126352
 20
144.5312931465785
 30
0.0
 40
1.000000000000001
100
AcDbArc
 50
89.99999999997456
 51
180.0000716717467
  0
ARC
  5
9D
330
1F
100
AcDbEntity
  8
0 (2)
100
AcDbCircle
 10
286.437316933237
 20
131.5312914787025
 30
0.0
 40
1.000000000000004
100
AcDbArc
 50
270.0000238905838
 51
0.0000238905806426
  0
ARC
  5
9E
330
1F
100
AcDbEntity
  8
0 (2)
100
AcDbCircle
 10
276.4373173502059
 20
131.5312873090096
 30
0.0
 40
1.000000000000056
100
AcDbArc
 50
180.0
 51
269.9999999999873
  0
ARC
  5
9F
330
1F
100
AcDbEntity
  8
0 (2)
100
AcDbCircle
 10
337.493711929586
 20
144.5313136015916
 30
0.0
 40
0.9999999999999768
100
AcDbArc
 50
0.0000238905758718
 51
90.00002389057428
  0
ARC
  5
A0
330
1F
100
AcDbEntity
  8
0 (2)
100
AcDbCircle
 10
363.4937123465508
 20
144.5313244427938
 30
0.0
 40
0.9999999999999878
100
AcDbArc
 50
90.00004778116447
 51
180.0000477811804
  0
ARC
  5
A1
330
1F
100
AcDbEntity
  8
0 (2)
100
AcDbCircle
 10
361.4937261065381
 20
111.5313236088579
 30
0.0
 40
1.000000000000015
100
AcDbArc
 50
270.0000000000032
 51
359.9999999999992
  0
ARC
  5
A2
330
1F
100
AcDbEntity
  8
0 (2)
100
AcDbCircle
 10
339.4937256895729
 20
111.531314435533
 30
0.0
 40
0.9999999999999768
100
AcDbArc
 50
180.0000238905814
 51
270.0000238905807
  0
CIRCLE
  5
A3
330
1F
100
AcDbEntity
  8
0 (2)
100
AcDbCircle
 10
260.481411541319
 20
141.0061749999997
 30
0.0
 40
1.0
  0
CIRCLE
  5
A4
330
1F
100
AcDbEntity
  8
0 (2)
100
AcDbCircle
 10
322.918811541319
 20
141.0061749999997
 30
0.0
 40
1.0
  0
CIRCLE
  5
A5
330
1F
100
AcDbEntity
  8
0 (2)
100
AcDbCircle
 10
245.481411541319
 20
141.0061749999997
 30
0.0
 40
1.0
  0
CIRCLE
  5
A6
330
1F
100
AcDbEntity
  8
0 (2)
100
AcDbCircle
 10
385.3562115413181
 20
141.0061749999994
 30
0.0
 40
1.0
  0
CIRCLE
  5
A7
330
1F
100
AcDbEntity
  8
0 (2)
100
AcDbCircle
 10
400.3562115413189
 20
141.0061749999998
 30
0.0
 40
1.0
  0
CIRCLE
  5
A8
330
1F
100
AcDbEntity
  8
0 (2)
100
AcDbCircle
 10
307.918811541319
 20
141.0061749999997
 30
0.0
 40
1.0
  0
CIRCLE
  5
A9
330
1F
100
AcDbEntity
  8
0 (2)
100
AcDbCircle
 10
400.3562115413187
 20
18.99382499986424
 30
0.0
 40
1.0
  0
CIRCLE
  5
AA
330
1F
100
AcDbEntity
  8
0 (2)
100
AcDbCircle
 10
240.7188780703707
 20
-60.58839873669005
 30
0.0
 40
1.0
  0
CIRCLE
  5
AB
330
1F
100
AcDbEntity
  8
0 (2)
100
AcDbCircle
 10
400.3560913387612
 20
-60.6489646928493
 30
0.0
 40
1.0
  0
CIRCLE
  5
AC
330
1F
100
AcDbEntity
  8
0 (2)
100
AcDbCircle
 10
143.037463458681
 20
141.0059849999991
 30
0.0
 40
1.0
  0
CIRCLE
  5
AD
330
1F
100
AcDbEntity
  8
0 (2)
100
AcDbCircle
 10
128.037463458681
 20
141.0059849999991
 30
0.0
 40
1.0
  0
CIRCLE
  5
AE
330
1F
100
AcDbEntity
  8
0 (2)
100
AcDbCircle
 10
19.64378846169608
 20
141.0059852350671
 30
0.0
 40
1.0
  0
CIRCLE
  5
AF
330
1F
100
AcDbEntity
  8
0 (2)
100
AcDbCircle
 10
400.3562097464276
 20
9.943815000000681
 30
0.0
 40
1.0
  0
CIRCLE
  5
B0
330
1F
100
AcDbEntity
  8
0 (2)
100
AcDbCircle
 10
125.655963458681
 20
18.99401500018794
 30
0.0
 40
1.0
  0
CIRCLE
  5
B1
330
1F
100
AcDbEntity
  8
0 (2)
100
AcDbCircle
 10
231.6681054513683
 20
-60.5849648963816
 30
0.0
 40
1.0
  0
CIRCLE
  5
B2
330
1F
100
AcDbEntity
  8
0 (2)
100
AcDbCircle
 10
221.4311384586794
 20
141.0059849999991
 30
0.0
 40
1.0
  0
CIRCLE
  5
B3
330
1F
100
AcDbEntity
  8
0 (2)
100
AcDbCircle
 10
240.7189115413176
 20
18.99382499998271
 30
0.0
 40
1.0
  0
CIRCLE
  5
B4
330
1F
100
AcDbEntity
  8
0 (2)
100
AcDbCircle
 10
19.64378845868098
 20
18.99401499999907
 30
0.0
 40
1.0
  0
CIRCLE
  5
B5
330
1F
100
AcDbEntity
  8
0 (2)
100
AcDbCircle
 10
231.668138458681
 20
18.99401499999914
 30
0.0
 40
1.0
  0
CIRCLE
  5
B6
330
1F
100
AcDbEntity
  8
0 (2)
100
AcDbCircle
 10
320.537561541319
 20
18.99382499992102
 30
0.0
 40
1.0
  0
CIRCLE
  5
B7
330
1F
100
AcDbEntity
  8
0 (2)
100
AcDbCircle
 10
19.64378759132422
 20
-60.50452340484406
 30
0.0
 40
1.0
  0
CIRCLE
  5
B8
330
1F
100
AcDbEntity
  8
0 (2)
100
AcDbCircle
 10
34.64378845868097
 20
141.0059849999991
 30
0.0
 40
1.0
  0
CIRCLE
  5
B9
330
1F
100
AcDbEntity
  8
0 (2)
100
AcDbCircle
 10
240.7189115413174
 20
9.94381499999999
 30
0.0
 40
1.0
  0
CIRCLE
  5
BA
330
1F
100
AcDbEntity
  8
0 (2)
100
AcDbCircle
 10
236.4311384586811
 20
141.0059849999992
 30
0.0
 40
1.0
  0
CIRCLE
  5
BB
330
1F
100
AcDbEntity
  8
0 (2)
100
AcDbCircle
 10
231.6681384688361
 20
9.94381499999995
 30
0.0
 40
1.0
  0
CIRCLE
  5
BC
330
1F
100
AcDbEntity
  8
0 (2)
100
AcDbCircle
 10
19.64378845868098
 20
9.94381499999903
 30
0.0
 40
1.0
  0
DIMENSION
  5
BE
330
1F
100
AcDbEntity
  8
Dimensions
100
AcDbDimension
280
     0
  2
*D1
 10
241.1696712263975
 20
-65.11367009215367
 30
0.0
 11
241.1705296321003
 21
-62.85112025499213
 31
0.0
 70
   161
 71
     5
 42
4.525100000000006
 73
     0
 74
     0
 75
     0
  3
ISO-25
100
AcDbAlignedDimension
 13
240.7188780703707
 23
-60.58839873669005
 33
0.0
 14
240.7171612589652
 24
-65.11349841101311
 34
0.0
1001
ACAD
1000
DSTYLE
1002
{
1070
   271
1070
     3
1070
    78
1070
     8
1070
   177
1070
   140
1070
   176
1070
   140
1070
   178
1070
   140
1070
    40
1040
1.31235973448757
1070
   277
1070
     2
1002
}
  0
DIMENSION
  5
CE
330
1F
100
AcDbEntity
  8
Dimensions
100
AcDbDimension
280
     0
  2
*D2
 10
400.806884494788
 20
-65.1742360483129
 30
0.0
 11
400.8077429004908
 21
-62.91168621115138
 31
0.0
 70
   161
 71
     5
 42
4.525099999999999
 73
     0
 74
     0
 75
     0
  3
ISO-25
100
AcDbAlignedDimension
 13
400.3560913387612
 23
-60.6489646928493
 33
0.0
 14
400.3543745273557
 24
-65.17406436717235
 34
0.0
1001
ACAD
1000
DSTYLE
1002
{
1070
   271
1070
     3
1070
    78
1070
     8
1070
   177
1070
   140
1070
   176
1070
   140
1070
   178
1070
   140
1070
    40
1040
1.31235973448757
1070
   277
1070
     2
1002
}
  0
DIMENSION
  5
DD
330
1F
100
AcDbEntity
  8
Dimensions
100
AcDbDimension
280
     0
  2
*D3
 10
232.1188986073951
 20
-65.11023625184522
 30
0.0
 11
232.1197570130979
 21
-62.84768641468368
 31
0.0
 70
   161
 71
     5
 42
4.525100000000013
 73
     0
 74
     0
 75
     0
  3
ISO-25
100
AcDbAlignedDimension
 13
231.6681054513683
 23
-60.5849648963816
 33
0.0
 14
231.6663886399628
 24
-65.11006457070467
 34
0.0
1001
ACAD
1000
DSTYLE
1002
{
1070
   271
1070
     3
1070
    78
1070
     8
1070
   177
1070
   140
1070
   176
1070
   140
1070
   178
1070
   140
1070
    40
1040
1.31235973448757
1070
   277
1070
     2
1002
}
  0
DIMENSION
  5
EC
330
1F
100
AcDbEntity
  8
Dimensions
100
AcDbDimension
280
     0
  2
*D4
 10
20.09458074735106
 20
-65.02979476030768
 30
0.0
 11
20.0954391530538
 21
-62.76724492314615
 31
0.0
 70
   161
 71
     5
 42
4.525100000000028
 73
     0
 74
     0
 75
     0
  3
ISO-25
100
AcDbAlignedDimension
 13
19.64378759132422
 23
-60.50452340484406
 33
0.0
 14
19.64207077991875
 24
-65.02962307916714
 34
0.0
1001
ACAD
1000
DSTYLE
1002
{
1070
   271
1070
     3
1070
    78
1070
     8
1070
   177
1070
   140
1070
   176
1070
   140
1070
   178
1070
   140
1070
    40
1040
1.31235973448757
1070
   277
1070
     2
1002
}
  0
DIMENSION
  5
FB
330
1F
100
AcDbEntity
  8
Dimensions
100
AcDbDimension
280
     0
  2
*D5
 10
127.037463458681
 20
141.0059849999991
 30
0.0
 11
119.0775904737307
 21
141.0059849999991
 31
0.0
 70
   163
 71
     5
 42
2.0
 73
     0
 74
     0
 75
     0
  3
ISO-25
100
AcDbDiametricDimension
 15
129.037463458681
 25
141.0059849999991
 35
0.0
 40
0.0
1001
ACAD
1000
DSTYLE
1002
{
1070
   271
1070
     3
1070
    78
1070
     8
1070
   177
1070
   140
1070
   176
1070
   140
1070
   178
1070
   140
1070
    40
1040
1.31235973448757
1070
   277
1070
     2
1002
}
  0
DIMENSION
  5
104
330
1F
100
AcDbEntity
  8
Dimensions
100
AcDbDimension
280
     0
  2
*D6
 10
230.6681384688361
 20
9.94381499999995
 30
0.0
 11
222.7082654838858
 21
9.94381499999995
 31
0.0
 70
   163
 71
     5
 42
2.0
 73
     0
 74
     0
 75
     0
  3
ISO-25
100
AcDbDiametricDimension
 15
232.6681384688361
 25
9.94381499999995
 35
0.0
 40
0.0
1001
ACAD
1000
DSTYLE
1002
{
1070
   271
1070
     3
1070
    78
1070
     8
1070
   177
1070
   140
1070
   176
1070
   140
1070
   178
1070
   140
1070
    40
1040
1.31235973448757
1070
   277
1070
     2
1002
}
  0
DIMENSION
  5
10D
330
1F
100
AcDbEntity
  8
Dimensions
100
AcDbDimension
280
     0
  2
*D7
 10
235.4311384586811
 20
141.0059849999992
 30
0.0
 11
227.4712654737308
 21
141.0059849999992
 31
0.0
 70
   163
 71
     5
 42
2.0
 73
     0
 74
     0
 75
     0
  3
ISO-25
100
AcDbDiametricDimension
 15
237.4311384586811
 25
141.0059849999992
 35
0.0
 40
0.0
1001
ACAD
1000
DSTYLE
1002
{
1070
   271
1070
     3
1070
    78
1070
     8
1070
   177
1070
   140
1070
   176
1070
   140
1070
   178
1070
   140
1070
    40
1040
1.31235973448757
1070
   277
1070
     2
1002
}
  0
DIMENSION
  5
116
330
1F
100
AcDbEntity
  8
Dimensions
100
AcDbDimension
280
     0
  2
*D8
 10
18.64378846169608
 20
141.0059852350671
 30
0.0
 11
10.68391547674578
 21
141.0059852350671
 31
0.0
 70
   163
 71
     5
 42
2.0
 73
     0
 74
     0
 75
     0
  3
ISO-25
100
AcDbDiametricDimension
 15
20.64378846169608
 25
141.0059852350671
 35
0.0
 40
0.0
1001
ACAD
1000
DSTYLE
1002
{
1070
   271
1070
     3
1070
    78
1070
     8
1070
   177
1070
   140
1070
   176
1070
   140
1070
   178
1070
   140
1070
    40
1040
1.31235973448757
1070
   277
1070
     2
1002
}
  0
DIMENSION
  5
11F
330
1F
100
AcDbEntity
  8
Dimensions
100
AcDbDimension
280
     0
  2
*D9
 10
33.64378845868097
 20
141.0059849999991
 30
0.0
 11
25.68391547373066
 21
141.0059849999991
 31
0.0
 70
   163
 71
     5
 42
2.0
 73
     0
 74
     0
 75
     0
  3
ISO-25
100
AcDbDiametricDimension
 15
35.64378845868097
 25
141.0059849999991
 35
0.0
 40
0.0
1001
ACAD
1000
DSTYLE
1002
{
1070
   271
1070
     3
1070
    78
1070
     8
1070
   177
1070
   140
1070
   176
1070
   140
1070
   178
1070
   140
1070
    40
1040
1.31235973448757
1070
   277
1070
     2
1002
}
  0
DIMENSION
  5
128
330
1F
100
AcDbEntity
  8
Dimensions
100
AcDbDimension
280
     0
  2
*D10
 10
142.037463458681
 20
141.0059849999991
 30
0.0
 11
134.0775904737307
 21
141.0059849999991
 31
0.0
 70
   163
 71
     5
 42
2.0
 73
     0
 74
     0
 75
     0
  3
ISO-25
100
AcDbDiametricDimension
 15
144.037463458681
 25
141.0059849999991
 35
0.0
 40
0.0
1001
ACAD
1000
DSTYLE
1002
{
1070
   271
1070
     3
1070
    78
1070
     8
1070
   177
1070
   140
1070
   176
1070
   140
1070
   178
1070
   140
1070
    40
1040
1.31235973448757
1070
   277
1070
     2
1002
}
  0
DIMENSION
  5
131
330
1F
100
AcDbEntity
  8
Dimensions
100
AcDbDimension
280
     0
  2
*D11
 10
399.3560913387612
 20
-60.6489646928493
 30
0.0
 11
391.3962183538109
 21
-60.6489646928493
 31
0.0
 70
   163
 71
     5
 42
2.0
 73
     0
 74
     0
 75
     0
  3
ISO-25
100
AcDbDiametricDimension
 15
401.3560913387612
 25
-60.6489646928493
 35
0.0
 40
0.0
1001
ACAD
1000
DSTYLE
1002
{
1070
   271
1070
     3
1070
    78
1070
     8
1070
   177
1070
   140
1070
   176
1070
   140
1070
   178
1070
   140
1070
    40
1040
1.31235973448757
1070
   277
1070
     2
1002
}
  0
DIMENSION
  5
13A
330
1F
100
AcDbEntity
  8
Dimensions
100
AcDbDimension
280
     0
  2
*D12
 10
220.4311384586794
 20
141.0059849999991
 30
0.0
 11
212.4712654737291
 21
141.0059849999991
 31
0.0
 70
   163
 71
     5
 42
2.0
 73
     0
 74
     0
 75
     0
  3
ISO-25
100
AcDbDiametricDimension
 15
222.4311384586794
 25
141.0059849999991
 35
0.0
 40
0.0
1001
ACAD
1000
DSTYLE
1002
{
1070
   271
1070
     3
1070
    78
1070
     8
1070
   177
1070
   140
1070
   176
1070
   140
1070
   178
1070
   140
1070
    40
1040
1.31235973448757
1070
   277
1070
     2
1002
}
  0
DIMENSION
  5
143
330
1F
100
AcDbEntity
  8
Dimensions
100
AcDbDimension
280
     0
  2
*D13
 10
244.481411541319
 20
141.0061749999997
 30
0.0
 11
236.5215385563687
 21
141.0061749999997
 31
0.0
 70
   163
 71
     5
 42
2.0
 73
     0
 74
     0
 75
     0
  3
ISO-25
100
AcDbDiametricDimension
 15
246.481411541319
 25
141.0061749999997
 35
0.0
 40
0.0
1001
ACAD
1000
DSTYLE
1002
{
1070
   271
1070
     3
1070
    78
1070
     8
1070
   177
1070
   140
1070
   176
1070
   140
1070
   178
1070
   140
1070
    40
1040
1.31235973448757
1070
   277
1070
     2
1002
}
  0
DIMENSION
  5
14C
330
1F
100
AcDbEntity
  8
Dimensions
100
AcDbDimension
280
     0
  2
*D14
 10
259.481411541319
 20
141.0061749999997
 30
0.0
 11
251.5215385563687
 21
141.0061749999997
 31
0.0
 70
   163
 71
     5
 42
2.0
 73
     0
 74
     0
 75
     0
  3
ISO-25
100
AcDbDiametricDimension
 15
261.481411541319
 25
141.0061749999997
 35
0.0
 40
0.0
1001
ACAD
1000
DSTYLE
1002
{
1070
   271
1070
     3
1070
    78
1070
     8
1070
   177
1070
   140
1070
   176
1070
   140
1070
   178
1070
   140
1070
    40
1040
1.31235973448757
1070
   277
1070
     2
1002
}
  0
DIMENSION
  5
155
330
1F
100
AcDbEntity
  8
Dimensions
100
AcDbDimension
280
     0
  2
*D15
 10
306.918811541319
 20
141.0061749999997
 30
0.0
 11
298.9589385563687
 21
141.0061749999997
 31
0.0
 70
   163
 71
     5
 42
2.0
 73
     0
 74
     0
 75
     0
  3
ISO-25
100
AcDbDiametricDimension
 15
308.918811541319
 25
141.0061749999997
 35
0.0
 40
0.0
1001
ACAD
1000
DSTYLE
1002
{
1070
   271
1070
     3
1070
    78
1070
     8
1070
   177
1070
   140
1070
   176
1070
   140
1070
   178
1070
   140
1070
    40
1040
1.31235973448757
1070
   277
1070
     2
1002
}
  0
DIMENSION
  5
15E
330
1F
100
AcDbEntity
  8
Dimensions
100
AcDbDimension
280
     0
  2
*D16
 10
321.918811541319
 20
141.0061749999997
 30
0.0
 11
313.9589385563687
 21
141.0061749999997
 31
0.0
 70
   163
 71
     5
 42
2.0
 73
     0
 74
     0
 75
     0
  3
ISO-25
100
AcDbDiametricDimension
 15
323.918811541319
 25
141.0061749999997
 35
0.0
 40
0.0
1001
ACAD
1000
DSTYLE
1002
{
1070
   271
1070
     3
1070
    78
1070
     8
1070
   177
1070
   140
1070
   176
1070
   140
1070
   178
1070
   140
1070
    40
1040
1.31235973448757
1070
   277
1070
     2
1002
}
  0
DIMENSION
  5
167
330
1F
100
AcDbEntity
  8
Dimensions
100
AcDbDimension
280
     0
  2
*D17
 10
384.3562115413181
 20
141.0061749999994
 30
0.0
 11
376.3963385563678
 21
141.0061749999994
 31
0.0
 70
   163
 71
     5
 42
2.0
 73
     0
 74
     0
 75
     0
  3
ISO-25
100
AcDbDiametricDimension
 15
386.3562115413181
 25
141.0061749999994
 35
0.0
 40
0.0
1001
ACAD
1000
DSTYLE
1002
{
1070
   271
1070
     3
1070
    78
1070
     8
1070
   177
1070
   140
1070
   176
1070
   140
1070
   178
1070
   140
1070
    40
1040
1.31235973448757
1070
   277
1070
     2
1002
}
  0
DIMENSION
  5
170
330
1F
100
AcDbEntity
  8
Dimensions
100
AcDbDimension
280
     0
  2
*D18
 10
399.3562115413189
 20
141.0061749999998
 30
0.0
 11
391.3963385563686
 21
141.0061749999998
 31
0.0
 70
   163
 71
     5
 42
2.0
 73
     0
 74
     0
 75
     0
  3
ISO-25
100
AcDbDiametricDimension
 15
401.3562115413189
 25
141.0061749999998
 35
0.0
 40
0.0
1001
ACAD
1000
DSTYLE
1002
{
1070
   271
1070
     3
1070
    78
1070
     8
1070
   177
1070
   140
1070
   176
1070
   140
1070
   178
1070
   140
1070
    40
1040
1.31235973448757
1070
   277
1070
     2
1002
}
  0
DIMENSION
  5
179
330
1F
100
AcDbEntity
  8
Dimensions
100
AcDbDimension
280
     0
  2
*D19
 10
399.3562097464276
 20
9.943815000000681
 30
0.0
 11
391.3963367614773
 21
9.943815000000681
 31
0.0
 70
   163
 71
     5
 42
2.0
 73
     0
 74
     0
 75
     0
  3
ISO-25
100
AcDbDiametricDimension
 15
401.3562097464276
 25
9.943815000000681
 35
0.0
 40
0.0
1001
ACAD
1000
DSTYLE
1002
{
1070
   271
1070
     3
1070
    78
1070
     8
1070
   177
1070
   140
1070
   176
1070
   140
1070
   178
1070
   140
1070
    40
1040
1.31235973448757
1070
   277
1070
     2
1002
}
  0
DIMENSION
  5
182
330
1F
100
AcDbEntity
  8
Dimensions
100
AcDbDimension
280
     0
  2
*D20
 10
230.6681054513683
 20
-60.5849648963816
 30
0.0
 11
222.708232466418
 21
-60.5849648963816
 31
0.0
 70
   163
 71
     5
 42
2.0
 73
     0
 74
     0
 75
     0
  3
ISO-25
100
AcDbDiametricDimension
 15
232.6681054513683
 25
-60.5849648963816
 35
0.0
 40
0.0
1001
ACAD
1000
DSTYLE
1002
{
1070
   271
1070
     3
1070
    78
1070
     8
1070
   177
1070
   140
1070
   176
1070
   140
1070
   178
1070
   140
1070
    40
1040
1.31235973448757
1070
   277
1070
     2
1002
}
  0
DIMENSION
  5
18B
330
1F
100
AcDbEntity
  8
Dimensions
100
AcDbDimension
280
     0
  2
*D21
 10
399.3562115413187
 20
18.99382499986424
 30
0.0
 11
391.3963385563684
 21
18.99382499986424
 31
0.0
 70
   163
 71
     5
 42
2.0
 73
     0
 74
     0
 75
     0
  3
ISO-25
100
AcDbDiametricDimension
 15
401.3562115413187
 25
18.99382499986424
 35
0.0
 40
0.0
1001
ACAD
1000
DSTYLE
1002
{
1070
   271
1070
     3
1070
    78
1070
     8
1070
   177
1070
   140
1070
   176
1070
   140
1070
   178
1070
   140
1070
    40
1040
1.31235973448757
1070
   277
1070
     2
1002
}
  0
DIMENSION
  5
194
330
1F
100
AcDbEntity
  8
Dimensions
100
AcDbDimension
280
     0
  2
*D22
 10
319.537561541319
 20
18.99382499992102
 30
0.0
 11
311.5776885563686
 21
18.99382499992102
 31
0.0
 70
   163
 71
     5
 42
2.0
 73
     0
 74
     0
 75
     0
  3
ISO-25
100
AcDbDiametricDimension
 15
321.537561541319
 25
18.99382499992102
 35
0.0
 40
0.0
1001
ACAD
1000
DSTYLE
1002
{
1070
   271
1070
     3
1070
    78
1070
     8
1070
   177
1070
   140
1070
   176
1070
   140
1070
   178
1070
   140
1070
    40
1040
1.31235973448757
1070
   277
1070
     2
1002
}
  0
DIMENSION
  5
19D
330
1F
100
AcDbEntity
  8
Dimensions
100
AcDbDimension
280
     0
  2
*D23
 10
239.7189115413176
 20
18.99382499998271
 30
0.0
 11
231.7590385563673
 21
18.99382499998271
 31
0.0
 70
   163
 71
     5
 42
2.0
 73
     0
 74
     0
 75
     0
  3
ISO-25
100
AcDbDiametricDimension
 15
241.7189115413176
 25
18.99382499998271
 35
0.0
 40
0.0
1001
ACAD
1000
DSTYLE
1002
{
1070
   271
1070
     3
1070
    78
1070
     8
1070
   177
1070
   140
1070
   176
1070
   140
1070
   178
1070
   140
1070
    40
1040
1.31235973448757
1070
   277
1070
     2
1002
}
  0
DIMENSION
  5
1A6
330
1F
100
AcDbEntity
  8
Dimensions
100
AcDbDimension
280
     0
  2
*D24
 10
239.7189115413174
 20
9.94381499999999
 30
0.0
 11
231.7590385563671
 21
9.94381499999999
 31
0.0
 70
   163
 71
     5
 42
2.0
 73
     0
 74
     0
 75
     0
  3
ISO-25
100
AcDbDiametricDimension
 15
241.7189115413174
 25
9.94381499999999
 35
0.0
 40
0.0
1001
ACAD
1000
DSTYLE
1002
{
1070
   271
1070
     3
1070
    78
1070
     8
1070
   177
1070
   140
1070
   176
1070
   140
1070
   178
1070
   140
1070
    40
1040
1.31235973448757
1070
   277
1070
     2
1002
}
  0
DIMENSION
  5
1AF
330
1F
100
AcDbEntity
  8
Dimensions
100
AcDbDimension
280
     0
  2
*D25
 10
230.668138458681
 20
18.99401499999914
 30
0.0
 11
222.7082654737307
 21
18.99401499999914
 31
0.0
 70
   163
 71
     5
 42
2.0
 73
     0
 74
     0
 75
     0
  3
ISO-25
100
AcDbDiametricDimension
 15
232.668138458681
 25
18.99401499999914
 35
0.0
 40
0.0
1001
ACAD
1000
DSTYLE
1002
{
1070
   271
1070
     3
1070
    78
1070
     8
1070
   177
1070
   140
1070
   176
1070
   140
1070
   178
1070
   140
1070
    40
1040
1.31235973448757
1070
   277
1070
     2
1002
}
  0
DIMENSION
  5
1B8
330
1F
100
AcDbEntity
  8
Dimensions
100
AcDbDimension
280
     0
  2
*D26
 10
239.7188780703707
 20
-60.58839873669005
 30
0.0
 11
231.7590050854204
 21
-60.58839873669005
 31
0.0
 70
   163
 71
     5
 42
2.0
 73
     0
 74
     0
 75
     0
  3
ISO-25
100
AcDbDiametricDimension
 15
241.7188780703707
 25
-60.58839873669005
 35
0.0
 40
0.0
1001
ACAD
1000
DSTYLE
1002
{
1070
   271
1070
     3
1070
    78
1070
     8
1070
   177
1070
   140
1070
   176
1070
   140
1070
   178
1070
   140
1070
    40
1040
1.31235973448757
1070
   277
1070
     2
1002
}
  0
DIMENSION
  5
1C1
330
1F
100
AcDbEntity
  8
Dimensions
100
AcDbDimension
280
     0
  2
*D27
 10
124.655963458681
 20
18.99401500018794
 30
0.0
 11
116.6960904737307
 21
18.99401500018794
 31
0.0
 70
   163
 71
     5
 42
2.0
 73
     0
 74
     0
 75
     0
  3
ISO-25
100
AcDbDiametricDimension
 15
126.655963458681
 25
18.99401500018794
 35
0.0
 40
0.0
1001
ACAD
1000
DSTYLE
1002
{
1070
   271
1070
     3
1070
    78
1070
     8
1070
   177
1070
   140
1070
   176
1070
   140
1070
   178
1070
   140
1070
    40
1040
1.31235973448757
1070
   277
1070
     2
1002
}
  0
DIMENSION
  5
1CA
330
1F
100
AcDbEntity
  8
Dimensions
100
AcDbDimension
280
     0
  2
*D28
 10
18.64378759132422
 20
-60.50452340484406
 30
0.0
 11
10.68391460637392
 21
-60.50452340484406
 31
0.0
 70
   163
 71
     5
 42
2.0
 73
     0
 74
     0
 75
     0
  3
ISO-25
100
AcDbDiametricDimension
 15
20.64378759132422
 25
-60.50452340484406
 35
0.0
 40
0.0
1001
ACAD
1000
DSTYLE
1002
{
1070
   271
1070
     3
1070
    78
1070
     8
1070
   177
1070
   140
1070
   176
1070
   140
1070
   178
1070
   140
1070
    40
1040
1.31235973448757
1070
   277
1070
     2
1002
}
  0
DIMENSION
  5
1D3
330
1F
100
AcDbEntity
  8
Dimensions
100
AcDbDimension
280
     0
  2
*D29
 10
18.64378845868098
 20
9.94381499999903
 30
0.0
 11
10.68391547373067
 21
9.94381499999903
 31
0.0
 70
   163
 71
     5
 42
2.0
 73
     0
 74
     0
 75
     0
  3
ISO-25
100
AcDbDiametricDimension
 15
20.64378845868098
 25
9.94381499999903
 35
0.0
 40
0.0
1001
ACAD
1000
DSTYLE
1002
{
1070
   271
1070
     3
1070
    78
1070
     8
1070
   177
1070
   140
1070
   176
1070
   140
1070
   178
1070
   140
1070
    40
1040
1.31235973448757
1070
   277
1070
     2
1002
}
  0
DIMENSION
  5
1DC
330
1F
100
AcDbEntity
  8
Dimensions
100
AcDbDimension
280
     0
  2
*D30
 10
18.64378845868098
 20
18.99401499999907
 30
0.0
 11
10.68391547373067
 21
18.99401499999907
 31
0.0
 70
   163
 71
     5
 42
2.0
 73
     0
 74
     0
 75
     0
  3
ISO-25
100
AcDbDiametricDimension
 15
20.64378845868098
 25
18.99401499999907
 35
0.0
 40
0.0
1001
ACAD
1000
DSTYLE
1002
{
1070
   271
1070
     3
1070
    78
1070
     8
1070
   177
1070
   140
1070
   176
1070
   140
1070
   178
1070
   140
1070
    40
1040
1.31235973448757
1070
   277
1070
     2
1002
}
  0
ENDSEC
  0
SECTION
  2
OBJECTS
  0
DICTIONARY
  5
C
330
0
100
AcDbDictionary
281
     1
  3
ACAD_DETAILVIEWSTYLE
350
21C
  3
ACAD_GROUP
350
D
  3
ACAD_LAYOUT
350
1A
  3
ACAD_MATERIAL
350
43
  3
ACAD_MLEADERSTYLE
350
5B
  3
ACAD_MLINESTYLE
350
17
  3
ACAD_PLOTSETTINGS
350
19
  3
ACAD_PLOTSTYLENAME
350
E
  3
ACAD_SCALELIST
350
47
  3
ACAD_SECTIONVIEWSTYLE
350
21D
  3
ACAD_TABLESTYLE
350
59
  3
ACAD_VISUALSTYLE
350
2A
  3
ACDB_RECOMPOSE_DATA
350
219
  3
AcDbVariableDictionary
350
1E5
  0
SUN
  5
5D
330
29
100
AcDbSun
 90
        1
290
     0
 63
     7
421
 16777215
 40
1.0
291
     1
 91
  2455826
 92
 54000000
292
     0
 70
     2
 71
   256
280
     1
  0
DICTIONARY
  5
21C
102
{ACAD_REACTORS
330
C
102
}
330
C
100
AcDbDictionary
281
     1
  0
DICTIONARY
  5
D
102
{ACAD_REACTORS
330
C
102
}
330
C
100
AcDbDictionary
281
     1
  0
DICTIONARY
  5
1A
102
{ACAD_REACTORS
330
C
102
}
330
C
100
AcDbDictionary
281
     1
  3
Layout1
350
1E
  3
Layout2
350
26
  3
Model
350
22
  0
DICTIONARY
  5
43
102
{ACAD_REACTORS
330
C
102
}
330
C
100
AcDbDictionary
281
     1
  3
ByBlock
350
45
  3
ByLayer
350
44
  3
Global
350
46
  0
DICTIONARY
  5
5B
102
{ACAD_REACTORS
330
C
102
}
330
C
100
AcDbDictionary
281
     1
  3
Standard
350
5C
  0
DICTIONARY
  5
17
102
{ACAD_REACTORS
330
C
102
}
330
C
100
AcDbDictionary
281
     1
  3
Standard
350
18
  0
DICTIONARY
  5
19
102
{ACAD_REACTORS
330
C
102
}
330
C
100
AcDbDictionary
281
     1
  0
ACDBDICTIONARYWDFLT
  5
E
102
{ACAD_REACTORS
330
C
102
}
330
C
100
AcDbDictionary
281
     1
  3
Normal
350
F
100
AcDbDictionaryWithDefault
340
F
  0
DICTIONARY
  5
47
102
{ACAD_REACTORS
330
C
102
}
330
C
100
AcDbDictionary
281
     1
  3
A0
350
48
  3
A1
350
49
  3
A2
350
4A
  3
A3
350
4B
  3
A4
350
4C
  3
A5
350
4D
  3
A6
350
4E
  3
A7
350
4F
  3
A8
350
50
  3
A9
350
51
  3
B0
350
52
  3
B1
350
53
  3
B2
350
54
  3
B3
350
55
  3
B4
350
56
  3
B5
350
57
  3
B6
350
58
  0
DICTIONARY
  5
21D
102
{ACAD_REACTORS
330
C
102
}
330
C
100
AcDbDictionary
281
     1
  0
DICTIONARY
  5
59
102
{ACAD_REACTORS
330
C
102
}
330
C
100
AcDbDictionary
281
     1
  3
Standard
350
5A
  0
DICTIONARY
  5
2A
102
{ACAD_REACTORS
330
C
102
}
330
C
100
AcDbDictionary
281
     1
  3
2dWireframe
350
2F
  3
Basic
350
32
  3
Brighten
350
36
  3
ColorChange
350
3A
  3
Conceptual
350
34
  3
Dim
350
35
  3
EdgeColorOff
350
3D
  3
Facepattern
350
39
  3
Flat
350
2B
  3
FlatWithEdges
350
2C
  3
Gouraud
350
2D
  3
GouraudWithEdges
350
2E
  3
Hidden
350
31
  3
JitterOff
350
3B
  3
Linepattern
350
38
  3
OverhangOff
350
3C
  3
Realistic
350
33
  3
Shaded
350
42
  3
Shaded with edges
350
41
  3
Shades of Gray
350
3E
  3
Sketchy
350
3F
  3
Thicken
350
37
  3
Wireframe
350
30
  3
X-Ray
350
40
  0
XRECORD
  5
219
102
{ACAD_REACTORS
330
C
102
}
330
C
100
AcDbXrecord
280
     1
 90
        1
330
5A
  0
DICTIONARY
  5
1E5
102
{ACAD_REACTORS
330
C
102
}
330
C
100
AcDbDictionary
281
     1
  3
CANNOSCALE
350
1E6
  3
CENTEREXE
350
21E
  3
CENTERLTYPEFILE
350
21F
  3
CMLEADERSTYLE
350
21B
  3
CTABLESTYLE
350
21A
  0
LAYOUT
  5
1E
102
{ACAD_REACTORS
330
1A
102
}
330
1A
100
AcDbPlotSettings
  1

  2
none_device
  4

  6

 40
0.0
 41
0.0
 42
0.0
 43
0.0
 44
0.0
 45
0.0
 46
0.0
 47
0.0
 48
0.0
 49
0.0
140
0.0
141
0.0
142
1.0
143
1.0
 70
   688
 72
     1
 73
     0
 74
     5
  7

 75
    16
 76
     0
 77
     2
 78
   300
147
1.0
148
0.0
149
0.0
100
AcDbLayout
  1
Layout1
 70
     1
 71
     1
 10
0.0
 20
0.0
 11
420.0
 21
297.0
 12
0.0
 22
0.0
 32
0.0
 14
1.000000000000000E+20
 24
1.000000000000000E+20
 34
1.000000000000000E+20
 15
-1.000000000000000E+20
 25
-1.000000000000000E+20
 35
-1.000000000000000E+20
146
0.0
 13
0.0
 23
0.0
 33
0.0
 16
1.0
 26
0.0
 36
0.0
 17
0.0
 27
1.0
 37
0.0
 76
     0
330
1B
  0
LAYOUT
  5
26
102
{ACAD_REACTORS
330
1A
102
}
330
1A
100
AcDbPlotSettings
  1

  2
none_device
  4

  6

 40
0.0
 41
0.0
 42
0.0
 43
0.0
 44
0.0
 45
0.0
 46
0.0
 47
0.0
 48
0.0
 49
0.0
140
0.0
141
0.0
142
1.0
143
1.0
 70
   688
 72
     1
 73
     0
 74
     5
  7

 75
    16
 76
     0
 77
     2
 78
   300
147
1.0
148
0.0
149
0.0
100
AcDbLayout
  1
Layout2
 70
     1
 71
     2
 10
0.0
 20
0.0
 11
0.0
 21
0.0
 12
0.0
 22
0.0
 32
0.0
 14
0.0
 24
0.0
 34
0.0
 15
0.0
 25
0.0
 35
0.0
146
0.0
 13
0.0
 23
0.0
 33
0.0
 16
1.0
 26
0.0
 36
0.0
 17
0.0
 27
1.0
 37
0.0
 76
     0
330
23
  0
LAYOUT
  5
22
102
{ACAD_REACTORS
330
1A
102
}
330
1A
100
AcDbPlotSettings
  1

  2
none_device
  4
Letter_(8.50_x_11.00_Inches)
  6

 40
6.35
 41
6.35
 42
6.35000508
 43
6.35000508
 44
215.9
 45
279.4
 46
0.0
 47
0.0
 48
0.0
 49
0.0
140
0.0
141
0.0
142
1.0
143
1.0
 70
  1712
 72
     1
 73
     0
 74
     0
  7

 75
     0
 76
     0
 77
     2
 78
   300
147
1.0
148
0.0
149
0.0
100
AcDbLayout
  1
Model
 70
     1
 71
     0
 10
0.0
 20
0.0
 11
420.0
 21
297.0
 12
0.0
 22
0.0
 32
0.0
 14
1.000000000000000E+20
 24
1.000000000000000E+20
 34
1.000000000000000E+20
 15
-1.000000000000000E+20
 25
-1.000000000000000E+20
 35
-1.000000000000000E+20
146
0.0
 13
0.0
 23
0.0
 33
0.0
 16
1.0
 26
0.0
 36
0.0
 17
0.0
 27
1.0
 37
0.0
 76
     0
330
1F
331
29
  0
MATERIAL
  5
45
102
{ACAD_REACTORS
330
43
102
}
330
43
100
AcDbMaterial
  1
ByBlock
 72
     1
 94
      127
  0
MATERIAL
  5
44
102
{ACAD_REACTORS
330
43
102
}
330
43
100
AcDbMaterial
  1
ByLayer
 72
     1
 94
      127
  0
MATERIAL
  5
46
102
{ACAD_REACTORS
330
43
102
}
330
43
100
AcDbMaterial
  1
Global
 72
     1
 94
      127
  0
MLEADERSTYLE
  5
5C
102
{ACAD_REACTORS
330
5B
102
}
330
5B
100
AcDbMLeaderStyle
179
     2
170
     2
171
     1
172
     0
 90
        2
 40
0.0
 41
0.0
173
     1
 91
-1056964608
340
14
 92
       -2
290
     1
 42
2.0
291
     1
 43
8.0
  3
Standard
341
0
 44
4.0
300

342
11
174
     1
178
     6
175
     1
176
     0
 93
-1056964608
 45
4.0
292
     0
297
     0
 46
4.0
343
0
 94
-1056964608
 47
1.0
 49
1.0
140
1.0
293
     1
141
0.0
294
     1
177
     0
142
1.0
295
     0
296
     0
143
3.75
271
     0
272
     9
273
     9
  0
MLINESTYLE
  5
18
102
{ACAD_REACTORS
330
17
102
}
330
17
100
AcDbMlineStyle
  2
Standard
 70
     0
  3

 62
   256
 51
90.0
 52
90.0
 71
     2
 49
0.5
 62
   256
  6
BYLAYER
 49
-0.5
 62
   256
  6
BYLAYER
  0
ACDBPLACEHOLDER
  5
F
102
{ACAD_REACTORS
330
E
102
}
330
E
  0
SCALE
  5
48
102
{ACAD_REACTORS
330
47
102
}
330
47
100
AcDbScale
 70
     0
300
1:1
140
1.0
141
1.0
290
     1
  0
SCALE
  5
49
102
{ACAD_REACTORS
330
47
102
}
330
47
100
AcDbScale
 70
     0
300
1:2
140
1.0
141
2.0
290
     0
  0
SCALE
  5
4A
102
{ACAD_REACTORS
330
47
102
}
330
47
100
AcDbScale
 70
     0
300
1:4
140
1.0
141
4.0
290
     0
  0
SCALE
  5
4B
102
{ACAD_REACTORS
330
47
102
}
330
47
100
AcDbScale
 70
     0
300
1:5
140
1.0
141
5.0
290
     0
  0
SCALE
  5
4C
102
{ACAD_REACTORS
330
47
102
}
330
47
100
AcDbScale
 70
     0
300
1:8
140
1.0
141
8.0
290
     0
  0
SCALE
  5
4D
102
{ACAD_REACTORS
330
47
102
}
330
47
100
AcDbScale
 70
     0
300
1:10
140
1.0
141
10.0
290
     0
  0
SCALE
  5
4E
102
{ACAD_REACTORS
330
47
102
}
330
47
100
AcDbScale
 70
     0
300
1:16
140
1.0
141
16.0
290
     0
  0
SCALE
  5
4F
102
{ACAD_REACTORS
330
47
102
}
330
47
100
AcDbScale
 70
     0
300
1:20
140
1.0
141
20.0
290
     0
  0
SCALE
  5
50
102
{ACAD_REACTORS
330
47
102
}
330
47
100
AcDbScale
 70
     0
300
1:30
140
1.0
141
30.0
290
     0
  0
SCALE
  5
51
102
{ACAD_REACTORS
330
47
102
}
330
47
100
AcDbScale
 70
     0
300
1:40
140
1.0
141
40.0
290
     0
  0
SCALE
  5
52
102
{ACAD_REACTORS
330
47
102
}
330
47
100
AcDbScale
 70
     0
300
1:50
140
1.0
141
50.0
290
     0
  0
SCALE
  5
53
102
{ACAD_REACTORS
330
47
102
}
330
47
100
AcDbScale
 70
     0
300
1:100
140
1.0
141
100.0
290
     0
  0
SCALE
  5
54
102
{ACAD_REACTORS
330
47
102
}
330
47
100
AcDbScale
 70
     0
300
2:1
140
2.0
141
1.0
290
     0
  0
SCALE
  5
55
102
{ACAD_REACTORS
330
47
102
}
330
47
100
AcDbScale
 70
     0
300
4:1
140
4.0
141
1.0
290
     0
  0
SCALE
  5
56
102
{ACAD_REACTORS
330
47
102
}
330
47
100
AcDbScale
 70
     0
300
8:1
140
8.0
141
1.0
290
     0
  0
SCALE
  5
57
102
{ACAD_REACTORS
330
47
102
}
330
47
100
AcDbScale
 70
     0
300
10:1
140
10.0
141
1.0
290
     0
  0
SCALE
  5
58
102
{ACAD_REACTORS
330
47
102
}
330
47
100
AcDbScale
 70
     0
300
100:1
140
100.0
141
1.0
290
     0
  0
TABLESTYLE
  5
5A
102
{ACAD_REACTORS
330
59
102
}
102
{ACAD_XDICTIONARY
360
217
102
}
330
59
100
AcDbTableStyle
  3
Standard
 70
     0
 71
     0
 40
0.06
 41
0.06
280
     0
281
     0
  7
Standard
140
4.5
170
     2
 62
     0
 63
   257
283
     0
 90
        4
 91
        0
  1

274
    -2
284
     1
 64
     0
275
    -2
285
     1
 65
     0
276
    -2
286
     1
 66
     0
277
    -2
287
     1
 67
     0
278
    -2
288
     1
 68
     0
279
    -2
289
     1
 69
     0
  7
Standard
140
6.0
170
     5
 62
     0
 63
   257
283
     0
 90
        4
 91
        0
  1

274
    -2
284
     1
 64
     0
275
    -2
285
     1
 65
     0
276
    -2
286
     1
 66
     0
277
    -2
287
     1
 67
     0
278
    -2
288
     1
 68
     0
279
    -2
289
     1
 69
     0
  7
Standard
140
4.5
170
     5
 62
     0
 63
   257
283
     0
 90
        4
 91
        0
  1

274
    -2
284
     1
 64
     0
275
    -2
285
     1
 65
     0
276
    -2
286
     1
 66
     0
277
    -2
287
     1
 67
     0
278
    -2
288
     1
 68
     0
279
    -2
289
     1
 69
     0
  0
VISUALSTYLE
  5
2F
102
{ACAD_REACTORS
330
2A
102
}
102
{ACAD_XDICTIONARY
360
1EF
102
}
330
2A
100
AcDbVisualStyle
  2
2dWireframe
 70
     4
177
     2
291
     0
 71
     0
176
     1
 72
     2
176
     1
 73
     0
176
     1
 90
        0
176
     1
 40
0.6
176
     1
 41
30.0
176
     1
 62
     5
 63
     7
421
 16777215
176
     1
 74
     1
176
     1
 91
        4
176
     1
 64
     7
176
     1
 65
   257
176
     1
 75
     1
176
     1
175
     1
176
     1
 42
1.0
176
     1
 92
        0
176
     1
 66
   257
176
     1
 43
1.0
176
     1
 76
     1
176
     1
 77
     6
176
     1
 78
     2
176
     1
 67
     7
176
     1
 79
     5
176
     1
170
     0
176
     1
171
     0
176
     1
290
     0
176
     1
 93
        1
176
     1
 44
0.0
176
     1
173
     0
176
     1
  0
VISUALSTYLE
  5
32
102
{ACAD_REACTORS
330
2A
102
}
102
{ACAD_XDICTIONARY
360
1F5
102
}
330
2A
100
AcDbVisualStyle
  2
Basic
 70
     7
177
     2
291
     1
 71
     1
176
     1
 72
     0
176
     1
 73
     1
176
     1
 90
        0
176
     1
 40
0.6
176
     1
 41
30.0
176
     1
 62
     5
 63
     7
421
 16777215
176
     1
 74
     0
176
     1
 91
        4
176
     1
 64
     7
176
     1
 65
   257
176
     1
 75
     1
176
     1
175
     1
176
     1
 42
1.0
176
     1
 92
        8
176
     1
 66
     7
176
     1
 43
1.0
176
     1
 76
     1
176
     1
 77
     6
176
     1
 78
     2
176
     1
 67
     7
176
     1
 79
     5
176
     1
170
     0
176
     1
171
     0
176
     1
290
     0
176
     1
 93
        1
176
     1
 44
0.0
176
     1
173
     0
176
     1
  0
VISUALSTYLE
  5
36
102
{ACAD_REACTORS
330
2A
102
}
102
{ACAD_XDICTIONARY
360
1FD
102
}
330
2A
100
AcDbVisualStyle
  2
Brighten
 70
    12
177
     2
291
     1
 71
     2
176
     1
 72
     2
176
     1
 73
     0
176
     1
 90
        0
176
     1
 40
0.6
176
     1
 41
30.0
176
     1
 62
     5
 63
     7
421
 16777215
176
     1
 74
     1
176
     1
 91
        4
176
     1
 64
     7
176
     1
 65
   257
176
     1
 75
     1
176
     1
175
     1
176
     1
 42
1.0
176
     1
 92
        8
176
     1
 66
     7
176
     1
 43
1.0
176
     1
 76
     1
176
     1
 77
     6
176
     1
 78
     2
176
     1
 67
     7
176
     1
 79
     5
176
     1
170
     0
176
     1
171
     0
176
     1
290
     0
176
     1
 93
        1
176
     1
 44
50.0
176
     1
173
     0
176
     1
  0
VISUALSTYLE
  5
3A
102
{ACAD_REACTORS
330
2A
102
}
102
{ACAD_XDICTIONARY
360
205
102
}
330
2A
100
AcDbVisualStyle
  2
ColorChange
 70
    16
177
     2
291
     1
 71
     2
176
     1
 72
     2
176
     1
 73
     3
176
     1
 90
        0
176
     1
 40
0.6
176
     1
 41
30.0
176
     1
 62
     5
 63
     8
421
  8421504
176
     1
 74
     1
176
     1
 91
        4
176
     1
 64
     7
176
     1
 65
   257
176
     1
 75
     1
176
     1
175
     1
176
     1
 42
1.0
176
     1
 92
        8
176
     1
 66
     8
424
  8421504
176
     1
 43
1.0
176
     1
 76
     1
176
     1
 77
     6
176
     1
 78
     2
176
     1
 67
     7
176
     1
 79
     5
176
     1
170
     0
176
     1
171
     0
176
     1
290
     0
176
     1
 93
        1
176
     1
 44
0.0
176
     1
173
     0
176
     1
  0
VISUALSTYLE
  5
34
102
{ACAD_REACTORS
330
2A
102
}
102
{ACAD_XDICTIONARY
360
1F9
102
}
330
2A
100
AcDbVisualStyle
  2
Conceptual
 70
     9
177
     2
291
     0
 71
     3
176
     1
 72
     2
176
     1
 73
     0
176
     1
 90
        0
176
     1
 40
0.6
176
     1
 41
30.0
176
     1
 62
     5
 63
     7
421
 16777215
176
     1
 74
     2
176
     1
 91
        2
176
     1
 64
     7
176
     1
 65
   257
176
     1
 75
     1
176
     1
175
     1
176
     1
 42
179.0
176
     1
 92
        8
176
     1
 66
     7
176
     1
 43
1.0
176
     1
 76
     1
176
     1
 77
     6
176
     1
 78
     2
176
     1
 67
     7
176
     1
 79
     3
176
     1
170
     0
176
     1
171
     0
176
     1
290
     0
176
     1
 93
        1
176
     1
 44
0.0
176
     1
173
     0
176
     1
  0
VISUALSTYLE
  5
35
102
{ACAD_REACTORS
330
2A
102
}
102
{ACAD_XDICTIONARY
360
1FB
102
}
330
2A
100
AcDbVisualStyle
  2
Dim
 70
    11
177
     2
291
     1
 71
     2
176
     1
 72
     2
176
     1
 73
     0
176
     1
 90
        0
176
     1
 40
0.6
176
     1
 41
30.0
176
     1
 62
     5
 63
     7
421
 16777215
176
     1
 74
     1
176
     1
 91
        4
176
     1
 64
     7
176
     1
 65
   257
176
     1
 75
     1
176
     1
175
     1
176
     1
 42
1.0
176
     1
 92
        8
176
     1
 66
     7
176
     1
 43
1.0
176
     1
 76
     1
176
     1
 77
     6
176
     1
 78
     2
176
     1
 67
     7
176
     1
 79
     5
176
     1
170
     0
176
     1
171
     0
176
     1
290
     0
176
     1
 93
        1
176
     1
 44
-50.0
176
     1
173
     0
176
     1
  0
VISUALSTYLE
  5
3D
102
{ACAD_REACTORS
330
2A
102
}
102
{ACAD_XDICTIONARY
360
20B
102
}
330
2A
100
AcDbVisualStyle
  2
EdgeColorOff
 70
    22
177
     2
291
     1
 71
     2
176
     0
 72
     2
176
     0
 73
     0
176
     0
 90
        0
176
     0
 40
0.6
176
     0
 41
30.0
176
     0
 62
     5
 63
     7
421
 16777215
176
     0
 74
     1
176
     0
 91
        4
176
     0
 64
     7
176
     0
 65
   257
176
     0
 75
     1
176
     0
175
     1
176
     0
 42
1.0
176
     0
 92
        8
176
     2
 66
     7
176
     0
 43
1.0
176
     0
 76
     1
176
     0
 77
     6
176
     0
 78
     2
176
     0
 67
     7
176
     0
 79
     5
176
     0
170
     0
176
     0
171
     0
176
     0
290
     0
176
     0
 93
        1
176
     0
 44
0.0
176
     0
173
     0
176
     0
  0
VISUALSTYLE
  5
39
102
{ACAD_REACTORS
330
2A
102
}
102
{ACAD_XDICTIONARY
360
203
102
}
330
2A
100
AcDbVisualStyle
  2
Facepattern
 70
    15
177
     2
291
     1
 71
     2
176
     1
 72
     2
176
     1
 73
     0
176
     1
 90
        0
176
     1
 40
0.6
176
     1
 41
30.0
176
     1
 62
     5
 63
     7
421
 16777215
176
     1
 74
     1
176
     1
 91
        4
176
     1
 64
     7
176
     1
 65
   257
176
     1
 75
     1
176
     1
175
     1
176
     1
 42
1.0
176
     1
 92
        8
176
     1
 66
     7
176
     1
 43
1.0
176
     1
 76
     1
176
     1
 77
     6
176
     1
 78
     2
176
     1
 67
     7
176
     1
 79
     5
176
     1
170
     0
176
     1
171
     0
176
     1
290
     0
176
     1
 93
        1
176
     1
 44
0.0
176
     1
173
     0
176
     1
  0
VISUALSTYLE
  5
2B
102
{ACAD_REACTORS
330
2A
102
}
102
{ACAD_XDICTIONARY
360
1E7
102
}
330
2A
100
AcDbVisualStyle
  2
Flat
 70
     0
177
     2
291
     1
 71
     2
176
     1
 72
     1
176
     1
 73
     1
176
     1
 90
        2
176
     1
 40
0.6
176
     1
 41
30.0
176
     1
 62
     5
 63
     7
421
 16777215
176
     1
 74
     0
176
     1
 91
        0
176
     1
 64
     7
176
     1
 65
   257
176
     1
 75
     1
176
     1
175
     1
176
     1
 42
1.0
176
     1
 92
        8
176
     1
 66
     7
176
     1
 43
1.0
176
     1
 76
     1
176
     1
 77
     6
176
     1
 78
     2
176
     1
 67
     7
176
     1
 79
     5
176
     1
170
     0
176
     1
171
     0
176
     1
290
     0
176
     1
 93
       13
176
     1
 44
0.0
176
     1
173
     0
176
     1
  0
VISUALSTYLE
  5
2C
102
{ACAD_REACTORS
330
2A
102
}
102
{ACAD_XDICTIONARY
360
1E9
102
}
330
2A
100
AcDbVisualStyle
  2
FlatWithEdges
 70
     1
177
     2
291
     1
 71
     2
176
     1
 72
     1
176
     1
 73
     1
176
     1
 90
        2
176
     1
 40
0.6
176
     1
 41
30.0
176
     1
 62
     5
 63
     7
421
 16777215
176
     1
 74
     1
176
     1
 91
        0
176
     1
 64
     7
176
     1
 65
   257
176
     1
 75
     1
176
     1
175
     1
176
     1
 42
1.0
176
     1
 92
        0
176
     1
 66
   257
176
     1
 43
1.0
176
     1
 76
     1
176
     1
 77
     6
176
     1
 78
     2
176
     1
 67
     7
176
     1
 79
     5
176
     1
170
     0
176
     1
171
     0
176
     1
290
     0
176
     1
 93
       13
176
     1
 44
0.0
176
     1
173
     0
176
     1
  0
VISUALSTYLE
  5
2D
102
{ACAD_REACTORS
330
2A
102
}
102
{ACAD_XDICTIONARY
360
1EB
102
}
330
2A
100
AcDbVisualStyle
  2
Gouraud
 70
     2
177
     2
291
     1
 71
     2
176
     1
 72
     2
176
     1
 73
     1
176
     1
 90
        2
176
     1
 40
0.6
176
     1
 41
30.0
176
     1
 62
     5
 63
     7
421
 16777215
176
     1
 74
     0
176
     1
 91
        0
176
     1
 64
     7
176
     1
 65
   257
176
     1
 75
     1
176
     1
175
     1
176
     1
 42
1.0
176
     1
 92
        0
176
     1
 66
     7
176
     1
 43
1.0
176
     1
 76
     1
176
     1
 77
     6
176
     1
 78
     2
176
     1
 67
     7
176
     1
 79
     5
176
     1
170
     0
176
     1
171
     0
176
     1
290
     0
176
     1
 93
       13
176
     1
 44
0.0
176
     1
173
     0
176
     1
  0
VISUALSTYLE
  5
2E
102
{ACAD_REACTORS
330
2A
102
}
102
{ACAD_XDICTIONARY
360
1ED
102
}
330
2A
100
AcDbVisualStyle
  2
GouraudWithEdges
 70
     3
177
     2
291
     1
 71
     2
176
     1
 72
     2
176
     1
 73
     1
176
     1
 90
        2
176
     1
 40
0.6
176
     1
 41
30.0
176
     1
 62
     5
 63
     7
421
 16777215
176
     1
 74
     1
176
     1
 91
        0
176
     1
 64
     7
176
     1
 65
   257
176
     1
 75
     1
176
     1
175
     1
176
     1
 42
1.0
176
     1
 92
        0
176
     1
 66
   257
176
     1
 43
1.0
176
     1
 76
     1
176
     1
 77
     6
176
     1
 78
     2
176
     1
 67
     7
176
     1
 79
     5
176
     1
170
     0
176
     1
171
     0
176
     1
290
     0
176
     1
 93
       13
176
     1
 44
0.0
176
     1
173
     0
176
     1
  0
VISUALSTYLE
  5
31
102
{ACAD_REACTORS
330
2A
102
}
102
{ACAD_XDICTIONARY
360
1F3
102
}
330
2A
100
AcDbVisualStyle
  2
Hidden
 70
     6
177
     2
291
     0
 71
     1
176
     1
 72
     2
176
     1
 73
     2
176
     1
 90
        0
176
     1
 40
0.6
176
     1
 41
30.0
176
     1
 62
     5
 63
     7
421
 16777215
176
     1
 74
     2
176
     1
 91
        2
176
     1
 64
     7
176
     1
 65
   257
176
     1
 75
     2
176
     1
175
     1
176
     1
 42
40.0
176
     1
 92
        0
176
     1
 66
   257
176
     1
 43
1.0
176
     1
 76
     1
176
     1
 77
     6
176
     1
 78
     2
176
     1
 67
     7
176
     1
 79
     3
176
     1
170
     0
176
     1
171
     0
176
     1
290
     0
176
     1
 93
        1
176
     1
 44
0.0
176
     1
173
     0
176
     1
  0
VISUALSTYLE
  5
3B
102
{ACAD_REACTORS
330
2A
102
}
102
{ACAD_XDICTIONARY
360
207
102
}
330
2A
100
AcDbVisualStyle
  2
JitterOff
 70
    20
177
     2
291
     1
 71
     2
176
     0
 72
     2
176
     0
 73
     0
176
     0
 90
        0
176
     0
 40
0.6
176
     0
 41
30.0
176
     0
 62
     5
 63
     7
421
 16777215
176
     0
 74
     1
176
     0
 91
        4
176
     0
 64
     7
176
     0
 65
   257
176
     0
 75
     1
176
     0
175
     1
176
     0
 42
1.0
176
     0
 92
       10
176
     2
 66
     7
176
     0
 43
1.0
176
     0
 76
     1
176
     0
 77
     6
176
     0
 78
     2
176
     0
 67
     7
176
     0
 79
     5
176
     0
170
     0
176
     0
171
     0
176
     0
290
     0
176
     0
 93
        1
176
     0
 44
0.0
176
     0
173
     0
176
     0
  0
VISUALSTYLE
  5
38
102
{ACAD_REACTORS
330
2A
102
}
102
{ACAD_XDICTIONARY
360
201
102
}
330
2A
100
AcDbVisualStyle
  2
Linepattern
 70
    14
177
     2
291
     1
 71
     2
176
     1
 72
     2
176
     1
 73
     0
176
     1
 90
        0
176
     1
 40
0.6
176
     1
 41
30.0
176
     1
 62
     5
 63
     7
421
 16777215
176
     1
 74
     1
176
     1
 91
        4
176
     1
 64
     7
176
     1
 65
   257
176
     1
 75
     7
176
     1
175
     7
176
     1
 42
1.0
176
     1
 92
        8
176
     1
 66
     7
176
     1
 43
1.0
176
     1
 76
     1
176
     1
 77
     6
176
     1
 78
     2
176
     1
 67
     7
176
     1
 79
     5
176
     1
170
     0
176
     1
171
     0
176
     1
290
     0
176
     1
 93
        1
176
     1
 44
0.0
176
     1
173
     0
176
     1
  0
VISUALSTYLE
  5
3C
102
{ACAD_REACTORS
330
2A
102
}
102
{ACAD_XDICTIONARY
360
209
102
}
330
2A
100
AcDbVisualStyle
  2
OverhangOff
 70
    21
177
     2
291
     1
 71
     2
176
     0
 72
     2
176
     0
 73
     0
176
     0
 90
        0
176
     0
 40
0.6
176
     0
 41
30.0
176
     0
 62
     5
 63
     7
421
 16777215
176
     0
 74
     1
176
     0
 91
        4
176
     0
 64
     7
176
     0
 65
   257
176
     0
 75
     1
176
     0
175
     1
176
     0
 42
1.0
176
     0
 92
        9
176
     2
 66
     7
176
     0
 43
1.0
176
     0
 76
     1
176
     0
 77
     6
176
     0
 78
     2
176
     0
 67
     7
176
     0
 79
     5
176
     0
170
     0
176
     0
171
     0
176
     0
290
     0
176
     0
 93
        1
176
     0
 44
0.0
176
     0
173
     0
176
     0
  0
VISUALSTYLE
  5
33
102
{ACAD_REACTORS
330
2A
102
}
102
{ACAD_XDICTIONARY
360
1F7
102
}
330
2A
100
AcDbVisualStyle
  2
Realistic
 70
     8
177
     2
291
     0
 71
     2
176
     1
 72
     3
176
     1
 73
     0
176
     1
 90
        2
176
     1
 40
0.6
176
     1
 41
30.0
176
     1
 62
     5
 63
     7
421
 16777215
176
     1
 74
     0
176
     1
 91
        0
176
     1
 64
     7
176
     1
 65
   257
176
     1
 75
     1
176
     1
175
     1
176
     1
 42
1.0
176
     1
 92
        8
176
     1
 66
   257
176
     1
 43
1.0
176
     1
 76
     1
176
     1
 77
     6
176
     1
 78
     2
176
     1
 67
     7
176
     1
 79
     3
176
     1
170
     0
176
     1
171
     0
176
     1
290
     0
176
     1
 93
       13
176
     1
 44
0.0
176
     1
173
     0
176
     1
  0
VISUALSTYLE
  5
42
102
{ACAD_REACTORS
330
2A
102
}
102
{ACAD_XDICTIONARY
360
215
102
}
330
2A
100
AcDbVisualStyle
  2
Shaded
 70
    27
177
     2
291
     0
 71
     2
176
     1
 72
     2
176
     1
 73
     1
176
     1
 90
        2
176
     1
 40
0.6
176
     1
 41
30.0
176
     1
 62
     5
 63
     7
421
 16777215
176
     1
 74
     0
176
     1
 91
        4
176
     1
 64
     7
176
     1
 65
   257
176
     1
 75
     1
176
     1
175
     1
176
     1
 42
1.0
176
     1
 92
        8
176
     1
 66
   257
176
     1
 43
1.0
176
     1
 76
     1
176
     1
 77
     6
176
     1
 78
     2
176
     1
 67
     8
425
  7895160
176
     1
 79
     3
176
     1
170
     0
176
     1
171
     0
176
     1
290
     0
176
     1
 93
        5
176
     1
 44
0.0
176
     1
173
     0
176
     1
  0
VISUALSTYLE
  5
41
102
{ACAD_REACTORS
330
2A
102
}
102
{ACAD_XDICTIONARY
360
213
102
}
330
2A
100
AcDbVisualStyle
  2
Shaded with edges
 70
    26
177
     2
291
     0
 71
     2
176
     1
 72
     2
176
     1
 73
     1
176
     1
 90
        2
176
     1
 40
0.6
176
     1
 41
30.0
176
     1
 62
     5
 63
     7
421
 16777215
176
     1
 74
     1
176
     1
 91
       10
176
     1
 64
     7
176
     1
 65
   257
176
     1
 75
     2
176
     1
175
     1
176
     1
 42
1.0
176
     1
 92
        8
176
     1
 66
   257
176
     1
 43
1.0
176
     1
 76
     1
176
     1
 77
     6
176
     1
 78
     2
176
     1
 67
     7
176
     1
 79
     3
176
     1
170
     0
176
     1
171
     0
176
     1
290
     0
176
     1
 93
        5
176
     1
 44
0.0
176
     1
173
     0
176
     1
  0
VISUALSTYLE
  5
3E
102
{ACAD_REACTORS
330
2A
102
}
102
{ACAD_XDICTIONARY
360
20D
102
}
330
2A
100
AcDbVisualStyle
  2
Shades of Gray
 70
    23
177
     2
291
     0
 71
     2
176
     1
 72
     2
176
     1
 73
     3
176
     1
 90
        0
176
     1
 40
0.6
176
     1
 41
30.0
176
     1
 62
     5
 63
     7
421
 16777215
176
     1
 74
     2
176
     1
 91
        2
176
     1
 64
     7
176
     1
 65
     7
176
     1
 75
     1
176
     1
175
     1
176
     1
 42
40.0
176
     1
 92
        8
176
     1
 66
     7
176
     1
 43
1.0
176
     1
 76
     1
176
     1
 77
     6
176
     1
 78
     2
176
     1
 67
     7
176
     1
 79
     3
176
     1
170
     0
176
     1
171
     0
176
     1
290
     0
176
     1
 93
        1
176
     1
 44
0.0
176
     1
173
     0
176
     1
  0
VISUALSTYLE
  5
3F
102
{ACAD_REACTORS
330
2A
102
}
102
{ACAD_XDICTIONARY
360
20F
102
}
330
2A
100
AcDbVisualStyle
  2
Sketchy
 70
    24
177
     2
291
     0
 71
     1
176
     1
 72
     2
176
     1
 73
     2
176
     1
 90
        0
176
     1
 40
0.6
176
     1
 41
30.0
176
     1
 62
     5
 63
     7
421
 16777215
176
     1
 74
     2
176
     1
 91
        2
176
     1
 64
     7
176
     1
 65
     7
176
     1
 75
     1
176
     1
175
     1
176
     1
 42
40.0
176
     1
 92
       11
176
     1
 66
     7
176
     1
 43
1.0
176
     1
 76
     1
176
     1
 77
     6
176
     1
 78
     2
176
     1
 67
     7
176
     1
 79
     6
176
     1
170
     0
176
     1
171
     0
176
     1
290
     0
176
     1
 93
        1
176
     1
 44
0.0
176
     1
173
     0
176
     1
  0
VISUALSTYLE
  5
37
102
{ACAD_REACTORS
330
2A
102
}
102
{ACAD_XDICTIONARY
360
1FF
102
}
330
2A
100
AcDbVisualStyle
  2
Thicken
 70
    13
177
     2
291
     1
 71
     2
176
     1
 72
     2
176
     1
 73
     0
176
     1
 90
        0
176
     1
 40
0.6
176
     1
 41
30.0
176
     1
 62
     5
 63
     7
421
 16777215
176
     1
 74
     1
176
     1
 91
        4
176
     1
 64
     7
176
     1
 65
   257
176
     1
 75
     1
176
     1
175
     1
176
     1
 42
1.0
176
     1
 92
       12
176
     1
 66
     7
176
     1
 43
1.0
176
     1
 76
     1
176
     1
 77
     6
176
     1
 78
     2
176
     1
 67
     7
176
     1
 79
     5
176
     1
170
     0
176
     1
171
     0
176
     1
290
     0
176
     1
 93
        1
176
     1
 44
0.0
176
     1
173
     0
176
     1
  0
VISUALSTYLE
  5
30
102
{ACAD_REACTORS
330
2A
102
}
102
{ACAD_XDICTIONARY
360
1F1
102
}
330
2A
100
AcDbVisualStyle
  2
Wireframe
 70
     5
177
     2
291
     0
 71
     0
176
     1
 72
     2
176
     1
 73
     0
176
     1
 90
        0
176
     1
 40
0.6
176
     1
 41
30.0
176
     1
 62
     5
 63
     7
421
 16777215
176
     1
 74
     1
176
     1
 91
        4
176
     1
 64
     7
176
     1
 65
   257
176
     1
 75
     1
176
     1
175
     1
176
     1
 42
1.0
176
     1
 92
        0
176
     1
 66
   257
176
     1
 43
1.0
176
     1
 76
     1
176
     1
 77
     6
176
     1
 78
     2
176
     1
 67
     7
176
     1
 79
     3
176
     1
170
     0
176
     1
171
     0
176
     1
290
     0
176
     1
 93
        1
176
     1
 44
0.0
176
     1
173
     0
176
     1
  0
VISUALSTYLE
  5
40
102
{ACAD_REACTORS
330
2A
102
}
102
{ACAD_XDICTIONARY
360
211
102
}
330
2A
100
AcDbVisualStyle
  2
X-Ray
 70
    25
177
     2
291
     0
 71
     2
176
     1
 72
     2
176
     1
 73
     1
176
     1
 90
        1
176
     1
 40
0.5
176
     1
 41
30.0
176
     1
 62
     5
 63
     7
421
 16777215
176
     1
 74
     1
176
     1
 91
        0
176
     1
 64
     7
176
     1
 65
   257
176
     1
 75
     1
176
     1
175
     1
176
     1
 42
1.0
176
     1
 92
        8
176
     1
 66
     7
176
     1
 43
1.0
176
     1
 76
     1
176
     1
 77
     6
176
     1
 78
     2
176
     1
 67
     7
176
     1
 79
     3
176
     1
170
     0
176
     1
171
     0
176
     1
290
     0
176
     1
 93
       13
176
     1
 44
0.0
176
     1
173
     0
176
     1
  0
DICTIONARYVAR
  5
1E6
102
{ACAD_REACTORS
330
1E5
102
}
330
1E5
100
DictionaryVariables
280
     0
  1
1:1
  0
DICTIONARYVAR
  5
21E
102
{ACAD_REACTORS
330
1E5
102
}
330
1E5
100
DictionaryVariables
280
     0
  1
3.500000
  0
DICTIONARYVAR
  5
21F
102
{ACAD_REACTORS
330
1E5
102
}
330
1E5
100
DictionaryVariables
280
     0
  1
acadiso.lin
  0
DICTIONARYVAR
  5
21B
102
{ACAD_REACTORS
330
1E5
102
}
330
1E5
100
DictionaryVariables
280
     0
  1
Standard
  0
DICTIONARYVAR
  5
21A
102
{ACAD_REACTORS
330
1E5
102
}
330
1E5
100
DictionaryVariables
280
     0
  1
Standard
  0
DICTIONARY
  5
217
330
5A
100
AcDbDictionary
280
     1
281
     1
  3
ACAD_ROUNDTRIP_2008_TABLESTYLE_CELLSTYLEMAP
360
218
  0
DICTIONARY
  5
1EF
330
2F
100
AcDbDictionary
280
     1
281
     1
  3
ACAD_XREC_ROUNDTRIP
360
1F0
  0
DICTIONARY
  5
1F5
330
32
100
AcDbDictionary
280
     1
281
     1
  3
ACAD_XREC_ROUNDTRIP
360
1F6
  0
DICTIONARY
  5
1FD
330
36
100
AcDbDictionary
280
     1
281
     1
  3
ACAD_XREC_ROUNDTRIP
360
1FE
  0
DICTIONARY
  5
205
330
3A
100
AcDbDictionary
280
     1
281
     1
  3
ACAD_XREC_ROUNDTRIP
360
206
  0
DICTIONARY
  5
1F9
330
34
100
AcDbDictionary
280
     1
281
     1
  3
ACAD_XREC_ROUNDTRIP
360
1FA
  0
DICTIONARY
  5
1FB
330
35
100
AcDbDictionary
280
     1
281
     1
  3
ACAD_XREC_ROUNDTRIP
360
1FC
  0
DICTIONARY
  5
20B
330
3D
100
AcDbDictionary
280
     1
281
     1
  3
ACAD_XREC_ROUNDTRIP
360
20C
  0
DICTIONARY
  5
203
330
39
100
AcDbDictionary
280
     1
281
     1
  3
ACAD_XREC_ROUNDTRIP
360
204
  0
DICTIONARY
  5
1E7
330
2B
100
AcDbDictionary
280
     1
281
     1
  3
ACAD_XREC_ROUNDTRIP
360
1E8
  0
DICTIONARY
  5
1E9
330
2C
100
AcDbDictionary
280
     1
281
     1
  3
ACAD_XREC_ROUNDTRIP
360
1EA
  0
DICTIONARY
  5
1EB
330
2D
100
AcDbDictionary
280
     1
281
     1
  3
ACAD_XREC_ROUNDTRIP
360
1EC
  0
DICTIONARY
  5
1ED
330
2E
100
AcDbDictionary
280
     1
281
     1
  3
ACAD_XREC_ROUNDTRIP
360
1EE
  0
DICTIONARY
  5
1F3
330
31
100
AcDbDictionary
280
     1
281
     1
  3
ACAD_XREC_ROUNDTRIP
360
1F4
  0
DICTIONARY
  5
207
330
3B
100
AcDbDictionary
280
     1
281
     1
  3
ACAD_XREC_ROUNDTRIP
360
208
  0
DICTIONARY
  5
201
330
38
100
AcDbDictionary
280
     1
281
     1
  3
ACAD_XREC_ROUNDTRIP
360
202
  0
DICTIONARY
  5
209
330
3C
100
AcDbDictionary
280
     1
281
     1
  3
ACAD_XREC_ROUNDTRIP
360
20A
  0
DICTIONARY
  5
1F7
330
33
100
AcDbDictionary
280
     1
281
     1
  3
ACAD_XREC_ROUNDTRIP
360
1F8
  0
DICTIONARY
  5
215
330
42
100
AcDbDictionary
280
     1
281
     1
  3
ACAD_XREC_ROUNDTRIP
360
216
  0
DICTIONARY
  5
213
330
41
100
AcDbDictionary
280
     1
281
     1
  3
ACAD_XREC_ROUNDTRIP
360
214
  0
DICTIONARY
  5
20D
330
3E
100
AcDbDictionary
280
     1
281
     1
  3
ACAD_XREC_ROUNDTRIP
360
20E
  0
DICTIONARY
  5
20F
330
3F
100
AcDbDictionary
280
     1
281
     1
  3
ACAD_XREC_ROUNDTRIP
360
210
  0
DICTIONARY
  5
1FF
330
37
100
AcDbDictionary
280
     1
281
     1
  3
ACAD_XREC_ROUNDTRIP
360
200
  0
DICTIONARY
  5
1F1
330
30
100
AcDbDictionary
280
     1
281
     1
  3
ACAD_XREC_ROUNDTRIP
360
1F2
  0
DICTIONARY
  5
211
330
40
100
AcDbDictionary
280
     1
281
     1
  3
ACAD_XREC_ROUNDTRIP
360
212
  0
CELLSTYLEMAP
  5
218
102
{ACAD_REACTORS
330
217
102
}
330
217
100
AcDbCellStyleMap
 90
        3
300
CELLSTYLE
  1
TABLEFORMAT_BEGIN
 90
        5
170
     1
 91
        0
 92
    32768
 62
   257
 93
        1
300
CONTENTFORMAT
  1
CONTENTFORMAT_BEGIN
 90
        0
 91
        0
 92
        4
 93
        0
300

 40
0.0
140
1.0
 94
        5
 62
     0
340
11
144
6.0
309
CONTENTFORMAT_END
171
     1
301
MARGIN
  1
CELLMARGIN_BEGIN
 40
1.5
 40
1.5
 40
1.5
 40
1.5
 40
1.5
 40
1.5
309
CELLMARGIN_END
 94
        6
 95
        1
302
GRIDFORMAT
  1
GRIDFORMAT_BEGIN
 90
        0
 91
        1
 62
     0
 92
       -2
340
14
 93
        0
 40
0.045
309
GRIDFORMAT_END
 95
        2
302
GRIDFORMAT
  1
GRIDFORMAT_BEGIN
 90
        0
 91
        1
 62
     0
 92
       -2
340
14
 93
        0
 40
0.045
309
GRIDFORMAT_END
 95
        4
302
GRIDFORMAT
  1
GRIDFORMAT_BEGIN
 90
        0
 91
        1
 62
     0
 92
       -2
340
14
 93
        0
 40
0.045
309
GRIDFORMAT_END
 95
        8
302
GRIDFORMAT
  1
GRIDFORMAT_BEGIN
 90
        0
 91
        1
 62
     0
 92
       -2
340
14
 93
        0
 40
0.045
309
GRIDFORMAT_END
 95
       16
302
GRIDFORMAT
  1
GRIDFORMAT_BEGIN
 90
        0
 91
        1
 62
     0
 92
       -2
340
14
 93
        0
 40
0.045
309
GRIDFORMAT_END
 95
       32
302
GRIDFORMAT
  1
GRIDFORMAT_BEGIN
 90
        0
 91
        1
 62
     0
 92
       -2
340
14
 93
        0
 40
0.045
309
GRIDFORMAT_END
309
TABLEFORMAT_END
  1
CELLSTYLE_BEGIN
 90
        1
 91
        1
300
_TITLE
309
CELLSTYLE_END
300
CELLSTYLE
  1
TABLEFORMAT_BEGIN
 90
        5
170
     1
 91
        0
 92
        0
 62
   257
 93
        1
300
CONTENTFORMAT
  1
CONTENTFORMAT_BEGIN
 90
        0
 91
        0
 92
        4
 93
        0
300

 40
0.0
140
1.0
 94
        5
 62
     0
340
11
144
4.5
309
CONTENTFORMAT_END
171
     1
301
MARGIN
  1
CELLMARGIN_BEGIN
 40
1.5
 40
1.5
 40
1.5
 40
1.5
 40
1.5
 40
1.5
309
CELLMARGIN_END
 94
        6
 95
        1
302
GRIDFORMAT
  1
GRIDFORMAT_BEGIN
 90
        0
 91
        1
 62
     0
 92
       -2
340
14
 93
        0
 40
0.045
309
GRIDFORMAT_END
 95
        2
302
GRIDFORMAT
  1
GRIDFORMAT_BEGIN
 90
        0
 91
        1
 62
     0
 92
       -2
340
14
 93
        0
 40
0.045
309
GRIDFORMAT_END
 95
        4
302
GRIDFORMAT
  1
GRIDFORMAT_BEGIN
 90
        0
 91
        1
 62
     0
 92
       -2
340
14
 93
        0
 40
0.045
309
GRIDFORMAT_END
 95
        8
302
GRIDFORMAT
  1
GRIDFORMAT_BEGIN
 90
        0
 91
        1
 62
     0
 92
       -2
340
14
 93
        0
 40
0.045
309
GRIDFORMAT_END
 95
       16
302
GRIDFORMAT
  1
GRIDFORMAT_BEGIN
 90
        0
 91
        1
 62
     0
 92
       -2
340
14
 93
        0
 40
0.045
309
GRIDFORMAT_END
 95
       32
302
GRIDFORMAT
  1
GRIDFORMAT_BEGIN
 90
        0
 91
        1
 62
     0
 92
       -2
340
14
 93
        0
 40
0.045
309
GRIDFORMAT_END
309
TABLEFORMAT_END
  1
CELLSTYLE_BEGIN
 90
        2
 91
        1
300
_HEADER
309
CELLSTYLE_END
300
CELLSTYLE
  1
TABLEFORMAT_BEGIN
 90
        5
170
     1
 91
        0
 92
        0
 62
   257
 93
        1
300
CONTENTFORMAT
  1
CONTENTFORMAT_BEGIN
 90
        0
 91
        0
 92
        4
 93
        0
300

 40
0.0
140
1.0
 94
        2
 62
     0
340
11
144
4.5
309
CONTENTFORMAT_END
171
     1
301
MARGIN
  1
CELLMARGIN_BEGIN
 40
1.5
 40
1.5
 40
1.5
 40
1.5
 40
1.5
 40
1.5
309
CELLMARGIN_END
 94
        6
 95
        1
302
GRIDFORMAT
  1
GRIDFORMAT_BEGIN
 90
        0
 91
        1
 62
     0
 92
       -2
340
14
 93
        0
 40
0.045
309
GRIDFORMAT_END
 95
        2
302
GRIDFORMAT
  1
GRIDFORMAT_BEGIN
 90
        0
 91
        1
 62
     0
 92
       -2
340
14
 93
        0
 40
0.045
309
GRIDFORMAT_END
 95
        4
302
GRIDFORMAT
  1
GRIDFORMAT_BEGIN
 90
        0
 91
        1
 62
     0
 92
       -2
340
14
 93
        0
 40
0.045
309
GRIDFORMAT_END
 95
        8
302
GRIDFORMAT
  1
GRIDFORMAT_BEGIN
 90
        0
 91
        1
 62
     0
 92
       -2
340
14
 93
        0
 40
0.045
309
GRIDFORMAT_END
 95
       16
302
GRIDFORMAT
  1
GRIDFORMAT_BEGIN
 90
        0
 91
        1
 62
     0
 92
       -2
340
14
 93
        0
 40
0.045
309
GRIDFORMAT_END
 95
       32
302
GRIDFORMAT
  1
GRIDFORMAT_BEGIN
 90
        0
 91
        1
 62
     0
 92
       -2
340
14
 93
        0
 40
0.045
309
GRIDFORMAT_END
309
TABLEFORMAT_END
  1
CELLSTYLE_BEGIN
 90
        3
 91
        2
300
_DATA
309
CELLSTYLE_END
  0
XRECORD
  5
1F0
102
{ACAD_REACTORS
330
1EF
102
}
330
1EF
100
AcDbXrecord
280
     1
102
RTVSPost2010Prop28
280
     1
102
RTVSPost2010PropOp28
 70
     1
102
RTVSPost2010Prop29
280
     1
102
RTVSPost2010PropOp29
 70
     1
102
RTVSPost2010Prop30
280
     0
102
RTVSPost2010PropOp30
 70
     1
102
RTVSPost2010Prop31
280
     0
102
RTVSPost2010PropOp31
 70
     1
102
RTVSPost2010Prop32
280
     0
102
RTVSPost2010PropOp32
 70
     1
102
RTVSPost2010Prop33
280
     0
102
RTVSPost2010PropOp33
 70
     1
102
RTVSPost2010Prop34
280
     0
102
RTVSPost2010PropOp34
 70
     1
102
RTVSPost2010Prop35
280
     0
102
RTVSPost2010PropOp35
 70
     1
102
RTVSPost2010Prop36
280
     0
102
RTVSPost2010PropOp36
 70
     1
102
RTVSPost2010Prop37
 90
       50
102
RTVSPost2010PropOp37
 70
     1
102
RTVSPost2010Prop38
140
0.0
102
RTVSPost2010PropOp38
 70
     1
102
RTVSPost2010Prop39
140
1.0
102
RTVSPost2010PropOp39
 70
     1
102
RTVSPost2010Prop40
 90
        0
102
RTVSPost2010PropOp40
 70
     1
102
RTVSPost2010Prop41ColorIndex
 90
       18
102
RTVSPost2010Prop41ColorRGB
 90
        0
102
RTVSPost2010PropOp41
 70
     1
102
RTVSPost2010Prop42
 90
       50
102
RTVSPost2010PropOp42
 70
     1
102
RTVSPost2010Prop43
 90
        3
102
RTVSPost2010PropOp43
 70
     1
102
RTVSPost2010Prop44ColorIndex
 90
        5
102
RTVSPost2010Prop44ColorRGB
 90
      255
102
RTVSPost2010PropOp44
 70
     1
102
RTVSPost2010Prop45
280
     0
102
RTVSPost2010PropOp45
 70
     1
102
RTVSPost2010Prop46
 90
       50
102
RTVSPost2010PropOp46
 70
     1
102
RTVSPost2010Prop47
 90
       50
102
RTVSPost2010PropOp47
 70
     1
102
RTVSPost2010Prop48
 90
       50
102
RTVSPost2010PropOp48
 70
     1
102
RTVSPost2010Prop49
280
     0
102
RTVSPost2010PropOp49
 70
     1
102
RTVSPost2010Prop50
 90
       50
102
RTVSPost2010PropOp50
 70
     1
102
RTVSPost2010Prop51ColorIndex
 90
      256
102
RTVSPost2010Prop51ColorRGB
 90
-16777216
102
RTVSPost2010PropOp51
 70
     0
102
RTVSPost2010Prop52
140
1.0
102
RTVSPost2010PropOp52
 70
     0
102
RTVSPost2010Prop53
 90
        2
102
RTVSPost2010PropOp53
 70
     1
102
RTVSPost2010Prop54
  1
strokes_ogs.tif
102
RTVSPost2010PropOp54
 70
     1
102
RTVSPost2010Prop55
280
     0
102
RTVSPost2010PropOp55
 70
     1
102
RTVSPost2010Prop56
140
1.0
102
RTVSPost2010PropOp56
 70
     1
102
RTVSPost2010Prop57
140
1.0
102
RTVSPost2010PropOp57
 70
     1
  0
XRECORD
  5
1F6
102
{ACAD_REACTORS
330
1F5
102
}
330
1F5
100
AcDbXrecord
280
     1
102
RTVSPost2010Prop28
280
     0
102
RTVSPost2010PropOp28
 70
     1
102
RTVSPost2010Prop29
280
     1
102
RTVSPost2010PropOp29
 70
     1
102
RTVSPost2010Prop30
280
     1
102
RTVSPost2010PropOp30
 70
     1
102
RTVSPost2010Prop31
280
     0
102
RTVSPost2010PropOp31
 70
     1
102
RTVSPost2010Prop32
280
     0
102
RTVSPost2010PropOp32
 70
     1
102
RTVSPost2010Prop33
280
     0
102
RTVSPost2010PropOp33
 70
     1
102
RTVSPost2010Prop34
280
     0
102
RTVSPost2010PropOp34
 70
     1
102
RTVSPost2010Prop35
280
     0
102
RTVSPost2010PropOp35
 70
     1
102
RTVSPost2010Prop36
280
     0
102
RTVSPost2010PropOp36
 70
     1
102
RTVSPost2010Prop37
 90
       50
102
RTVSPost2010PropOp37
 70
     1
102
RTVSPost2010Prop38
140
0.0
102
RTVSPost2010PropOp38
 70
     1
102
RTVSPost2010Prop39
140
1.0
102
RTVSPost2010PropOp39
 70
     1
102
RTVSPost2010Prop40
 90
        0
102
RTVSPost2010PropOp40
 70
     1
102
RTVSPost2010Prop41ColorIndex
 90
       18
102
RTVSPost2010Prop41ColorRGB
 90
        0
102
RTVSPost2010PropOp41
 70
     1
102
RTVSPost2010Prop42
 90
       50
102
RTVSPost2010PropOp42
 70
     1
102
RTVSPost2010Prop43
 90
        3
102
RTVSPost2010PropOp43
 70
     1
102
RTVSPost2010Prop44ColorIndex
 90
        5
102
RTVSPost2010Prop44ColorRGB
 90
      255
102
RTVSPost2010PropOp44
 70
     1
102
RTVSPost2010Prop45
280
     0
102
RTVSPost2010PropOp45
 70
     1
102
RTVSPost2010Prop46
 90
       50
102
RTVSPost2010PropOp46
 70
     1
102
RTVSPost2010Prop47
 90
       50
102
RTVSPost2010PropOp47
 70
     1
102
RTVSPost2010Prop48
 90
       50
102
RTVSPost2010PropOp48
 70
     1
102
RTVSPost2010Prop49
280
     0
102
RTVSPost2010PropOp49
 70
     1
102
RTVSPost2010Prop50
 90
       50
102
RTVSPost2010PropOp50
 70
     1
102
RTVSPost2010Prop51ColorIndex
 90
      256
102
RTVSPost2010Prop51ColorRGB
 90
-16777216
102
RTVSPost2010PropOp51
 70
     0
102
RTVSPost2010Prop52
140
1.0
102
RTVSPost2010PropOp52
 70
     0
102
RTVSPost2010Prop53
 90
        2
102
RTVSPost2010PropOp53
 70
     1
102
RTVSPost2010Prop54
  1
strokes_ogs.tif
102
RTVSPost2010PropOp54
 70
     1
102
RTVSPost2010Prop55
280
     0
102
RTVSPost2010PropOp55
 70
     1
102
RTVSPost2010Prop56
140
1.0
102
RTVSPost2010PropOp56
 70
     1
102
RTVSPost2010Prop57
140
1.0
102
RTVSPost2010PropOp57
 70
     1
  0
XRECORD
  5
1FE
102
{ACAD_REACTORS
330
1FD
102
}
330
1FD
100
AcDbXrecord
280
     1
102
RTVSPost2010Prop28
280
     0
102
RTVSPost2010PropOp28
 70
     1
102
RTVSPost2010Prop29
280
     1
102
RTVSPost2010PropOp29
 70
     1
102
RTVSPost2010Prop30
280
     1
102
RTVSPost2010PropOp30
 70
     1
102
RTVSPost2010Prop31
280
     0
102
RTVSPost2010PropOp31
 70
     1
102
RTVSPost2010Prop32
280
     0
102
RTVSPost2010PropOp32
 70
     1
102
RTVSPost2010Prop33
280
     0
102
RTVSPost2010PropOp33
 70
     1
102
RTVSPost2010Prop34
280
     0
102
RTVSPost2010PropOp34
 70
     1
102
RTVSPost2010Prop35
280
     0
102
RTVSPost2010PropOp35
 70
     1
102
RTVSPost2010Prop36
280
     0
102
RTVSPost2010PropOp36
 70
     1
102
RTVSPost2010Prop37
 90
       50
102
RTVSPost2010PropOp37
 70
     1
102
RTVSPost2010Prop38
140
0.0
102
RTVSPost2010PropOp38
 70
     1
102
RTVSPost2010Prop39
140
1.0
102
RTVSPost2010PropOp39
 70
     1
102
RTVSPost2010Prop40
 90
        0
102
RTVSPost2010PropOp40
 70
     1
102
RTVSPost2010Prop41ColorIndex
 90
       18
102
RTVSPost2010Prop41ColorRGB
 90
        0
102
RTVSPost2010PropOp41
 70
     1
102
RTVSPost2010Prop42
 90
       50
102
RTVSPost2010PropOp42
 70
     1
102
RTVSPost2010Prop43
 90
        3
102
RTVSPost2010PropOp43
 70
     1
102
RTVSPost2010Prop44ColorIndex
 90
        5
102
RTVSPost2010Prop44ColorRGB
 90
      255
102
RTVSPost2010PropOp44
 70
     1
102
RTVSPost2010Prop45
280
     0
102
RTVSPost2010PropOp45
 70
     1
102
RTVSPost2010Prop46
 90
       50
102
RTVSPost2010PropOp46
 70
     1
102
RTVSPost2010Prop47
 90
       50
102
RTVSPost2010PropOp47
 70
     1
102
RTVSPost2010Prop48
 90
       50
102
RTVSPost2010PropOp48
 70
     1
102
RTVSPost2010Prop49
280
     0
102
RTVSPost2010PropOp49
 70
     1
102
RTVSPost2010Prop50
 90
       50
102
RTVSPost2010PropOp50
 70
     1
102
RTVSPost2010Prop51ColorIndex
 90
      256
102
RTVSPost2010Prop51ColorRGB
 90
-16777216
102
RTVSPost2010PropOp51
 70
     0
102
RTVSPost2010Prop52
140
1.0
102
RTVSPost2010PropOp52
 70
     0
102
RTVSPost2010Prop53
 90
        2
102
RTVSPost2010PropOp53
 70
     1
102
RTVSPost2010Prop54
  1
strokes_ogs.tif
102
RTVSPost2010PropOp54
 70
     1
102
RTVSPost2010Prop55
280
     0
102
RTVSPost2010PropOp55
 70
     1
102
RTVSPost2010Prop56
140
1.0
102
RTVSPost2010PropOp56
 70
     1
102
RTVSPost2010Prop57
140
1.0
102
RTVSPost2010PropOp57
 70
     1
  0
XRECORD
  5
206
102
{ACAD_REACTORS
330
205
102
}
330
205
100
AcDbXrecord
280
     1
102
RTVSPost2010Prop28
280
     0
102
RTVSPost2010PropOp28
 70
     1
102
RTVSPost2010Prop29
280
     1
102
RTVSPost2010PropOp29
 70
     1
102
RTVSPost2010Prop30
280
     1
102
RTVSPost2010PropOp30
 70
     1
102
RTVSPost2010Prop31
280
     0
102
RTVSPost2010PropOp31
 70
     1
102
RTVSPost2010Prop32
280
     0
102
RTVSPost2010PropOp32
 70
     1
102
RTVSPost2010Prop33
280
     0
102
RTVSPost2010PropOp33
 70
     1
102
RTVSPost2010Prop34
280
     0
102
RTVSPost2010PropOp34
 70
     1
102
RTVSPost2010Prop35
280
     0
102
RTVSPost2010PropOp35
 70
     1
102
RTVSPost2010Prop36
280
     0
102
RTVSPost2010PropOp36
 70
     1
102
RTVSPost2010Prop37
 90
       50
102
RTVSPost2010PropOp37
 70
     1
102
RTVSPost2010Prop38
140
0.0
102
RTVSPost2010PropOp38
 70
     1
102
RTVSPost2010Prop39
140
1.0
102
RTVSPost2010PropOp39
 70
     1
102
RTVSPost2010Prop40
 90
        0
102
RTVSPost2010PropOp40
 70
     1
102
RTVSPost2010Prop41ColorIndex
 90
       18
102
RTVSPost2010Prop41ColorRGB
 90
        0
102
RTVSPost2010PropOp41
 70
     1
102
RTVSPost2010Prop42
 90
       50
102
RTVSPost2010PropOp42
 70
     1
102
RTVSPost2010Prop43
 90
        3
102
RTVSPost2010PropOp43
 70
     1
102
RTVSPost2010Prop44ColorIndex
 90
        5
102
RTVSPost2010Prop44ColorRGB
 90
      255
102
RTVSPost2010PropOp44
 70
     1
102
RTVSPost2010Prop45
280
     0
102
RTVSPost2010PropOp45
 70
     1
102
RTVSPost2010Prop46
 90
       50
102
RTVSPost2010PropOp46
 70
     1
102
RTVSPost2010Prop47
 90
       50
102
RTVSPost2010PropOp47
 70
     1
102
RTVSPost2010Prop48
 90
       50
102
RTVSPost2010PropOp48
 70
     1
102
RTVSPost2010Prop49
280
     0
102
RTVSPost2010PropOp49
 70
     1
102
RTVSPost2010Prop50
 90
       50
102
RTVSPost2010PropOp50
 70
     1
102
RTVSPost2010Prop51ColorIndex
 90
      256
102
RTVSPost2010Prop51ColorRGB
 90
-16777216
102
RTVSPost2010PropOp51
 70
     0
102
RTVSPost2010Prop52
140
1.0
102
RTVSPost2010PropOp52
 70
     0
102
RTVSPost2010Prop53
 90
        2
102
RTVSPost2010PropOp53
 70
     1
102
RTVSPost2010Prop54
  1
strokes_ogs.tif
102
RTVSPost2010PropOp54
 70
     1
102
RTVSPost2010Prop55
280
     0
102
RTVSPost2010PropOp55
 70
     1
102
RTVSPost2010Prop56
140
1.0
102
RTVSPost2010PropOp56
 70
     1
102
RTVSPost2010Prop57
140
1.0
102
RTVSPost2010PropOp57
 70
     1
  0
XRECORD
  5
1FA
102
{ACAD_REACTORS
330
1F9
102
}
330
1F9
100
AcDbXrecord
280
     1
102
RTVSPost2010Prop28
280
     0
102
RTVSPost2010PropOp28
 70
     1
102
RTVSPost2010Prop29
280
     1
102
RTVSPost2010PropOp29
 70
     1
102
RTVSPost2010Prop30
280
     1
102
RTVSPost2010PropOp30
 70
     1
102
RTVSPost2010Prop31
280
     0
102
RTVSPost2010PropOp31
 70
     1
102
RTVSPost2010Prop32
280
     0
102
RTVSPost2010PropOp32
 70
     1
102
RTVSPost2010Prop33
280
     0
102
RTVSPost2010PropOp33
 70
     1
102
RTVSPost2010Prop34
280
     0
102
RTVSPost2010PropOp34
 70
     1
102
RTVSPost2010Prop35
280
     0
102
RTVSPost2010PropOp35
 70
     1
102
RTVSPost2010Prop36
280
     0
102
RTVSPost2010PropOp36
 70
     1
102
RTVSPost2010Prop37
 90
       50
102
RTVSPost2010PropOp37
 70
     1
102
RTVSPost2010Prop38
140
0.0
102
RTVSPost2010PropOp38
 70
     1
102
RTVSPost2010Prop39
140
1.0
102
RTVSPost2010PropOp39
 70
     1
102
RTVSPost2010Prop40
 90
        0
102
RTVSPost2010PropOp40
 70
     1
102
RTVSPost2010Prop41ColorIndex
 90
       18
102
RTVSPost2010Prop41ColorRGB
 90
        0
102
RTVSPost2010PropOp41
 70
     1
102
RTVSPost2010Prop42
 90
       50
102
RTVSPost2010PropOp42
 70
     1
102
RTVSPost2010Prop43
 90
        3
102
RTVSPost2010PropOp43
 70
     1
102
RTVSPost2010Prop44ColorIndex
 90
        5
102
RTVSPost2010Prop44ColorRGB
 90
      255
102
RTVSPost2010PropOp44
 70
     1
102
RTVSPost2010Prop45
280
     0
102
RTVSPost2010PropOp45
 70
     1
102
RTVSPost2010Prop46
 90
       50
102
RTVSPost2010PropOp46
 70
     1
102
RTVSPost2010Prop47
 90
       50
102
RTVSPost2010PropOp47
 70
     1
102
RTVSPost2010Prop48
 90
       50
102
RTVSPost2010PropOp48
 70
     1
102
RTVSPost2010Prop49
280
     0
102
RTVSPost2010PropOp49
 70
     1
102
RTVSPost2010Prop50
 90
       50
102
RTVSPost2010PropOp50
 70
     1
102
RTVSPost2010Prop51ColorIndex
 90
      256
102
RTVSPost2010Prop51ColorRGB
 90
-16777216
102
RTVSPost2010PropOp51
 70
     0
102
RTVSPost2010Prop52
140
1.0
102
RTVSPost2010PropOp52
 70
     0
102
RTVSPost2010Prop53
 90
        2
102
RTVSPost2010PropOp53
 70
     1
102
RTVSPost2010Prop54
  1
strokes_ogs.tif
102
RTVSPost2010PropOp54
 70
     1
102
RTVSPost2010Prop55
280
     0
102
RTVSPost2010PropOp55
 70
     1
102
RTVSPost2010Prop56
140
1.0
102
RTVSPost2010PropOp56
 70
     1
102
RTVSPost2010Prop57
140
1.0
102
RTVSPost2010PropOp57
 70
     1
  0
XRECORD
  5
1FC
102
{ACAD_REACTORS
330
1FB
102
}
330
1FB
100
AcDbXrecord
280
     1
102
RTVSPost2010Prop28
280
     0
102
RTVSPost2010PropOp28
 70
     1
102
RTVSPost2010Prop29
280
     1
102
RTVSPost2010PropOp29
 70
     1
102
RTVSPost2010Prop30
280
     1
102
RTVSPost2010PropOp30
 70
     1
102
RTVSPost2010Prop31
280
     0
102
RTVSPost2010PropOp31
 70
     1
102
RTVSPost2010Prop32
280
     0
102
RTVSPost2010PropOp32
 70
     1
102
RTVSPost2010Prop33
280
     0
102
RTVSPost2010PropOp33
 70
     1
102
RTVSPost2010Prop34
280
     0
102
RTVSPost2010PropOp34
 70
     1
102
RTVSPost2010Prop35
280
     0
102
RTVSPost2010PropOp35
 70
     1
102
RTVSPost2010Prop36
280
     0
102
RTVSPost2010PropOp36
 70
     1
102
RTVSPost2010Prop37
 90
       50
102
RTVSPost2010PropOp37
 70
     1
102
RTVSPost2010Prop38
140
0.0
102
RTVSPost2010PropOp38
 70
     1
102
RTVSPost2010Prop39
140
1.0
102
RTVSPost2010PropOp39
 70
     1
102
RTVSPost2010Prop40
 90
        0
102
RTVSPost2010PropOp40
 70
     1
102
RTVSPost2010Prop41ColorIndex
 90
       18
102
RTVSPost2010Prop41ColorRGB
 90
        0
102
RTVSPost2010PropOp41
 70
     1
102
RTVSPost2010Prop42
 90
       50
102
RTVSPost2010PropOp42
 70
     1
102
RTVSPost2010Prop43
 90
        3
102
RTVSPost2010PropOp43
 70
     1
102
RTVSPost2010Prop44ColorIndex
 90
        5
102
RTVSPost2010Prop44ColorRGB
 90
      255
102
RTVSPost2010PropOp44
 70
     1
102
RTVSPost2010Prop45
280
     0
102
RTVSPost2010PropOp45
 70
     1
102
RTVSPost2010Prop46
 90
       50
102
RTVSPost2010PropOp46
 70
     1
102
RTVSPost2010Prop47
 90
       50
102
RTVSPost2010PropOp47
 70
     1
102
RTVSPost2010Prop48
 90
       50
102
RTVSPost2010PropOp48
 70
     1
102
RTVSPost2010Prop49
280
     0
102
RTVSPost2010PropOp49
 70
     1
102
RTVSPost2010Prop50
 90
       50
102
RTVSPost2010PropOp50
 70
     1
102
RTVSPost2010Prop51ColorIndex
 90
      256
102
RTVSPost2010Prop51ColorRGB
 90
-16777216
102
RTVSPost2010PropOp51
 70
     0
102
RTVSPost2010Prop52
140
1.0
102
RTVSPost2010PropOp52
 70
     0
102
RTVSPost2010Prop53
 90
        2
102
RTVSPost2010PropOp53
 70
     1
102
RTVSPost2010Prop54
  1
strokes_ogs.tif
102
RTVSPost2010PropOp54
 70
     1
102
RTVSPost2010Prop55
280
     0
102
RTVSPost2010PropOp55
 70
     1
102
RTVSPost2010Prop56
140
1.0
102
RTVSPost2010PropOp56
 70
     1
102
RTVSPost2010Prop57
140
1.0
102
RTVSPost2010PropOp57
 70
     1
  0
XRECORD
  5
20C
102
{ACAD_REACTORS
330
20B
102
}
330
20B
100
AcDbXrecord
280
     1
102
RTVSPost2010Prop28
280
     0
102
RTVSPost2010PropOp28
 70
     0
102
RTVSPost2010Prop29
280
     1
102
RTVSPost2010PropOp29
 70
     0
102
RTVSPost2010Prop30
280
     1
102
RTVSPost2010PropOp30
 70
     0
102
RTVSPost2010Prop31
280
     0
102
RTVSPost2010PropOp31
 70
     0
102
RTVSPost2010Prop32
280
     0
102
RTVSPost2010PropOp32
 70
     0
102
RTVSPost2010Prop33
280
     0
102
RTVSPost2010PropOp33
 70
     0
102
RTVSPost2010Prop34
280
     0
102
RTVSPost2010PropOp34
 70
     0
102
RTVSPost2010Prop35
280
     0
102
RTVSPost2010PropOp35
 70
     0
102
RTVSPost2010Prop36
280
     0
102
RTVSPost2010PropOp36
 70
     0
102
RTVSPost2010Prop37
 90
       50
102
RTVSPost2010PropOp37
 70
     0
102
RTVSPost2010Prop38
140
0.0
102
RTVSPost2010PropOp38
 70
     0
102
RTVSPost2010Prop39
140
1.0
102
RTVSPost2010PropOp39
 70
     0
102
RTVSPost2010Prop40
 90
        0
102
RTVSPost2010PropOp40
 70
     0
102
RTVSPost2010Prop41ColorIndex
 90
       18
102
RTVSPost2010Prop41ColorRGB
 90
        0
102
RTVSPost2010PropOp41
 70
     0
102
RTVSPost2010Prop42
 90
       50
102
RTVSPost2010PropOp42
 70
     0
102
RTVSPost2010Prop43
 90
        3
102
RTVSPost2010PropOp43
 70
     0
102
RTVSPost2010Prop44ColorIndex
 90
        5
102
RTVSPost2010Prop44ColorRGB
 90
      255
102
RTVSPost2010PropOp44
 70
     0
102
RTVSPost2010Prop45
280
     0
102
RTVSPost2010PropOp45
 70
     0
102
RTVSPost2010Prop46
 90
       50
102
RTVSPost2010PropOp46
 70
     0
102
RTVSPost2010Prop47
 90
       50
102
RTVSPost2010PropOp47
 70
     0
102
RTVSPost2010Prop48
 90
       50
102
RTVSPost2010PropOp48
 70
     0
102
RTVSPost2010Prop49
280
     0
102
RTVSPost2010PropOp49
 70
     0
102
RTVSPost2010Prop50
 90
       50
102
RTVSPost2010PropOp50
 70
     0
102
RTVSPost2010Prop51ColorIndex
 90
      256
102
RTVSPost2010Prop51ColorRGB
 90
-16777216
102
RTVSPost2010PropOp51
 70
     0
102
RTVSPost2010Prop52
140
1.0
102
RTVSPost2010PropOp52
 70
     0
102
RTVSPost2010Prop53
 90
        2
102
RTVSPost2010PropOp53
 70
     0
102
RTVSPost2010Prop54
  1
strokes_ogs.tif
102
RTVSPost2010PropOp54
 70
     0
102
RTVSPost2010Prop55
280
     0
102
RTVSPost2010PropOp55
 70
     0
102
RTVSPost2010Prop56
140
1.0
102
RTVSPost2010PropOp56
 70
     0
102
RTVSPost2010Prop57
140
1.0
102
RTVSPost2010PropOp57
 70
     0
  0
XRECORD
  5
204
102
{ACAD_REACTORS
330
203
102
}
330
203
100
AcDbXrecord
280
     1
102
RTVSPost2010Prop28
280
     0
102
RTVSPost2010PropOp28
 70
     1
102
RTVSPost2010Prop29
280
     1
102
RTVSPost2010PropOp29
 70
     1
102
RTVSPost2010Prop30
280
     1
102
RTVSPost2010PropOp30
 70
     1
102
RTVSPost2010Prop31
280
     0
102
RTVSPost2010PropOp31
 70
     1
102
RTVSPost2010Prop32
280
     0
102
RTVSPost2010PropOp32
 70
     1
102
RTVSPost2010Prop33
280
     0
102
RTVSPost2010PropOp33
 70
     1
102
RTVSPost2010Prop34
280
     0
102
RTVSPost2010PropOp34
 70
     1
102
RTVSPost2010Prop35
280
     0
102
RTVSPost2010PropOp35
 70
     1
102
RTVSPost2010Prop36
280
     0
102
RTVSPost2010PropOp36
 70
     1
102
RTVSPost2010Prop37
 90
       50
102
RTVSPost2010PropOp37
 70
     1
102
RTVSPost2010Prop38
140
0.0
102
RTVSPost2010PropOp38
 70
     1
102
RTVSPost2010Prop39
140
1.0
102
RTVSPost2010PropOp39
 70
     1
102
RTVSPost2010Prop40
 90
        0
102
RTVSPost2010PropOp40
 70
     1
102
RTVSPost2010Prop41ColorIndex
 90
       18
102
RTVSPost2010Prop41ColorRGB
 90
        0
102
RTVSPost2010PropOp41
 70
     1
102
RTVSPost2010Prop42
 90
       50
102
RTVSPost2010PropOp42
 70
     1
102
RTVSPost2010Prop43
 90
        3
102
RTVSPost2010PropOp43
 70
     1
102
RTVSPost2010Prop44ColorIndex
 90
        5
102
RTVSPost2010Prop44ColorRGB
 90
      255
102
RTVSPost2010PropOp44
 70
     1
102
RTVSPost2010Prop45
280
     0
102
RTVSPost2010PropOp45
 70
     1
102
RTVSPost2010Prop46
 90
       50
102
RTVSPost2010PropOp46
 70
     1
102
RTVSPost2010Prop47
 90
       50
102
RTVSPost2010PropOp47
 70
     1
102
RTVSPost2010Prop48
 90
       50
102
RTVSPost2010PropOp48
 70
     1
102
RTVSPost2010Prop49
280
     0
102
RTVSPost2010PropOp49
 70
     1
102
RTVSPost2010Prop50
 90
       50
102
RTVSPost2010PropOp50
 70
     1
102
RTVSPost2010Prop51ColorIndex
 90
      256
102
RTVSPost2010Prop51ColorRGB
 90
-16777216
102
RTVSPost2010PropOp51
 70
     0
102
RTVSPost2010Prop52
140
1.0
102
RTVSPost2010PropOp52
 70
     0
102
RTVSPost2010Prop53
 90
        2
102
RTVSPost2010PropOp53
 70
     1
102
RTVSPost2010Prop54
  1
strokes_ogs.tif
102
RTVSPost2010PropOp54
 70
     1
102
RTVSPost2010Prop55
280
     0
102
RTVSPost2010PropOp55
 70
     1
102
RTVSPost2010Prop56
140
1.0
102
RTVSPost2010PropOp56
 70
     1
102
RTVSPost2010Prop57
140
1.0
102
RTVSPost2010PropOp57
 70
     1
  0
XRECORD
  5
1E8
102
{ACAD_REACTORS
330
1E7
102
}
330
1E7
100
AcDbXrecord
280
     1
102
RTVSPost2010Prop28
280
     0
102
RTVSPost2010PropOp28
 70
     1
102
RTVSPost2010Prop29
280
     1
102
RTVSPost2010PropOp29
 70
     1
102
RTVSPost2010Prop30
280
     1
102
RTVSPost2010PropOp30
 70
     1
102
RTVSPost2010Prop31
280
     0
102
RTVSPost2010PropOp31
 70
     1
102
RTVSPost2010Prop32
280
     0
102
RTVSPost2010PropOp32
 70
     1
102
RTVSPost2010Prop33
280
     0
102
RTVSPost2010PropOp33
 70
     1
102
RTVSPost2010Prop34
280
     0
102
RTVSPost2010PropOp34
 70
     1
102
RTVSPost2010Prop35
280
     0
102
RTVSPost2010PropOp35
 70
     1
102
RTVSPost2010Prop36
280
     0
102
RTVSPost2010PropOp36
 70
     1
102
RTVSPost2010Prop37
 90
       50
102
RTVSPost2010PropOp37
 70
     1
102
RTVSPost2010Prop38
140
0.0
102
RTVSPost2010PropOp38
 70
     1
102
RTVSPost2010Prop39
140
1.0
102
RTVSPost2010PropOp39
 70
     1
102
RTVSPost2010Prop40
 90
        0
102
RTVSPost2010PropOp40
 70
     1
102
RTVSPost2010Prop41ColorIndex
 90
       18
102
RTVSPost2010Prop41ColorRGB
 90
        0
102
RTVSPost2010PropOp41
 70
     1
102
RTVSPost2010Prop42
 90
       50
102
RTVSPost2010PropOp42
 70
     1
102
RTVSPost2010Prop43
 90
        3
102
RTVSPost2010PropOp43
 70
     1
102
RTVSPost2010Prop44ColorIndex
 90
        5
102
RTVSPost2010Prop44ColorRGB
 90
      255
102
RTVSPost2010PropOp44
 70
     1
102
RTVSPost2010Prop45
280
     0
102
RTVSPost2010PropOp45
 70
     1
102
RTVSPost2010Prop46
 90
       50
102
RTVSPost2010PropOp46
 70
     1
102
RTVSPost2010Prop47
 90
       50
102
RTVSPost2010PropOp47
 70
     1
102
RTVSPost2010Prop48
 90
       50
102
RTVSPost2010PropOp48
 70
     1
102
RTVSPost2010Prop49
280
     0
102
RTVSPost2010PropOp49
 70
     1
102
RTVSPost2010Prop50
 90
       50
102
RTVSPost2010PropOp50
 70
     1
102
RTVSPost2010Prop51ColorIndex
 90
      256
102
RTVSPost2010Prop51ColorRGB
 90
-16777216
102
RTVSPost2010PropOp51
 70
     0
102
RTVSPost2010Prop52
140
1.0
102
RTVSPost2010PropOp52
 70
     0
102
RTVSPost2010Prop53
 90
        2
102
RTVSPost2010PropOp53
 70
     1
102
RTVSPost2010Prop54
  1
strokes_ogs.tif
102
RTVSPost2010PropOp54
 70
     1
102
RTVSPost2010Prop55
280
     0
102
RTVSPost2010PropOp55
 70
     1
102
RTVSPost2010Prop56
140
1.0
102
RTVSPost2010PropOp56
 70
     1
102
RTVSPost2010Prop57
140
1.0
102
RTVSPost2010PropOp57
 70
     1
  0
XRECORD
  5
1EA
102
{ACAD_REACTORS
330
1E9
102
}
330
1E9
100
AcDbXrecord
280
     1
102
RTVSPost2010Prop28
280
     0
102
RTVSPost2010PropOp28
 70
     1
102
RTVSPost2010Prop29
280
     1
102
RTVSPost2010PropOp29
 70
     1
102
RTVSPost2010Prop30
280
     1
102
RTVSPost2010PropOp30
 70
     1
102
RTVSPost2010Prop31
280
     0
102
RTVSPost2010PropOp31
 70
     1
102
RTVSPost2010Prop32
280
     0
102
RTVSPost2010PropOp32
 70
     1
102
RTVSPost2010Prop33
280
     0
102
RTVSPost2010PropOp33
 70
     1
102
RTVSPost2010Prop34
280
     0
102
RTVSPost2010PropOp34
 70
     1
102
RTVSPost2010Prop35
280
     0
102
RTVSPost2010PropOp35
 70
     1
102
RTVSPost2010Prop36
280
     0
102
RTVSPost2010PropOp36
 70
     1
102
RTVSPost2010Prop37
 90
       50
102
RTVSPost2010PropOp37
 70
     1
102
RTVSPost2010Prop38
140
0.0
102
RTVSPost2010PropOp38
 70
     1
102
RTVSPost2010Prop39
140
1.0
102
RTVSPost2010PropOp39
 70
     1
102
RTVSPost2010Prop40
 90
        0
102
RTVSPost2010PropOp40
 70
     1
102
RTVSPost2010Prop41ColorIndex
 90
       18
102
RTVSPost2010Prop41ColorRGB
 90
        0
102
RTVSPost2010PropOp41
 70
     1
102
RTVSPost2010Prop42
 90
       50
102
RTVSPost2010PropOp42
 70
     1
102
RTVSPost2010Prop43
 90
        3
102
RTVSPost2010PropOp43
 70
     1
102
RTVSPost2010Prop44ColorIndex
 90
        5
102
RTVSPost2010Prop44ColorRGB
 90
      255
102
RTVSPost2010PropOp44
 70
     1
102
RTVSPost2010Prop45
280
     0
102
RTVSPost2010PropOp45
 70
     1
102
RTVSPost2010Prop46
 90
       50
102
RTVSPost2010PropOp46
 70
     1
102
RTVSPost2010Prop47
 90
       50
102
RTVSPost2010PropOp47
 70
     1
102
RTVSPost2010Prop48
 90
       50
102
RTVSPost2010PropOp48
 70
     1
102
RTVSPost2010Prop49
280
     0
102
RTVSPost2010PropOp49
 70
     1
102
RTVSPost2010Prop50
 90
       50
102
RTVSPost2010PropOp50
 70
     1
102
RTVSPost2010Prop51ColorIndex
 90
      256
102
RTVSPost2010Prop51ColorRGB
 90
-16777216
102
RTVSPost2010PropOp51
 70
     0
102
RTVSPost2010Prop52
140
1.0
102
RTVSPost2010PropOp52
 70
     0
102
RTVSPost2010Prop53
 90
        2
102
RTVSPost2010PropOp53
 70
     1
102
RTVSPost2010Prop54
  1
strokes_ogs.tif
102
RTVSPost2010PropOp54
 70
     1
102
RTVSPost2010Prop55
280
     0
102
RTVSPost2010PropOp55
 70
     1
102
RTVSPost2010Prop56
140
1.0
102
RTVSPost2010PropOp56
 70
     1
102
RTVSPost2010Prop57
140
1.0
102
RTVSPost2010PropOp57
 70
     1
  0
XRECORD
  5
1EC
102
{ACAD_REACTORS
330
1EB
102
}
330
1EB
100
AcDbXrecord
280
     1
102
RTVSPost2010Prop28
280
     0
102
RTVSPost2010PropOp28
 70
     1
102
RTVSPost2010Prop29
280
     1
102
RTVSPost2010PropOp29
 70
     1
102
RTVSPost2010Prop30
280
     1
102
RTVSPost2010PropOp30
 70
     1
102
RTVSPost2010Prop31
280
     0
102
RTVSPost2010PropOp31
 70
     1
102
RTVSPost2010Prop32
280
     0
102
RTVSPost2010PropOp32
 70
     1
102
RTVSPost2010Prop33
280
     0
102
RTVSPost2010PropOp33
 70
     1
102
RTVSPost2010Prop34
280
     0
102
RTVSPost2010PropOp34
 70
     1
102
RTVSPost2010Prop35
280
     0
102
RTVSPost2010PropOp35
 70
     1
102
RTVSPost2010Prop36
280
     0
102
RTVSPost2010PropOp36
 70
     1
102
RTVSPost2010Prop37
 90
       50
102
RTVSPost2010PropOp37
 70
     1
102
RTVSPost2010Prop38
140
0.0
102
RTVSPost2010PropOp38
 70
     1
102
RTVSPost2010Prop39
140
1.0
102
RTVSPost2010PropOp39
 70
     1
102
RTVSPost2010Prop40
 90
        0
102
RTVSPost2010PropOp40
 70
     1
102
RTVSPost2010Prop41ColorIndex
 90
       18
102
RTVSPost2010Prop41ColorRGB
 90
        0
102
RTVSPost2010PropOp41
 70
     1
102
RTVSPost2010Prop42
 90
       50
102
RTVSPost2010PropOp42
 70
     1
102
RTVSPost2010Prop43
 90
        3
102
RTVSPost2010PropOp43
 70
     1
102
RTVSPost2010Prop44ColorIndex
 90
        5
102
RTVSPost2010Prop44ColorRGB
 90
      255
102
RTVSPost2010PropOp44
 70
     1
102
RTVSPost2010Prop45
280
     0
102
RTVSPost2010PropOp45
 70
     1
102
RTVSPost2010Prop46
 90
       50
102
RTVSPost2010PropOp46
 70
     1
102
RTVSPost2010Prop47
 90
       50
102
RTVSPost2010PropOp47
 70
     1
102
RTVSPost2010Prop48
 90
       50
102
RTVSPost2010PropOp48
 70
     1
102
RTVSPost2010Prop49
280
     0
102
RTVSPost2010PropOp49
 70
     1
102
RTVSPost2010Prop50
 90
       50
102
RTVSPost2010PropOp50
 70
     1
102
RTVSPost2010Prop51ColorIndex
 90
      256
102
RTVSPost2010Prop51ColorRGB
 90
-16777216
102
RTVSPost2010PropOp51
 70
     0
102
RTVSPost2010Prop52
140
1.0
102
RTVSPost2010PropOp52
 70
     0
102
RTVSPost2010Prop53
 90
        2
102
RTVSPost2010PropOp53
 70
     1
102
RTVSPost2010Prop54
  1
strokes_ogs.tif
102
RTVSPost2010PropOp54
 70
     1
102
RTVSPost2010Prop55
280
     0
102
RTVSPost2010PropOp55
 70
     1
102
RTVSPost2010Prop56
140
1.0
102
RTVSPost2010PropOp56
 70
     1
102
RTVSPost2010Prop57
140
1.0
102
RTVSPost2010PropOp57
 70
     1
  0
XRECORD
  5
1EE
102
{ACAD_REACTORS
330
1ED
102
}
330
1ED
100
AcDbXrecord
280
     1
102
RTVSPost2010Prop28
280
     0
102
RTVSPost2010PropOp28
 70
     1
102
RTVSPost2010Prop29
280
     1
102
RTVSPost2010PropOp29
 70
     1
102
RTVSPost2010Prop30
280
     1
102
RTVSPost2010PropOp30
 70
     1
102
RTVSPost2010Prop31
280
     0
102
RTVSPost2010PropOp31
 70
     1
102
RTVSPost2010Prop32
280
     0
102
RTVSPost2010PropOp32
 70
     1
102
RTVSPost2010Prop33
280
     0
102
RTVSPost2010PropOp33
 70
     1
102
RTVSPost2010Prop34
280
     0
102
RTVSPost2010PropOp34
 70
     1
102
RTVSPost2010Prop35
280
     0
102
RTVSPost2010PropOp35
 70
     1
102
RTVSPost2010Prop36
280
     0
102
RTVSPost2010PropOp36
 70
     1
102
RTVSPost2010Prop37
 90
       50
102
RTVSPost2010PropOp37
 70
     1
102
RTVSPost2010Prop38
140
0.0
102
RTVSPost2010PropOp38
 70
     1
102
RTVSPost2010Prop39
140
1.0
102
RTVSPost2010PropOp39
 70
     1
102
RTVSPost2010Prop40
 90
        0
102
RTVSPost2010PropOp40
 70
     1
102
RTVSPost2010Prop41ColorIndex
 90
       18
102
RTVSPost2010Prop41ColorRGB
 90
        0
102
RTVSPost2010PropOp41
 70
     1
102
RTVSPost2010Prop42
 90
       50
102
RTVSPost2010PropOp42
 70
     1
102
RTVSPost2010Prop43
 90
        3
102
RTVSPost2010PropOp43
 70
     1
102
RTVSPost2010Prop44ColorIndex
 90
        5
102
RTVSPost2010Prop44ColorRGB
 90
      255
102
RTVSPost2010PropOp44
 70
     1
102
RTVSPost2010Prop45
280
     0
102
RTVSPost2010PropOp45
 70
     1
102
RTVSPost2010Prop46
 90
       50
102
RTVSPost2010PropOp46
 70
     1
102
RTVSPost2010Prop47
 90
       50
102
RTVSPost2010PropOp47
 70
     1
102
RTVSPost2010Prop48
 90
       50
102
RTVSPost2010PropOp48
 70
     1
102
RTVSPost2010Prop49
280
     0
102
RTVSPost2010PropOp49
 70
     1
102
RTVSPost2010Prop50
 90
       50
102
RTVSPost2010PropOp50
 70
     1
102
RTVSPost2010Prop51ColorIndex
 90
      256
102
RTVSPost2010Prop51ColorRGB
 90
-16777216
102
RTVSPost2010PropOp51
 70
     0
102
RTVSPost2010Prop52
140
1.0
102
RTVSPost2010PropOp52
 70
     0
102
RTVSPost2010Prop53
 90
        2
102
RTVSPost2010PropOp53
 70
     1
102
RTVSPost2010Prop54
  1
strokes_ogs.tif
102
RTVSPost2010PropOp54
 70
     1
102
RTVSPost2010Prop55
280
     0
102
RTVSPost2010PropOp55
 70
     1
102
RTVSPost2010Prop56
140
1.0
102
RTVSPost2010PropOp56
 70
     1
102
RTVSPost2010Prop57
140
1.0
102
RTVSPost2010PropOp57
 70
     1
  0
XRECORD
  5
1F4
102
{ACAD_REACTORS
330
1F3
102
}
330
1F3
100
AcDbXrecord
280
     1
102
RTVSPost2010Prop28
280
     0
102
RTVSPost2010PropOp28
 70
     1
102
RTVSPost2010Prop29
280
     1
102
RTVSPost2010PropOp29
 70
     1
102
RTVSPost2010Prop30
280
     1
102
RTVSPost2010PropOp30
 70
     1
102
RTVSPost2010Prop31
280
     0
102
RTVSPost2010PropOp31
 70
     1
102
RTVSPost2010Prop32
280
     0
102
RTVSPost2010PropOp32
 70
     1
102
RTVSPost2010Prop33
280
     0
102
RTVSPost2010PropOp33
 70
     1
102
RTVSPost2010Prop34
280
     0
102
RTVSPost2010PropOp34
 70
     1
102
RTVSPost2010Prop35
280
     0
102
RTVSPost2010PropOp35
 70
     1
102
RTVSPost2010Prop36
280
     0
102
RTVSPost2010PropOp36
 70
     1
102
RTVSPost2010Prop37
 90
       50
102
RTVSPost2010PropOp37
 70
     1
102
RTVSPost2010Prop38
140
0.0
102
RTVSPost2010PropOp38
 70
     1
102
RTVSPost2010Prop39
140
1.0
102
RTVSPost2010PropOp39
 70
     1
102
RTVSPost2010Prop40
 90
        0
102
RTVSPost2010PropOp40
 70
     1
102
RTVSPost2010Prop41ColorIndex
 90
       18
102
RTVSPost2010Prop41ColorRGB
 90
        0
102
RTVSPost2010PropOp41
 70
     1
102
RTVSPost2010Prop42
 90
       50
102
RTVSPost2010PropOp42
 70
     1
102
RTVSPost2010Prop43
 90
        3
102
RTVSPost2010PropOp43
 70
     1
102
RTVSPost2010Prop44ColorIndex
 90
        5
102
RTVSPost2010Prop44ColorRGB
 90
      255
102
RTVSPost2010PropOp44
 70
     1
102
RTVSPost2010Prop45
280
     0
102
RTVSPost2010PropOp45
 70
     1
102
RTVSPost2010Prop46
 90
       50
102
RTVSPost2010PropOp46
 70
     1
102
RTVSPost2010Prop47
 90
       50
102
RTVSPost2010PropOp47
 70
     1
102
RTVSPost2010Prop48
 90
       50
102
RTVSPost2010PropOp48
 70
     1
102
RTVSPost2010Prop49
280
     0
102
RTVSPost2010PropOp49
 70
     1
102
RTVSPost2010Prop50
 90
       50
102
RTVSPost2010PropOp50
 70
     1
102
RTVSPost2010Prop51ColorIndex
 90
      256
102
RTVSPost2010Prop51ColorRGB
 90
-16777216
102
RTVSPost2010PropOp51
 70
     0
102
RTVSPost2010Prop52
140
1.0
102
RTVSPost2010PropOp52
 70
     0
102
RTVSPost2010Prop53
 90
        2
102
RTVSPost2010PropOp53
 70
     1
102
RTVSPost2010Prop54
  1
strokes_ogs.tif
102
RTVSPost2010PropOp54
 70
     1
102
RTVSPost2010Prop55
280
     0
102
RTVSPost2010PropOp55
 70
     1
102
RTVSPost2010Prop56
140
1.0
102
RTVSPost2010PropOp56
 70
     1
102
RTVSPost2010Prop57
140
1.0
102
RTVSPost2010PropOp57
 70
     1
  0
XRECORD
  5
208
102
{ACAD_REACTORS
330
207
102
}
330
207
100
AcDbXrecord
280
     1
102
RTVSPost2010Prop28
280
     0
102
RTVSPost2010PropOp28
 70
     0
102
RTVSPost2010Prop29
280
     1
102
RTVSPost2010PropOp29
 70
     0
102
RTVSPost2010Prop30
280
     1
102
RTVSPost2010PropOp30
 70
     0
102
RTVSPost2010Prop31
280
     0
102
RTVSPost2010PropOp31
 70
     0
102
RTVSPost2010Prop32
280
     0
102
RTVSPost2010PropOp32
 70
     0
102
RTVSPost2010Prop33
280
     0
102
RTVSPost2010PropOp33
 70
     0
102
RTVSPost2010Prop34
280
     0
102
RTVSPost2010PropOp34
 70
     0
102
RTVSPost2010Prop35
280
     0
102
RTVSPost2010PropOp35
 70
     0
102
RTVSPost2010Prop36
280
     0
102
RTVSPost2010PropOp36
 70
     0
102
RTVSPost2010Prop37
 90
       50
102
RTVSPost2010PropOp37
 70
     0
102
RTVSPost2010Prop38
140
0.0
102
RTVSPost2010PropOp38
 70
     0
102
RTVSPost2010Prop39
140
1.0
102
RTVSPost2010PropOp39
 70
     0
102
RTVSPost2010Prop40
 90
        0
102
RTVSPost2010PropOp40
 70
     0
102
RTVSPost2010Prop41ColorIndex
 90
       18
102
RTVSPost2010Prop41ColorRGB
 90
        0
102
RTVSPost2010PropOp41
 70
     0
102
RTVSPost2010Prop42
 90
       50
102
RTVSPost2010PropOp42
 70
     0
102
RTVSPost2010Prop43
 90
        3
102
RTVSPost2010PropOp43
 70
     0
102
RTVSPost2010Prop44ColorIndex
 90
        5
102
RTVSPost2010Prop44ColorRGB
 90
      255
102
RTVSPost2010PropOp44
 70
     0
102
RTVSPost2010Prop45
280
     0
102
RTVSPost2010PropOp45
 70
     0
102
RTVSPost2010Prop46
 90
       50
102
RTVSPost2010PropOp46
 70
     0
102
RTVSPost2010Prop47
 90
       50
102
RTVSPost2010PropOp47
 70
     0
102
RTVSPost2010Prop48
 90
       50
102
RTVSPost2010PropOp48
 70
     0
102
RTVSPost2010Prop49
280
     0
102
RTVSPost2010PropOp49
 70
     0
102
RTVSPost2010Prop50
 90
       50
102
RTVSPost2010PropOp50
 70
     0
102
RTVSPost2010Prop51ColorIndex
 90
      256
102
RTVSPost2010Prop51ColorRGB
 90
-16777216
102
RTVSPost2010PropOp51
 70
     0
102
RTVSPost2010Prop52
140
1.0
102
RTVSPost2010PropOp52
 70
     0
102
RTVSPost2010Prop53
 90
        2
102
RTVSPost2010PropOp53
 70
     0
102
RTVSPost2010Prop54
  1
strokes_ogs.tif
102
RTVSPost2010PropOp54
 70
     0
102
RTVSPost2010Prop55
280
     0
102
RTVSPost2010PropOp55
 70
     0
102
RTVSPost2010Prop56
140
1.0
102
RTVSPost2010PropOp56
 70
     0
102
RTVSPost2010Prop57
140
1.0
102
RTVSPost2010PropOp57
 70
     0
  0
XRECORD
  5
202
102
{ACAD_REACTORS
330
201
102
}
330
201
100
AcDbXrecord
280
     1
102
RTVSPost2010Prop28
280
     0
102
RTVSPost2010PropOp28
 70
     1
102
RTVSPost2010Prop29
280
     1
102
RTVSPost2010PropOp29
 70
     1
102
RTVSPost2010Prop30
280
     1
102
RTVSPost2010PropOp30
 70
     1
102
RTVSPost2010Prop31
280
     0
102
RTVSPost2010PropOp31
 70
     1
102
RTVSPost2010Prop32
280
     0
102
RTVSPost2010PropOp32
 70
     1
102
RTVSPost2010Prop33
280
     0
102
RTVSPost2010PropOp33
 70
     1
102
RTVSPost2010Prop34
280
     0
102
RTVSPost2010PropOp34
 70
     1
102
RTVSPost2010Prop35
280
     0
102
RTVSPost2010PropOp35
 70
     1
102
RTVSPost2010Prop36
280
     0
102
RTVSPost2010PropOp36
 70
     1
102
RTVSPost2010Prop37
 90
       50
102
RTVSPost2010PropOp37
 70
     1
102
RTVSPost2010Prop38
140
0.0
102
RTVSPost2010PropOp38
 70
     1
102
RTVSPost2010Prop39
140
1.0
102
RTVSPost2010PropOp39
 70
     1
102
RTVSPost2010Prop40
 90
        0
102
RTVSPost2010PropOp40
 70
     1
102
RTVSPost2010Prop41ColorIndex
 90
       18
102
RTVSPost2010Prop41ColorRGB
 90
        0
102
RTVSPost2010PropOp41
 70
     1
102
RTVSPost2010Prop42
 90
       50
102
RTVSPost2010PropOp42
 70
     1
102
RTVSPost2010Prop43
 90
        3
102
RTVSPost2010PropOp43
 70
     1
102
RTVSPost2010Prop44ColorIndex
 90
        5
102
RTVSPost2010Prop44ColorRGB
 90
      255
102
RTVSPost2010PropOp44
 70
     1
102
RTVSPost2010Prop45
280
     0
102
RTVSPost2010PropOp45
 70
     1
102
RTVSPost2010Prop46
 90
       50
102
RTVSPost2010PropOp46
 70
     1
102
RTVSPost2010Prop47
 90
       50
102
RTVSPost2010PropOp47
 70
     1
102
RTVSPost2010Prop48
 90
       50
102
RTVSPost2010PropOp48
 70
     1
102
RTVSPost2010Prop49
280
     0
102
RTVSPost2010PropOp49
 70
     1
102
RTVSPost2010Prop50
 90
       50
102
RTVSPost2010PropOp50
 70
     1
102
RTVSPost2010Prop51ColorIndex
 90
      256
102
RTVSPost2010Prop51ColorRGB
 90
-16777216
102
RTVSPost2010PropOp51
 70
     0
102
RTVSPost2010Prop52
140
1.0
102
RTVSPost2010PropOp52
 70
     0
102
RTVSPost2010Prop53
 90
        2
102
RTVSPost2010PropOp53
 70
     1
102
RTVSPost2010Prop54
  1
strokes_ogs.tif
102
RTVSPost2010PropOp54
 70
     1
102
RTVSPost2010Prop55
280
     0
102
RTVSPost2010PropOp55
 70
     1
102
RTVSPost2010Prop56
140
1.0
102
RTVSPost2010PropOp56
 70
     1
102
RTVSPost2010Prop57
140
1.0
102
RTVSPost2010PropOp57
 70
     1
  0
XRECORD
  5
20A
102
{ACAD_REACTORS
330
209
102
}
330
209
100
AcDbXrecord
280
     1
102
RTVSPost2010Prop28
280
     0
102
RTVSPost2010PropOp28
 70
     0
102
RTVSPost2010Prop29
280
     1
102
RTVSPost2010PropOp29
 70
     0
102
RTVSPost2010Prop30
280
     1
102
RTVSPost2010PropOp30
 70
     0
102
RTVSPost2010Prop31
280
     0
102
RTVSPost2010PropOp31
 70
     0
102
RTVSPost2010Prop32
280
     0
102
RTVSPost2010PropOp32
 70
     0
102
RTVSPost2010Prop33
280
     0
102
RTVSPost2010PropOp33
 70
     0
102
RTVSPost2010Prop34
280
     0
102
RTVSPost2010PropOp34
 70
     0
102
RTVSPost2010Prop35
280
     0
102
RTVSPost2010PropOp35
 70
     0
102
RTVSPost2010Prop36
280
     0
102
RTVSPost2010PropOp36
 70
     0
102
RTVSPost2010Prop37
 90
       50
102
RTVSPost2010PropOp37
 70
     0
102
RTVSPost2010Prop38
140
0.0
102
RTVSPost2010PropOp38
 70
     0
102
RTVSPost2010Prop39
140
1.0
102
RTVSPost2010PropOp39
 70
     0
102
RTVSPost2010Prop40
 90
        0
102
RTVSPost2010PropOp40
 70
     0
102
RTVSPost2010Prop41ColorIndex
 90
       18
102
RTVSPost2010Prop41ColorRGB
 90
        0
102
RTVSPost2010PropOp41
 70
     0
102
RTVSPost2010Prop42
 90
       50
102
RTVSPost2010PropOp42
 70
     0
102
RTVSPost2010Prop43
 90
        3
102
RTVSPost2010PropOp43
 70
     0
102
RTVSPost2010Prop44ColorIndex
 90
        5
102
RTVSPost2010Prop44ColorRGB
 90
      255
102
RTVSPost2010PropOp44
 70
     0
102
RTVSPost2010Prop45
280
     0
102
RTVSPost2010PropOp45
 70
     0
102
RTVSPost2010Prop46
 90
       50
102
RTVSPost2010PropOp46
 70
     0
102
RTVSPost2010Prop47
 90
       50
102
RTVSPost2010PropOp47
 70
     0
102
RTVSPost2010Prop48
 90
       50
102
RTVSPost2010PropOp48
 70
     0
102
RTVSPost2010Prop49
280
     0
102
RTVSPost2010PropOp49
 70
     0
102
RTVSPost2010Prop50
 90
       50
102
RTVSPost2010PropOp50
 70
     0
102
RTVSPost2010Prop51ColorIndex
 90
      256
102
RTVSPost2010Prop51ColorRGB
 90
-16777216
102
RTVSPost2010PropOp51
 70
     0
102
RTVSPost2010Prop52
140
1.0
102
RTVSPost2010PropOp52
 70
     0
102
RTVSPost2010Prop53
 90
        2
102
RTVSPost2010PropOp53
 70
     0
102
RTVSPost2010Prop54
  1
strokes_ogs.tif
102
RTVSPost2010PropOp54
 70
     0
102
RTVSPost2010Prop55
280
     0
102
RTVSPost2010PropOp55
 70
     0
102
RTVSPost2010Prop56
140
1.0
102
RTVSPost2010PropOp56
 70
     0
102
RTVSPost2010Prop57
140
1.0
102
RTVSPost2010PropOp57
 70
     0
  0
XRECORD
  5
1F8
102
{ACAD_REACTORS
330
1F7
102
}
330
1F7
100
AcDbXrecord
280
     1
102
RTVSPost2010Prop28
280
     0
102
RTVSPost2010PropOp28
 70
     1
102
RTVSPost2010Prop29
280
     1
102
RTVSPost2010PropOp29
 70
     1
102
RTVSPost2010Prop30
280
     1
102
RTVSPost2010PropOp30
 70
     1
102
RTVSPost2010Prop31
280
     0
102
RTVSPost2010PropOp31
 70
     1
102
RTVSPost2010Prop32
280
     0
102
RTVSPost2010PropOp32
 70
     1
102
RTVSPost2010Prop33
280
     0
102
RTVSPost2010PropOp33
 70
     1
102
RTVSPost2010Prop34
280
     0
102
RTVSPost2010PropOp34
 70
     1
102
RTVSPost2010Prop35
280
     0
102
RTVSPost2010PropOp35
 70
     1
102
RTVSPost2010Prop36
280
     0
102
RTVSPost2010PropOp36
 70
     1
102
RTVSPost2010Prop37
 90
       50
102
RTVSPost2010PropOp37
 70
     1
102
RTVSPost2010Prop38
140
0.0
102
RTVSPost2010PropOp38
 70
     1
102
RTVSPost2010Prop39
140
1.0
102
RTVSPost2010PropOp39
 70
     1
102
RTVSPost2010Prop40
 90
        0
102
RTVSPost2010PropOp40
 70
     1
102
RTVSPost2010Prop41ColorIndex
 90
       18
102
RTVSPost2010Prop41ColorRGB
 90
        0
102
RTVSPost2010PropOp41
 70
     1
102
RTVSPost2010Prop42
 90
       50
102
RTVSPost2010PropOp42
 70
     1
102
RTVSPost2010Prop43
 90
        3
102
RTVSPost2010PropOp43
 70
     1
102
RTVSPost2010Prop44ColorIndex
 90
        5
102
RTVSPost2010Prop44ColorRGB
 90
      255
102
RTVSPost2010PropOp44
 70
     1
102
RTVSPost2010Prop45
280
     0
102
RTVSPost2010PropOp45
 70
     1
102
RTVSPost2010Prop46
 90
       50
102
RTVSPost2010PropOp46
 70
     1
102
RTVSPost2010Prop47
 90
       50
102
RTVSPost2010PropOp47
 70
     1
102
RTVSPost2010Prop48
 90
       50
102
RTVSPost2010PropOp48
 70
     1
102
RTVSPost2010Prop49
280
     0
102
RTVSPost2010PropOp49
 70
     1
102
RTVSPost2010Prop50
 90
       50
102
RTVSPost2010PropOp50
 70
     1
102
RTVSPost2010Prop51ColorIndex
 90
      256
102
RTVSPost2010Prop51ColorRGB
 90
-16777216
102
RTVSPost2010PropOp51
 70
     0
102
RTVSPost2010Prop52
140
1.0
102
RTVSPost2010PropOp52
 70
     0
102
RTVSPost2010Prop53
 90
        2
102
RTVSPost2010PropOp53
 70
     1
102
RTVSPost2010Prop54
  1
strokes_ogs.tif
102
RTVSPost2010PropOp54
 70
     1
102
RTVSPost2010Prop55
280
     0
102
RTVSPost2010PropOp55
 70
     1
102
RTVSPost2010Prop56
140
1.0
102
RTVSPost2010PropOp56
 70
     1
102
RTVSPost2010Prop57
140
1.0
102
RTVSPost2010PropOp57
 70
     1
  0
XRECORD
  5
216
102
{ACAD_REACTORS
330
215
102
}
330
215
100
AcDbXrecord
280
     1
102
RTVSPost2010Prop28
280
     0
102
RTVSPost2010PropOp28
 70
     1
102
RTVSPost2010Prop29
280
     1
102
RTVSPost2010PropOp29
 70
     1
102
RTVSPost2010Prop30
280
     1
102
RTVSPost2010PropOp30
 70
     1
102
RTVSPost2010Prop31
280
     0
102
RTVSPost2010PropOp31
 70
     1
102
RTVSPost2010Prop32
280
     0
102
RTVSPost2010PropOp32
 70
     1
102
RTVSPost2010Prop33
280
     0
102
RTVSPost2010PropOp33
 70
     1
102
RTVSPost2010Prop34
280
     0
102
RTVSPost2010PropOp34
 70
     1
102
RTVSPost2010Prop35
280
     0
102
RTVSPost2010PropOp35
 70
     1
102
RTVSPost2010Prop36
280
     0
102
RTVSPost2010PropOp36
 70
     1
102
RTVSPost2010Prop37
 90
       50
102
RTVSPost2010PropOp37
 70
     1
102
RTVSPost2010Prop38
140
0.0
102
RTVSPost2010PropOp38
 70
     1
102
RTVSPost2010Prop39
140
1.0
102
RTVSPost2010PropOp39
 70
     1
102
RTVSPost2010Prop40
 90
        0
102
RTVSPost2010PropOp40
 70
     1
102
RTVSPost2010Prop41ColorIndex
 90
       18
102
RTVSPost2010Prop41ColorRGB
 90
        0
102
RTVSPost2010PropOp41
 70
     1
102
RTVSPost2010Prop42
 90
       50
102
RTVSPost2010PropOp42
 70
     1
102
RTVSPost2010Prop43
 90
        3
102
RTVSPost2010PropOp43
 70
     1
102
RTVSPost2010Prop44ColorIndex
 90
        5
102
RTVSPost2010Prop44ColorRGB
 90
      255
102
RTVSPost2010PropOp44
 70
     1
102
RTVSPost2010Prop45
280
     0
102
RTVSPost2010PropOp45
 70
     1
102
RTVSPost2010Prop46
 90
       50
102
RTVSPost2010PropOp46
 70
     1
102
RTVSPost2010Prop47
 90
       50
102
RTVSPost2010PropOp47
 70
     1
102
RTVSPost2010Prop48
 90
       50
102
RTVSPost2010PropOp48
 70
     1
102
RTVSPost2010Prop49
280
     0
102
RTVSPost2010PropOp49
 70
     1
102
RTVSPost2010Prop50
 90
       50
102
RTVSPost2010PropOp50
 70
     1
102
RTVSPost2010Prop51ColorIndex
 90
      256
102
RTVSPost2010Prop51ColorRGB
 90
-16777216
102
RTVSPost2010PropOp51
 70
     0
102
RTVSPost2010Prop52
140
1.0
102
RTVSPost2010PropOp52
 70
     0
102
RTVSPost2010Prop53
 90
        2
102
RTVSPost2010PropOp53
 70
     1
102
RTVSPost2010Prop54
  1
strokes_ogs.tif
102
RTVSPost2010PropOp54
 70
     1
102
RTVSPost2010Prop55
280
     0
102
RTVSPost2010PropOp55
 70
     1
102
RTVSPost2010Prop56
140
1.0
102
RTVSPost2010PropOp56
 70
     1
102
RTVSPost2010Prop57
140
1.0
102
RTVSPost2010PropOp57
 70
     1
  0
XRECORD
  5
214
102
{ACAD_REACTORS
330
213
102
}
330
213
100
AcDbXrecord
280
     1
102
RTVSPost2010Prop28
280
     0
102
RTVSPost2010PropOp28
 70
     1
102
RTVSPost2010Prop29
280
     1
102
RTVSPost2010PropOp29
 70
     1
102
RTVSPost2010Prop30
280
     1
102
RTVSPost2010PropOp30
 70
     1
102
RTVSPost2010Prop31
280
     0
102
RTVSPost2010PropOp31
 70
     1
102
RTVSPost2010Prop32
280
     0
102
RTVSPost2010PropOp32
 70
     1
102
RTVSPost2010Prop33
280
     0
102
RTVSPost2010PropOp33
 70
     1
102
RTVSPost2010Prop34
280
     0
102
RTVSPost2010PropOp34
 70
     1
102
RTVSPost2010Prop35
280
     0
102
RTVSPost2010PropOp35
 70
     1
102
RTVSPost2010Prop36
280
     0
102
RTVSPost2010PropOp36
 70
     1
102
RTVSPost2010Prop37
 90
       50
102
RTVSPost2010PropOp37
 70
     1
102
RTVSPost2010Prop38
140
0.0
102
RTVSPost2010PropOp38
 70
     1
102
RTVSPost2010Prop39
140
1.0
102
RTVSPost2010PropOp39
 70
     1
102
RTVSPost2010Prop40
 90
        0
102
RTVSPost2010PropOp40
 70
     1
102
RTVSPost2010Prop41ColorIndex
 90
       18
102
RTVSPost2010Prop41ColorRGB
 90
        0
102
RTVSPost2010PropOp41
 70
     1
102
RTVSPost2010Prop42
 90
       50
102
RTVSPost2010PropOp42
 70
     1
102
RTVSPost2010Prop43
 90
        3
102
RTVSPost2010PropOp43
 70
     1
102
RTVSPost2010Prop44ColorIndex
 90
        5
102
RTVSPost2010Prop44ColorRGB
 90
      255
102
RTVSPost2010PropOp44
 70
     1
102
RTVSPost2010Prop45
280
     0
102
RTVSPost2010PropOp45
 70
     1
102
RTVSPost2010Prop46
 90
       50
102
RTVSPost2010PropOp46
 70
     1
102
RTVSPost2010Prop47
 90
       50
102
RTVSPost2010PropOp47
 70
     1
102
RTVSPost2010Prop48
 90
       50
102
RTVSPost2010PropOp48
 70
     1
102
RTVSPost2010Prop49
280
     0
102
RTVSPost2010PropOp49
 70
     1
102
RTVSPost2010Prop50
 90
       50
102
RTVSPost2010PropOp50
 70
     1
102
RTVSPost2010Prop51ColorIndex
 90
      256
102
RTVSPost2010Prop51ColorRGB
 90
-16777216
102
RTVSPost2010PropOp51
 70
     0
102
RTVSPost2010Prop52
140
1.0
102
RTVSPost2010PropOp52
 70
     0
102
RTVSPost2010Prop53
 90
        2
102
RTVSPost2010PropOp53
 70
     1
102
RTVSPost2010Prop54
  1
strokes_ogs.tif
102
RTVSPost2010PropOp54
 70
     1
102
RTVSPost2010Prop55
280
     0
102
RTVSPost2010PropOp55
 70
     1
102
RTVSPost2010Prop56
140
1.0
102
RTVSPost2010PropOp56
 70
     1
102
RTVSPost2010Prop57
140
1.0
102
RTVSPost2010PropOp57
 70
     1
  0
XRECORD
  5
20E
102
{ACAD_REACTORS
330
20D
102
}
330
20D
100
AcDbXrecord
280
     1
102
RTVSPost2010Prop28
280
     0
102
RTVSPost2010PropOp28
 70
     1
102
RTVSPost2010Prop29
280
     1
102
RTVSPost2010PropOp29
 70
     1
102
RTVSPost2010Prop30
280
     1
102
RTVSPost2010PropOp30
 70
     1
102
RTVSPost2010Prop31
280
     0
102
RTVSPost2010PropOp31
 70
     1
102
RTVSPost2010Prop32
280
     0
102
RTVSPost2010PropOp32
 70
     1
102
RTVSPost2010Prop33
280
     0
102
RTVSPost2010PropOp33
 70
     1
102
RTVSPost2010Prop34
280
     0
102
RTVSPost2010PropOp34
 70
     1
102
RTVSPost2010Prop35
280
     0
102
RTVSPost2010PropOp35
 70
     1
102
RTVSPost2010Prop36
280
     0
102
RTVSPost2010PropOp36
 70
     1
102
RTVSPost2010Prop37
 90
       50
102
RTVSPost2010PropOp37
 70
     1
102
RTVSPost2010Prop38
140
0.0
102
RTVSPost2010PropOp38
 70
     1
102
RTVSPost2010Prop39
140
1.0
102
RTVSPost2010PropOp39
 70
     1
102
RTVSPost2010Prop40
 90
        0
102
RTVSPost2010PropOp40
 70
     1
102
RTVSPost2010Prop41ColorIndex
 90
       18
102
RTVSPost2010Prop41ColorRGB
 90
        0
102
RTVSPost2010PropOp41
 70
     1
102
RTVSPost2010Prop42
 90
       50
102
RTVSPost2010PropOp42
 70
     1
102
RTVSPost2010Prop43
 90
        3
102
RTVSPost2010PropOp43
 70
     1
102
RTVSPost2010Prop44ColorIndex
 90
        5
102
RTVSPost2010Prop44ColorRGB
 90
      255
102
RTVSPost2010PropOp44
 70
     1
102
RTVSPost2010Prop45
280
     0
102
RTVSPost2010PropOp45
 70
     1
102
RTVSPost2010Prop46
 90
       50
102
RTVSPost2010PropOp46
 70
     1
102
RTVSPost2010Prop47
 90
       50
102
RTVSPost2010PropOp47
 70
     1
102
RTVSPost2010Prop48
 90
       50
102
RTVSPost2010PropOp48
 70
     1
102
RTVSPost2010Prop49
280
     0
102
RTVSPost2010PropOp49
 70
     1
102
RTVSPost2010Prop50
 90
       50
102
RTVSPost2010PropOp50
 70
     1
102
RTVSPost2010Prop51ColorIndex
 90
      256
102
RTVSPost2010Prop51ColorRGB
 90
-16777216
102
RTVSPost2010PropOp51
 70
     0
102
RTVSPost2010Prop52
140
1.0
102
RTVSPost2010PropOp52
 70
     0
102
RTVSPost2010Prop53
 90
        2
102
RTVSPost2010PropOp53
 70
     1
102
RTVSPost2010Prop54
  1
strokes_ogs.tif
102
RTVSPost2010PropOp54
 70
     1
102
RTVSPost2010Prop55
280
     0
102
RTVSPost2010PropOp55
 70
     1
102
RTVSPost2010Prop56
140
1.0
102
RTVSPost2010PropOp56
 70
     1
102
RTVSPost2010Prop57
140
1.0
102
RTVSPost2010PropOp57
 70
     1
  0
XRECORD
  5
210
102
{ACAD_REACTORS
330
20F
102
}
330
20F
100
AcDbXrecord
280
     1
102
RTVSPost2010Prop28
280
     0
102
RTVSPost2010PropOp28
 70
     1
102
RTVSPost2010Prop29
280
     1
102
RTVSPost2010PropOp29
 70
     1
102
RTVSPost2010Prop30
280
     1
102
RTVSPost2010PropOp30
 70
     1
102
RTVSPost2010Prop31
280
     0
102
RTVSPost2010PropOp31
 70
     1
102
RTVSPost2010Prop32
280
     0
102
RTVSPost2010PropOp32
 70
     1
102
RTVSPost2010Prop33
280
     0
102
RTVSPost2010PropOp33
 70
     1
102
RTVSPost2010Prop34
280
     0
102
RTVSPost2010PropOp34
 70
     1
102
RTVSPost2010Prop35
280
     0
102
RTVSPost2010PropOp35
 70
     1
102
RTVSPost2010Prop36
280
     0
102
RTVSPost2010PropOp36
 70
     1
102
RTVSPost2010Prop37
 90
       50
102
RTVSPost2010PropOp37
 70
     1
102
RTVSPost2010Prop38
140
0.0
102
RTVSPost2010PropOp38
 70
     1
102
RTVSPost2010Prop39
140
1.0
102
RTVSPost2010PropOp39
 70
     1
102
RTVSPost2010Prop40
 90
        0
102
RTVSPost2010PropOp40
 70
     1
102
RTVSPost2010Prop41ColorIndex
 90
       18
102
RTVSPost2010Prop41ColorRGB
 90
        0
102
RTVSPost2010PropOp41
 70
     1
102
RTVSPost2010Prop42
 90
       50
102
RTVSPost2010PropOp42
 70
     1
102
RTVSPost2010Prop43
 90
        3
102
RTVSPost2010PropOp43
 70
     1
102
RTVSPost2010Prop44ColorIndex
 90
        5
102
RTVSPost2010Prop44ColorRGB
 90
      255
102
RTVSPost2010PropOp44
 70
     1
102
RTVSPost2010Prop45
280
     0
102
RTVSPost2010PropOp45
 70
     1
102
RTVSPost2010Prop46
 90
       50
102
RTVSPost2010PropOp46
 70
     1
102
RTVSPost2010Prop47
 90
       50
102
RTVSPost2010PropOp47
 70
     1
102
RTVSPost2010Prop48
 90
       50
102
RTVSPost2010PropOp48
 70
     1
102
RTVSPost2010Prop49
280
     0
102
RTVSPost2010PropOp49
 70
     1
102
RTVSPost2010Prop50
 90
       50
102
RTVSPost2010PropOp50
 70
     1
102
RTVSPost2010Prop51ColorIndex
 90
      256
102
RTVSPost2010Prop51ColorRGB
 90
-16777216
102
RTVSPost2010PropOp51
 70
     0
102
RTVSPost2010Prop52
140
1.0
102
RTVSPost2010PropOp52
 70
     0
102
RTVSPost2010Prop53
 90
        2
102
RTVSPost2010PropOp53
 70
     1
102
RTVSPost2010Prop54
  1
strokes_ogs.tif
102
RTVSPost2010PropOp54
 70
     1
102
RTVSPost2010Prop55
280
     0
102
RTVSPost2010PropOp55
 70
     1
102
RTVSPost2010Prop56
140
1.0
102
RTVSPost2010PropOp56
 70
     1
102
RTVSPost2010Prop57
140
1.0
102
RTVSPost2010PropOp57
 70
     1
  0
XRECORD
  5
200
102
{ACAD_REACTORS
330
1FF
102
}
330
1FF
100
AcDbXrecord
280
     1
102
RTVSPost2010Prop28
280
     0
102
RTVSPost2010PropOp28
 70
     1
102
RTVSPost2010Prop29
280
     1
102
RTVSPost2010PropOp29
 70
     1
102
RTVSPost2010Prop30
280
     1
102
RTVSPost2010PropOp30
 70
     1
102
RTVSPost2010Prop31
280
     0
102
RTVSPost2010PropOp31
 70
     1
102
RTVSPost2010Prop32
280
     0
102
RTVSPost2010PropOp32
 70
     1
102
RTVSPost2010Prop33
280
     0
102
RTVSPost2010PropOp33
 70
     1
102
RTVSPost2010Prop34
280
     0
102
RTVSPost2010PropOp34
 70
     1
102
RTVSPost2010Prop35
280
     0
102
RTVSPost2010PropOp35
 70
     1
102
RTVSPost2010Prop36
280
     0
102
RTVSPost2010PropOp36
 70
     1
102
RTVSPost2010Prop37
 90
       50
102
RTVSPost2010PropOp37
 70
     1
102
RTVSPost2010Prop38
140
0.0
102
RTVSPost2010PropOp38
 70
     1
102
RTVSPost2010Prop39
140
1.0
102
RTVSPost2010PropOp39
 70
     1
102
RTVSPost2010Prop40
 90
        0
102
RTVSPost2010PropOp40
 70
     1
102
RTVSPost2010Prop41ColorIndex
 90
       18
102
RTVSPost2010Prop41ColorRGB
 90
        0
102
RTVSPost2010PropOp41
 70
     1
102
RTVSPost2010Prop42
 90
       50
102
RTVSPost2010PropOp42
 70
     1
102
RTVSPost2010Prop43
 90
        3
102
RTVSPost2010PropOp43
 70
     1
102
RTVSPost2010Prop44ColorIndex
 90
        5
102
RTVSPost2010Prop44ColorRGB
 90
      255
102
RTVSPost2010PropOp44
 70
     1
102
RTVSPost2010Prop45
280
     0
102
RTVSPost2010PropOp45
 70
     1
102
RTVSPost2010Prop46
 90
       50
102
RTVSPost2010PropOp46
 70
     1
102
RTVSPost2010Prop47
 90
       50
102
RTVSPost2010PropOp47
 70
     1
102
RTVSPost2010Prop48
 90
       50
102
RTVSPost2010PropOp48
 70
     1
102
RTVSPost2010Prop49
280
     0
102
RTVSPost2010PropOp49
 70
     1
102
RTVSPost2010Prop50
 90
       50
102
RTVSPost2010PropOp50
 70
     1
102
RTVSPost2010Prop51ColorIndex
 90
      256
102
RTVSPost2010Prop51ColorRGB
 90
-16777216
102
RTVSPost2010PropOp51
 70
     0
102
RTVSPost2010Prop52
140
1.0
102
RTVSPost2010PropOp52
 70
     0
102
RTVSPost2010Prop53
 90
        2
102
RTVSPost2010PropOp53
 70
     1
102
RTVSPost2010Prop54
  1
strokes_ogs.tif
102
RTVSPost2010PropOp54
 70
     1
102
RTVSPost2010Prop55
280
     0
102
RTVSPost2010PropOp55
 70
     1
102
RTVSPost2010Prop56
140
1.0
102
RTVSPost2010PropOp56
 70
     1
102
RTVSPost2010Prop57
140
1.0
102
RTVSPost2010PropOp57
 70
     1
  0
XRECORD
  5
1F2
102
{ACAD_REACTORS
330
1F1
102
}
330
1F1
100
AcDbXrecord
280
     1
102
RTVSPost2010Prop28
280
     0
102
RTVSPost2010PropOp28
 70
     1
102
RTVSPost2010Prop29
280
     1
102
RTVSPost2010PropOp29
 70
     1
102
RTVSPost2010Prop30
280
     1
102
RTVSPost2010PropOp30
 70
     1
102
RTVSPost2010Prop31
280
     0
102
RTVSPost2010PropOp31
 70
     1
102
RTVSPost2010Prop32
280
     0
102
RTVSPost2010PropOp32
 70
     1
102
RTVSPost2010Prop33
280
     0
102
RTVSPost2010PropOp33
 70
     1
102
RTVSPost2010Prop34
280
     0
102
RTVSPost2010PropOp34
 70
     1
102
RTVSPost2010Prop35
280
     0
102
RTVSPost2010PropOp35
 70
     1
102
RTVSPost2010Prop36
280
     0
102
RTVSPost2010PropOp36
 70
     1
102
RTVSPost2010Prop37
 90
       50
102
RTVSPost2010PropOp37
 70
     1
102
RTVSPost2010Prop38
140
0.0
102
RTVSPost2010PropOp38
 70
     1
102
RTVSPost2010Prop39
140
1.0
102
RTVSPost2010PropOp39
 70
     1
102
RTVSPost2010Prop40
 90
        0
102
RTVSPost2010PropOp40
 70
     1
102
RTVSPost2010Prop41ColorIndex
 90
       18
102
RTVSPost2010Prop41ColorRGB
 90
        0
102
RTVSPost2010PropOp41
 70
     1
102
RTVSPost2010Prop42
 90
       50
102
RTVSPost2010PropOp42
 70
     1
102
RTVSPost2010Prop43
 90
        3
102
RTVSPost2010PropOp43
 70
     1
102
RTVSPost2010Prop44ColorIndex
 90
        5
102
RTVSPost2010Prop44ColorRGB
 90
      255
102
RTVSPost2010PropOp44
 70
     1
102
RTVSPost2010Prop45
280
     0
102
RTVSPost2010PropOp45
 70
     1
102
RTVSPost2010Prop46
 90
       50
102
RTVSPost2010PropOp46
 70
     1
102
RTVSPost2010Prop47
 90
       50
102
RTVSPost2010PropOp47
 70
     1
102
RTVSPost2010Prop48
 90
       50
102
RTVSPost2010PropOp48
 70
     1
102
RTVSPost2010Prop49
280
     0
102
RTVSPost2010PropOp49
 70
     1
102
RTVSPost2010Prop50
 90
       50
102
RTVSPost2010PropOp50
 70
     1
102
RTVSPost2010Prop51ColorIndex
 90
      256
102
RTVSPost2010Prop51ColorRGB
 90
-16777216
102
RTVSPost2010PropOp51
 70
     0
102
RTVSPost2010Prop52
140
1.0
102
RTVSPost2010PropOp52
 70
     0
102
RTVSPost2010Prop53
 90
        2
102
RTVSPost2010PropOp53
 70
     1
102
RTVSPost2010Prop54
  1
strokes_ogs.tif
102
RTVSPost2010PropOp54
 70
     1
102
RTVSPost2010Prop55
280
     0
102
RTVSPost2010PropOp55
 70
     1
102
RTVSPost2010Prop56
140
1.0
102
RTVSPost2010PropOp56
 70
     1
102
RTVSPost2010Prop57
140
1.0
102
RTVSPost2010PropOp57
 70
     1
  0
XRECORD
  5
212
102
{ACAD_REACTORS
330
211
102
}
330
211
100
AcDbXrecord
280
     1
102
RTVSPost2010Prop28
280
     0
102
RTVSPost2010PropOp28
 70
     1
102
RTVSPost2010Prop29
280
     1
102
RTVSPost2010PropOp29
 70
     1
102
RTVSPost2010Prop30
280
     1
102
RTVSPost2010PropOp30
 70
     1
102
RTVSPost2010Prop31
280
     0
102
RTVSPost2010PropOp31
 70
     1
102
RTVSPost2010Prop32
280
     0
102
RTVSPost2010PropOp32
 70
     1
102
RTVSPost2010Prop33
280
     0
102
RTVSPost2010PropOp33
 70
     1
102
RTVSPost2010Prop34
280
     0
102
RTVSPost2010PropOp34
 70
     1
102
RTVSPost2010Prop35
280
     0
102
RTVSPost2010PropOp35
 70
     1
102
RTVSPost2010Prop36
280
     0
102
RTVSPost2010PropOp36
 70
     1
102
RTVSPost2010Prop37
 90
       50
102
RTVSPost2010PropOp37
 70
     1
102
RTVSPost2010Prop38
140
0.0
102
RTVSPost2010PropOp38
 70
     1
102
RTVSPost2010Prop39
140
1.0
102
RTVSPost2010PropOp39
 70
     1
102
RTVSPost2010Prop40
 90
        0
102
RTVSPost2010PropOp40
 70
     1
102
RTVSPost2010Prop41ColorIndex
 90
       18
102
RTVSPost2010Prop41ColorRGB
 90
        0
102
RTVSPost2010PropOp41
 70
     1
102
RTVSPost2010Prop42
 90
       50
102
RTVSPost2010PropOp42
 70
     1
102
RTVSPost2010Prop43
 90
        3
102
RTVSPost2010PropOp43
 70
     1
102
RTVSPost2010Prop44ColorIndex
 90
        5
102
RTVSPost2010Prop44ColorRGB
 90
      255
102
RTVSPost2010PropOp44
 70
     1
102
RTVSPost2010Prop45
280
     0
102
RTVSPost2010PropOp45
 70
     1
102
RTVSPost2010Prop46
 90
       50
102
RTVSPost2010PropOp46
 70
     1
102
RTVSPost2010Prop47
 90
       50
102
RTVSPost2010PropOp47
 70
     1
102
RTVSPost2010Prop48
 90
       50
102
RTVSPost2010PropOp48
 70
     1
102
RTVSPost2010Prop49
280
     0
102
RTVSPost2010PropOp49
 70
     1
102
RTVSPost2010Prop50
 90
       50
102
RTVSPost2010PropOp50
 70
     1
102
RTVSPost2010Prop51ColorIndex
 90
      256
102
RTVSPost2010Prop51ColorRGB
 90
-16777216
102
RTVSPost2010PropOp51
 70
     0
102
RTVSPost2010Prop52
140
1.0
102
RTVSPost2010PropOp52
 70
     0
102
RTVSPost2010Prop53
 90
        2
102
RTVSPost2010PropOp53
 70
     1
102
RTVSPost2010Prop54
  1
strokes_ogs.tif
102
RTVSPost2010PropOp54
 70
     1
102
RTVSPost2010Prop55
280
     0
102
RTVSPost2010PropOp55
 70
     1
102
RTVSPost2010Prop56
140
1.0
102
RTVSPost2010PropOp56
 70
     1
102
RTVSPost2010Prop57
140
1.0
102
RTVSPost2010PropOp57
 70
     1
  0
ENDSEC
  0
EOF
